<svg width="78" height="78" viewBox="0 0 78 78" fill="none" xmlns="http://www.w3.org/2000/svg">
<path fill-rule="evenodd" clip-rule="evenodd" d="M38.5131 77.0145C17.3033 77.0145 0 59.7226 0 38.5131C0 17.3033 17.3033 0 38.5131 0C59.7226 0 77.0145 17.3033 77.0145 38.5131C77.0145 59.7226 59.7226 77.0145 38.5131 77.0145ZM38.5118 70.0094C55.8631 70.0094 70.0094 55.8631 70.0094 38.5118C70.0094 21.1604 55.8631 7.00509 38.5118 7.00509C21.1604 7.00509 7.00509 21.1604 7.00509 38.5118C7.00509 55.8631 21.1604 70.0094 38.5118 70.0094ZM38.5118 66.4204C23.1373 66.4204 10.5941 53.8862 10.5941 38.5118C10.5941 23.1371 23.1371 10.5941 38.5118 10.5941C53.8862 10.5941 66.4204 23.1373 66.4204 38.5118C66.4204 53.886 53.886 66.4204 38.5118 66.4204ZM34.661 41.0945L28.1045 34.538C26.4064 32.84 23.6489 32.84 21.9509 34.538C20.2526 36.2451 20.2526 38.9936 21.9509 40.6919L31.5885 50.338C33.2866 52.0363 36.0441 52.0363 37.7421 50.338C43.5546 44.5258 49.2968 38.6522 55.0829 32.8137C56.7722 31.1067 56.7635 28.3582 55.0654 26.6687C53.3672 24.9794 50.6099 24.9881 48.9204 26.6862L34.661 41.0945Z" fill="url(#paint0_radial_22_40317)"/>
<defs>
<radialGradient id="paint0_radial_22_40317" cx="0" cy="0" r="1" gradientUnits="userSpaceOnUse" gradientTransform="translate(38.5073 93.6427) rotate(-90) scale(146.153 52.7992)">
<stop stop-color="#FF9C38"/>
<stop offset="1" stop-color="#F97619"/>
</radialGradient>
</defs>
</svg>
