<svg width="30" height="29" viewBox="0 0 30 29" fill="none" xmlns="http://www.w3.org/2000/svg">
<path d="M15 21C11.1402 21 8 18.0845 8 14.5002C8 10.9159 11.1402 8 15 8C15.5473 8 16.2142 8.12761 16.1701 8.7913C16.1279 9.42493 15.5218 9.46673 15 9.46673C11.9937 9.46673 9.54824 11.7248 9.54824 14.5002C9.54824 17.2756 11.9937 19.5333 15 19.5333C18.0063 19.5333 20.4518 17.2752 20.4518 14.5002C20.4518 13.6891 20.2497 12.9154 19.851 12.2C19.6513 11.8421 19.7961 11.3984 20.1738 11.2092C20.5516 11.02 21.0207 11.1564 21.2201 11.5154C21.7302 12.4306 22 13.4628 22 14.5002C22 18.0845 18.8602 21 15 21Z" fill="#49210F" fill-opacity="0.7"/>
<path d="M18.3276 11C18.1898 11 18.0507 10.9525 17.9303 10.8541C17.7504 10.7071 17.5593 10.5725 17.3623 10.454C17.03 10.2545 16.9035 9.78798 17.079 9.41098C17.2545 9.03476 17.6661 8.89005 17.9984 9.08993C18.2507 9.24158 18.4956 9.41368 18.7262 9.60237C19.2486 10.0295 18.9725 11 18.3276 11Z" fill="#49210F" fill-opacity="0.7"/>
<path d="M16.1964 28.9999C15.4611 28.9999 13.2814 29.0082 12.942 28.8684C12.3576 28.6278 11.8811 28.0143 11.8811 27.3852V25.9415C10.7521 25.6552 9.66171 25.2095 8.67429 24.6308L7.62544 25.6433C6.96692 26.2724 5.84427 26.1669 5.21234 25.582C4.90368 25.2961 3.702 24.109 3.42406 23.7967C2.83146 23.1303 2.84457 22.0975 3.49223 21.4721L4.54782 20.4534C3.9305 19.4359 3.48024 18.3666 3.22403 17.3088H1.74665C0.825534 17.3088 0.0643694 16.5768 0.0137999 15.6937C-0.0097992 15.281 0.00143846 13.6159 0.0137999 13.2014C0.0392719 12.3473 0.753613 11.5269 1.68522 11.5269H3.18282C3.47912 10.4379 3.94024 9.38599 4.53958 8.43405L3.49261 7.4234C2.83745 6.78962 2.95095 5.69889 3.55591 5.09011C3.85221 4.79225 5.08236 3.63194 5.40563 3.36415C6.09488 2.79342 7.16245 2.80611 7.80974 3.4301L8.86683 4.45053C9.9213 3.85407 11.0301 3.41923 12.1269 3.17137V1.6882C12.1269 0.796773 12.8865 0.0629766 13.7983 0.0136945C14.2257 -0.00913473 15.9511 0.000649221 16.3807 0.0136945C17.3146 0.0419592 18.0521 0.780104 18.0521 1.6882V3.13187C19.1811 3.41815 20.2716 3.8635 21.259 4.44256L22.3078 3.4301C22.9649 2.79886 24.0905 2.90793 24.7209 3.49171C25.0296 3.77761 26.2313 4.96437 26.5088 5.27673C27.1014 5.94349 27.0883 6.97588 26.4403 7.60133L25.3851 8.61994C26.0024 9.63711 26.4523 10.7061 26.7089 11.7642H28.1863C29.086 11.7642 29.8828 12.4081 29.9749 13.2894C30.0195 13.7159 29.9936 15.4455 29.9809 15.872C29.9554 16.7265 29.2418 17.5462 28.3095 17.5462H26.8119C26.5156 18.6351 26.0545 19.6867 25.4551 20.6393L26.5021 21.6496C27.1576 22.2838 27.0438 23.3745 26.4388 23.9833C26.1425 24.2811 24.9127 25.4411 24.5891 25.7089C23.8995 26.28 22.8326 26.268 22.185 25.6433L21.1279 24.6229C20.0734 25.219 18.965 25.6542 17.8678 25.902V27.3258C17.8678 28.1802 17.1089 28.9999 16.1964 28.9999ZM13.3791 27.3276C13.3952 27.4011 13.4488 27.5504 13.6136 27.5504H16.1372C16.214 27.5348 16.3695 27.4834 16.3695 27.3254V25.3077C16.3695 24.9537 16.6343 24.6511 16.9958 24.5931C18.2728 24.3877 19.5988 23.8702 20.8308 23.0973C21.1271 22.9114 21.5178 22.9513 21.7677 23.1922L23.2432 24.6167C23.3619 24.7316 23.5211 24.6638 23.596 24.621L25.3911 22.9462C25.4982 22.8429 25.4334 22.6961 25.3892 22.6229L23.968 21.251C23.7122 21.0042 23.6751 20.6161 23.8792 20.3281C24.637 19.2587 25.2075 17.9607 25.4855 16.6725C25.5581 16.3366 25.8642 16.096 26.2189 16.096H28.2507C28.3271 16.0807 28.4826 16.0297 28.4826 15.8717V13.4344C28.4518 13.2876 28.3522 13.2133 28.1863 13.2133H26.0957C25.7293 13.2133 25.4169 12.9575 25.3566 12.6078C25.1442 11.3761 24.6082 10.097 23.8077 8.90803C23.614 8.62067 23.6552 8.24163 23.9062 7.99921L25.3817 6.57474C25.4982 6.4624 25.4297 6.31057 25.3862 6.23846L23.6511 4.50598C23.5425 4.40161 23.3881 4.46467 23.3113 4.50743L21.8898 5.87971C21.6351 6.12576 21.2354 6.16164 20.9383 5.96487C19.8307 5.23397 18.4851 4.68281 17.1497 4.4143C16.8021 4.34472 16.553 4.04794 16.553 3.70478V1.68711C16.553 1.5476 16.4523 1.46208 16.38 1.46208H13.8564C13.7796 1.47766 13.6241 1.52912 13.6241 1.68711V3.76421C13.6241 4.11824 13.3593 4.42082 12.9978 4.4788C11.7212 4.68426 10.3952 5.20136 9.16276 5.97429C8.86646 6.16091 8.47614 6.12069 8.22628 5.87935L6.75078 4.45524C6.63241 4.34074 6.47283 4.40814 6.39792 4.45053L4.60289 6.1254C4.49576 6.22868 4.56056 6.37543 4.60476 6.44863L6.02595 7.82092C6.28179 8.06806 6.31888 8.45579 6.11473 8.74387C5.35731 9.8125 4.78681 11.1109 4.50849 12.3991C4.43582 12.735 4.12978 12.9756 3.77505 12.9756H1.7444C1.66761 12.9916 1.51216 13.0427 1.51216 13.201V15.6361C1.52826 15.7097 1.58183 15.859 1.74665 15.859H3.83723C4.20358 15.859 4.51598 16.1152 4.57629 16.4645C4.78868 17.6958 5.32435 18.9753 6.12522 20.1646C6.31888 20.452 6.27767 20.831 6.0267 21.0735L4.55119 22.4976C4.4347 22.6103 4.50325 22.7621 4.5467 22.8342L6.2818 24.5667C6.39043 24.6714 6.54476 24.6084 6.62155 24.5649L8.04311 23.1926C8.29746 22.9465 8.69752 22.9107 8.99494 23.1074C10.1022 23.8387 11.4474 24.3899 12.7832 24.6584C13.1308 24.7279 13.3799 25.0247 13.3799 25.3679V27.3276H13.3791Z" fill="#49210F" fill-opacity="0.7"/>
</svg>
