<svg width="28" height="28" viewBox="0 0 28 28" fill="none" xmlns="http://www.w3.org/2000/svg">
<g transform="translate(1.35, 3.14)"><path id="best fit icon" d="M2.12958 3.79981C1.39389 4.86956 1.00002 6.1373 1 7.43557C1 10.1189 2.75013 12.1023 4.50027 13.8523L10.9268 20.073C11.1473 20.3199 11.4179 20.5171 11.7205 20.6514C12.0231 20.7857 12.3508 20.8541 12.6819 20.852C13.013 20.8499 13.3398 20.7773 13.6407 20.6392C13.9416 20.5011 14.2096 20.3005 14.427 20.0509L20.8349 13.8523C22.585 12.1023 24.3351 10.1073 24.3351 7.43557C24.3413 6.13445 23.9511 4.86229 23.2163 3.78842C22.4816 2.71456 21.4372 1.88991 20.2222 1.42425C19.0071 0.958583 17.6791 0.873986 16.4148 1.18172C15.1504 1.48945 14.0098 2.17491 13.1448 3.14687C13.0836 3.21222 13.0097 3.26432 12.9277 3.29993C12.8456 3.33555 12.757 3.35393 12.6676 3.35393C12.5781 3.35393 12.4896 3.33555 12.4075 3.29993C12.3254 3.26432 12.2515 3.21222 12.1904 3.14687C11.3226 2.18118 10.1822 1.50143 8.91996 1.1974C7.6577 0.893363 6.33289 0.979343 5.12053 1.44398C3.90816 1.90862 2.86526 2.73006 2.12958 3.79981Z" stroke="#49210F" stroke-opacity="0.7" stroke-width="2" stroke-linecap="round"/>
</g>
</svg>