<svg width="26" height="18" viewBox="0 0 26 18" fill="none" xmlns="http://www.w3.org/2000/svg">
<path d="M0 0H25.5938V17.4688H0V0Z" fill="#F4F5F4"/>
<path d="M0 0H25.5938V5.79719H0V0Z" fill="#E97403"/>
<path d="M0 11.6756H25.5938V17.4728H0V11.6756Z" fill="#258C05"/>
<path d="M12.7969 6.13843C11.3628 6.13843 10.2009 7.3003 10.2009 8.73436C10.2009 10.1684 11.3628 11.3303 12.7969 11.3303C14.2309 11.3303 15.3928 10.1684 15.3928 8.73436C15.3928 7.3003 14.2309 6.13843 12.7969 6.13843ZM15.2059 8.89687C15.1409 8.89687 15.0881 8.95374 15.0881 9.01874C15.0881 9.07562 15.1287 9.1203 15.1775 9.13249C15.1694 9.19343 15.1572 9.2503 15.1409 9.30718L13.9303 8.92124L13.1097 8.78311C13.1137 8.77093 13.1137 8.75468 13.1137 8.73843L13.9425 8.82374L15.21 8.73436C15.2141 8.79124 15.21 8.84405 15.2059 8.89687ZM15.0922 9.49405C15.0881 9.49405 15.0881 9.49405 15.0841 9.48999C15.0191 9.47374 14.9541 9.51437 14.9378 9.57937C14.9256 9.63624 14.9541 9.69311 15.0028 9.71749C14.9784 9.77436 14.95 9.83124 14.9216 9.88405L13.845 9.20155L13.0894 8.8603C13.0975 8.84812 13.1016 8.83187 13.1056 8.81562L13.8856 9.09999L15.1409 9.32343C15.1247 9.3803 15.1084 9.43718 15.0922 9.49405ZM13.8653 10.8875C13.8287 10.8306 13.7556 10.8144 13.6987 10.8509C13.65 10.8834 13.6297 10.9444 13.65 10.9972C13.5972 11.0175 13.5444 11.0337 13.4916 11.05L13.2072 9.8028L12.9106 9.03093C12.9228 9.02686 12.935 9.01874 12.9512 9.01062L13.2966 9.76624L14.0197 10.8184C13.9709 10.8469 13.9222 10.8753 13.8694 10.8997C13.8694 10.8956 13.8694 10.8916 13.8653 10.8875ZM13.2356 11.0987C13.2153 11.0337 13.1503 11.0012 13.0853 11.0216C13.0325 11.0378 13 11.0906 13 11.1434C12.9391 11.1475 12.8781 11.1516 12.8131 11.1516L12.8903 9.87593L12.8212 9.04718C12.8416 9.04718 12.8578 9.04311 12.8781 9.03905L13.0284 9.85561L13.4794 11.0541C13.4022 11.0784 13.3209 11.0947 13.2356 11.1109C13.2356 11.1069 13.2356 11.1028 13.2356 11.0987ZM11.8909 10.8469C11.8341 10.8347 11.7772 10.8631 11.7569 10.9159C11.7122 10.8956 11.6716 10.8712 11.6269 10.8509L12.3175 9.77843L12.6628 9.0228C12.675 9.03093 12.6912 9.03499 12.7075 9.03905L12.4191 9.81905L12.1875 11.0784C12.1184 11.0581 12.0494 11.0378 11.9803 11.0134C11.9844 11.0094 11.9844 11.0012 11.9844 10.9972C11.9966 10.9241 11.9559 10.8631 11.8909 10.8469ZM10.6762 9.62812C10.6437 9.57937 10.5869 9.56312 10.5341 9.58343C10.5137 9.53468 10.4975 9.48186 10.4812 9.42905L11.7203 9.14468L12.4962 8.84405C12.5003 8.85624 12.5084 8.87249 12.5166 8.88468L11.7609 9.23405L10.7169 9.9653C10.6844 9.91249 10.6559 9.85968 10.6275 9.8028C10.6316 9.79874 10.6356 9.79874 10.6397 9.79468C10.6966 9.75812 10.7128 9.68093 10.6762 9.62812ZM10.3878 8.5353H10.4041C10.4691 8.53124 10.5219 8.47437 10.5178 8.40937C10.5137 8.35249 10.4731 8.3078 10.4203 8.29968C10.4284 8.25093 10.4406 8.19811 10.4528 8.14936L11.6634 8.5353L12.4841 8.67343C12.48 8.68562 12.48 8.70186 12.48 8.71811L11.6512 8.6328L10.3837 8.72218C10.3797 8.65718 10.3837 8.59624 10.3878 8.5353ZM10.5137 7.94624C10.5178 7.94624 10.5259 7.9503 10.53 7.9503C10.595 7.96249 10.66 7.92187 10.6722 7.85687C10.6844 7.79999 10.6519 7.74718 10.6031 7.7228C10.6275 7.67405 10.6519 7.6253 10.6762 7.57655L11.7447 8.25499L12.5044 8.59624C12.4962 8.60843 12.4922 8.62468 12.4881 8.64093L11.7041 8.35655L10.4528 8.13312C10.4731 8.06812 10.4934 8.00718 10.5137 7.94624ZM11.7406 6.5853C11.7772 6.63811 11.8544 6.65437 11.9072 6.6178C11.9559 6.5853 11.9722 6.52437 11.9519 6.47155C12.0006 6.45124 12.0494 6.43499 12.1022 6.4228L12.3866 7.65374L12.6872 8.43374C12.675 8.4378 12.6628 8.44593 12.6466 8.45405L12.3012 7.69437L11.5781 6.64624C11.6269 6.6178 11.6797 6.58936 11.7325 6.56499C11.7366 6.57311 11.7366 6.57718 11.7406 6.5853ZM10.4203 9.17718C10.4244 9.17718 10.4325 9.17718 10.4366 9.17312C10.4975 9.1528 10.5341 9.08374 10.5137 9.0228C10.4975 8.96999 10.4447 8.93749 10.3919 8.94155C10.3878 8.87249 10.3837 8.80749 10.3837 8.73843L11.6512 8.81968L12.48 8.75468C12.48 8.77499 12.4841 8.79124 12.4881 8.81155L11.6716 8.96593L10.4812 9.4128C10.4569 9.33155 10.4366 9.25436 10.4203 9.17718ZM12.7156 8.42155L12.5612 7.60093L12.1184 6.41468C12.1875 6.39437 12.2566 6.37812 12.3256 6.36593C12.3256 6.37405 12.3297 6.38218 12.3297 6.38624C12.35 6.44718 12.4191 6.47968 12.4841 6.45936C12.5369 6.43905 12.5694 6.38624 12.5612 6.32936C12.6303 6.32124 12.7034 6.31718 12.7766 6.31718L12.6994 7.57655L12.7684 8.40937C12.7522 8.41343 12.7359 8.41749 12.7156 8.42155ZM13.1016 6.44312C13.1584 6.44312 13.2031 6.40655 13.2153 6.35374C13.2722 6.36186 13.3291 6.37405 13.3859 6.3903L12.9919 7.5928L12.8456 8.41343C12.8294 8.40936 12.8172 8.40937 12.8009 8.40937L12.8862 7.57655L12.7969 6.31718C12.8578 6.31718 12.9187 6.32124 12.9797 6.3253C12.9837 6.3903 13.0366 6.44312 13.1016 6.44312ZM13.6744 6.59749C13.7272 6.61374 13.7841 6.5853 13.8084 6.54062C13.8612 6.56499 13.91 6.58937 13.9587 6.6178L13.2762 7.68218L12.9309 8.44187C12.9187 8.43374 12.9025 8.42968 12.8862 8.42561L13.1787 7.64155L13.4062 6.39843C13.4672 6.41468 13.5281 6.43499 13.5891 6.4553C13.5728 6.51624 13.6134 6.58124 13.6744 6.59749ZM14.1903 6.89405C14.2391 6.92249 14.3 6.9103 14.3366 6.87374C14.3934 6.91843 14.4462 6.97124 14.4991 7.01999L13.5484 7.8528L13.0041 8.48655C12.9919 8.47436 12.9756 8.46624 12.9594 8.45405L13.4387 7.77155L13.975 6.62593C14.0319 6.65843 14.0887 6.69093 14.1456 6.72749C14.1131 6.78843 14.1334 6.86155 14.1903 6.89405ZM14.6128 7.30843C14.6534 7.34905 14.7144 7.35312 14.7591 7.32468C14.7956 7.37343 14.8281 7.42624 14.8606 7.47905L13.7353 8.05999L13.0569 8.54343C13.0487 8.53124 13.0406 8.51905 13.0284 8.51093L13.6784 7.98686L14.5112 7.03218C14.5478 7.06874 14.5803 7.1053 14.6128 7.14187C14.5641 7.18655 14.5681 7.26374 14.6128 7.30843ZM14.9175 7.8203C14.9459 7.86905 15.0028 7.88936 15.0556 7.87311C15.0759 7.92593 15.0922 7.97468 15.1084 8.02749L13.8734 8.31186L13.0975 8.61249C13.0934 8.6003 13.0853 8.58405 13.0772 8.57187L13.8328 8.21843L14.8728 7.49124C14.9053 7.54405 14.9337 7.59686 14.9581 7.64968C14.9012 7.6903 14.8809 7.76343 14.9175 7.8203ZM15.1653 8.25905H15.1612C15.0962 8.27937 15.0597 8.34437 15.08 8.40937C15.0962 8.46624 15.1491 8.49874 15.2019 8.49468C15.21 8.5678 15.2141 8.64093 15.2141 8.71811L13.9466 8.63687L13.1178 8.70186C13.1178 8.68155 13.1137 8.6653 13.1097 8.64499L13.9303 8.49061L15.1206 8.04374C15.1328 8.11686 15.1531 8.18593 15.1653 8.25905ZM11.2287 6.89811C11.2328 6.90218 11.2369 6.90624 11.2409 6.91437C11.2897 6.95905 11.3669 6.95093 11.4116 6.90218C11.4481 6.85749 11.4481 6.79655 11.4197 6.75187C11.4684 6.71937 11.5172 6.68686 11.5659 6.65843L12.1387 7.7878L12.6181 8.4703C12.6059 8.47843 12.5937 8.49062 12.5816 8.49874L12.0534 7.8528L11.0906 7.02811C11.1312 6.98343 11.18 6.93874 11.2287 6.89811ZM11.0744 7.0403L11.9194 7.9828L12.5572 8.51905C12.545 8.53124 12.5369 8.54749 12.5247 8.56374L11.8381 8.08843L10.6844 7.55624C10.7169 7.4953 10.7534 7.43843 10.7941 7.37749C10.7981 7.38155 10.8062 7.38562 10.8103 7.38968C10.8712 7.41812 10.9403 7.39374 10.9687 7.3328C10.9931 7.27999 10.9769 7.21905 10.9362 7.18655C10.9809 7.1378 11.0256 7.08905 11.0744 7.0403ZM10.9484 10.2903C10.9525 10.2862 10.9606 10.2822 10.9647 10.2781C11.0094 10.2294 11.0053 10.1522 10.9566 10.1075C10.9119 10.0669 10.8509 10.0669 10.8062 10.0994C10.7778 10.0587 10.7534 10.0181 10.7291 9.97749L11.8625 9.39249L12.5369 8.91311C12.545 8.9253 12.5531 8.93749 12.5653 8.94562L11.9194 9.46561L11.0825 10.4284C11.0337 10.3837 10.9891 10.3391 10.9484 10.2903ZM11.0866 10.4447L12.0453 9.60374L12.5856 8.97405C12.5978 8.98624 12.6141 8.99843 12.6303 9.00655L12.155 9.68499L11.6147 10.8428C11.5456 10.8062 11.4806 10.7616 11.4156 10.7169C11.4197 10.7128 11.4237 10.7087 11.4278 10.7006C11.4562 10.6397 11.4359 10.5706 11.375 10.5381C11.3222 10.5137 11.2612 10.5259 11.2287 10.5706C11.18 10.53 11.1312 10.4853 11.0866 10.4447ZM12.5937 11.1434C12.5937 11.1394 12.5937 11.1353 12.5937 11.1312C12.5897 11.0662 12.5369 11.0134 12.4678 11.0175C12.4109 11.0216 12.3662 11.0622 12.3541 11.115C12.3012 11.1069 12.2484 11.0947 12.1956 11.0825L12.5937 9.8678L12.7359 9.05124C12.7522 9.0553 12.7684 9.0553 12.7847 9.0553L12.6994 9.87999L12.7969 11.1516C12.7278 11.1516 12.6628 11.1475 12.5937 11.1434ZM14.3812 10.5584C14.3772 10.5544 14.3731 10.5503 14.3691 10.5462C14.3203 10.5016 14.2431 10.5016 14.1984 10.5503C14.1578 10.595 14.1537 10.66 14.1903 10.7047C14.1416 10.7412 14.0887 10.7737 14.0359 10.8062L13.4591 9.66874L12.9837 8.9903C12.9959 8.98218 13.0081 8.96999 13.0203 8.9578L13.5484 9.59968L14.5194 10.4284C14.4706 10.4772 14.4259 10.5178 14.3812 10.5584ZM14.5275 10.4203L13.6784 9.46968L13.0447 8.93343C13.0569 8.92124 13.065 8.90499 13.0772 8.88874L13.7597 9.36405L14.9175 9.89624C14.8809 9.96124 14.8444 10.0222 14.8037 10.0831C14.7997 10.0791 14.7956 10.0791 14.7916 10.075C14.7347 10.0425 14.6616 10.0669 14.6291 10.1237C14.6006 10.1766 14.6169 10.2375 14.6616 10.2741C14.6128 10.3269 14.5722 10.3756 14.5275 10.4203Z" fill="#07277E"/>
</svg>
