<svg width="54" height="54" viewBox="0 0 54 54" fill="none" xmlns="http://www.w3.org/2000/svg">
<path d="M7.875 40.4099C5.86966 41.2851 4.16305 42.7261 2.96416 44.5564C1.76527 46.3867 1.12613 48.5269 1.125 50.7149V52.8749C8.73 52.8749 7.875 52.9874 7.875 52.6162V40.4099Z" fill="url(#paint0_radial_1_78685)"/>
<path d="M25.875 42.5588L20.25 36L10.125 39.5775V52.875C27.6638 52.875 25.875 52.9762 25.875 52.65V42.5588Z" fill="url(#paint1_radial_1_78685)"/>
<path d="M43.875 39.5775L33.75 36L28.125 42.5588V52.875C45.1463 52.875 43.875 52.9537 43.875 52.7062V39.5775Z" fill="url(#paint2_radial_1_78685)"/>
<path d="M46.125 40.4099V52.8749H52.875V50.7149C52.8739 48.5269 52.2347 46.3867 51.0358 44.5564C49.8369 42.7261 48.1303 41.2851 46.125 40.4099Z" fill="url(#paint3_radial_1_78685)"/>
<path d="M23.7712 36.6526L27 40.4214L30.24 36.6414C28.1313 37.2783 25.8821 37.2822 23.7712 36.6526Z" fill="url(#paint4_radial_1_78685)"/>
<path d="M20.25 31.8263C21.4591 33.1972 23.0569 34.1675 24.831 34.608C26.6051 35.0486 28.4712 34.9385 30.1812 34.2923C31.8911 33.6462 33.3638 32.4947 34.4032 30.9911C35.4427 29.4875 35.9996 27.7029 36 25.875V22.5H18C18 26.1225 17.6512 28.8788 20.25 31.8263Z" fill="url(#paint5_radial_1_78685)"/>
<path d="M38.25 24.75C38.8467 24.75 39.419 24.5129 39.841 24.091C40.2629 23.669 40.5 23.0967 40.5 22.5H38.25V24.75Z" fill="url(#paint6_radial_1_78685)"/>
<path d="M15.75 24.75V22.5H13.5C13.5 23.0967 13.7371 23.669 14.159 24.091C14.581 24.5129 15.1533 24.75 15.75 24.75Z" fill="url(#paint7_radial_1_78685)"/>
<path d="M16.875 20.2501C38.655 20.2501 37.8113 20.5201 38.7113 19.5864C39.024 19.2717 39.2368 18.8717 39.3228 18.4365C39.4089 18.0013 39.3643 17.5503 39.1948 17.1403C39.0253 16.7304 38.7384 16.3797 38.3701 16.1323C38.0018 15.8849 37.5686 15.752 37.125 15.7501C15.345 15.7501 16.1888 15.4801 15.2888 16.4139C14.976 16.7285 14.7632 17.1286 14.6772 17.5638C14.5911 17.999 14.6357 18.4499 14.8052 18.8599C14.9747 19.2699 15.2617 19.6206 15.6299 19.8679C15.9982 20.1153 16.4314 20.2483 16.875 20.2501Z" fill="url(#paint8_radial_1_78685)"/>
<path d="M37.125 13.5C38.34 13.5 38.25 13.8263 38.25 13.5C38.2509 11.7065 37.7159 9.95366 36.7136 8.46634C35.7114 6.97902 34.2876 5.82506 32.625 5.1525V9C32.625 9.29837 32.5065 9.58452 32.2955 9.7955C32.0845 10.0065 31.7984 10.125 31.5 10.125C31.2017 10.125 30.9155 10.0065 30.7045 9.7955C30.4936 9.58452 30.375 9.29837 30.375 9V1.125H23.625V9C23.625 9.29837 23.5065 9.58452 23.2955 9.7955C23.0845 10.0065 22.7984 10.125 22.5 10.125C22.2017 10.125 21.9155 10.0065 21.7045 9.7955C21.4936 9.58452 21.375 9.29837 21.375 9V5.1525C19.6891 5.83421 18.2492 7.01067 17.2451 8.52689C16.241 10.0431 15.7197 11.8279 15.75 13.6462C16.4813 13.5 15.03 13.5 37.125 13.5Z" fill="url(#paint9_radial_1_78685)"/>
<defs>
<radialGradient id="paint0_radial_1_78685" cx="0" cy="0" r="1" gradientUnits="userSpaceOnUse" gradientTransform="translate(4.51441 55.5857) rotate(-90) scale(23.6856 4.64738)">
<stop stop-color="#FF9C38"/>
<stop offset="1" stop-color="#F97619"/>
</radialGradient>
<radialGradient id="paint1_radial_1_78685" cx="0" cy="0" r="1" gradientUnits="userSpaceOnUse" gradientTransform="translate(18.0257 56.5365) rotate(-90) scale(32.0523 10.833)">
<stop stop-color="#FF9C38"/>
<stop offset="1" stop-color="#F97619"/>
</radialGradient>
<radialGradient id="paint2_radial_1_78685" cx="0" cy="0" r="1" gradientUnits="userSpaceOnUse" gradientTransform="translate(36.0107 56.5329) rotate(-90) scale(32.0468 10.8125)">
<stop stop-color="#FF9C38"/>
<stop offset="1" stop-color="#F97619"/>
</radialGradient>
<radialGradient id="paint3_radial_1_78685" cx="0" cy="0" r="1" gradientUnits="userSpaceOnUse" gradientTransform="translate(49.5 55.5662) rotate(-90) scale(23.6552 4.62762)">
<stop stop-color="#FF9C38"/>
<stop offset="1" stop-color="#F97619"/>
</radialGradient>
<radialGradient id="paint4_radial_1_78685" cx="0" cy="0" r="1" gradientUnits="userSpaceOnUse" gradientTransform="translate(27.0056 41.2375) rotate(-90) scale(7.17341 4.43481)">
<stop stop-color="#FF9C38"/>
<stop offset="1" stop-color="#F97619"/>
</radialGradient>
<radialGradient id="paint5_radial_1_78685" cx="0" cy="0" r="1" gradientUnits="userSpaceOnUse" gradientTransform="translate(26.9922 37.5448) rotate(-90) scale(23.4812 12.351)">
<stop stop-color="#FF9C38"/>
<stop offset="1" stop-color="#F97619"/>
</radialGradient>
<radialGradient id="paint6_radial_1_78685" cx="0" cy="0" r="1" gradientUnits="userSpaceOnUse" gradientTransform="translate(39.375 25.2358) rotate(-90) scale(4.26989 1.54254)">
<stop stop-color="#FF9C38"/>
<stop offset="1" stop-color="#F97619"/>
</radialGradient>
<radialGradient id="paint7_radial_1_78685" cx="0" cy="0" r="1" gradientUnits="userSpaceOnUse" gradientTransform="translate(14.625 25.2358) rotate(-90) scale(4.26989 1.54254)">
<stop stop-color="#FF9C38"/>
<stop offset="1" stop-color="#F97619"/>
</radialGradient>
<radialGradient id="paint8_radial_1_78685" cx="0" cy="0" r="1" gradientUnits="userSpaceOnUse" gradientTransform="translate(27 21.2736) rotate(-90) scale(8.67736 16.955)">
<stop stop-color="#FF9C38"/>
<stop offset="1" stop-color="#F97619"/>
</radialGradient>
<radialGradient id="paint9_radial_1_78685" cx="0" cy="0" r="1" gradientUnits="userSpaceOnUse" gradientTransform="translate(27.0002 16.3497) rotate(-90) scale(23.7619 15.4273)">
<stop stop-color="#FF9C38"/>
<stop offset="1" stop-color="#F97619"/>
</radialGradient>
</defs>
</svg>
