<?xml version="1.0" encoding="UTF-8"?>
<svg id="Layer_1" data-name="Layer 1" xmlns="http://www.w3.org/2000/svg" xmlns:xlink="http://www.w3.org/1999/xlink" viewBox="0 0 1080 1080">
  <defs>
    <style>
      .cls-1 {
        fill: url(#linear-gradient);
      }

      .cls-1, .cls-2, .cls-3 {
        stroke-width: 0px;
      }

      .cls-2 {
        fill: #fff;
      }

      .cls-3 {
        fill: #fe8302;
      }
    </style>
    <linearGradient id="linear-gradient" x1="204.53" y1="254.51" x2="696.71" y2="801.13" gradientUnits="userSpaceOnUse">
      <stop offset="0" stop-color="#ffe90f"/>
      <stop offset=".14" stop-color="#fec50d"/>
      <stop offset=".32" stop-color="#fe9d0a"/>
      <stop offset=".51" stop-color="#fe7e09"/>
      <stop offset=".68" stop-color="#fe6807"/>
      <stop offset=".85" stop-color="#fe5a07"/>
      <stop offset="1" stop-color="#fe5607"/>
    </linearGradient>
  </defs>
  <g>
    <path class="cls-3" d="m895.94,321.4l-39.2-16.97-6.99-3c-2.16-1.25-4.47-2.28-6.93-3.08l-.47-.18-1.43-.55c-4.44-1.64-9.24-2.57-14.28-2.57-9.05,0-17.41,2.93-24.07,7.84-6.67,4.91-11.68,11.83-14.07,19.81h-.03v.04c-.59,2.05-1.03,4.18-1.29,6.34-.03.29-.07.58-.11.88-.07,1.1-.15,2.23-.15,3.4,0,.55,0,1.1.04,1.61.07,1.61.26,3.22.52,4.76.4,2.28.99,4.47,1.75,6.56h.04c2.34,10.33,20.91,81.72,36.62,141.79.52,2.01,1.06,4.03,1.58,6.05,2.75,10.55,5.42,20.65,7.84,29.92,2.35,8.96,4.5,17.14,6.35,24.15.02.09.04.17.07.25.03.12.07.28.13.48.05.21.12.47.19.77,2.71,10.91,17.57,78.84-16.57,130.55-10.83,16.4-26.59,31.18-49.24,41.97h-.01c-1.88.75-3.77,1.46-5.67,2.15-18.13,6.49-37.51,10.85-56.74,13.81-3.31.53-6.62,1-9.9,1.44-18.3,2.47-36.22,3.83-52.51,4.83-2.64.14-5.27.29-7.91.4-15.97.7-31.94.65-47.95-.11-2.81-.15-5.64-.33-8.46-.52-.21-.03-.43-.03-.69-.08-44.03-3-87.65-11.79-129.3-26.48-27.62-9.71-54.39-22.08-79.74-36.88-9.49-5.57-18.79-11.47-27.88-17.66-6.05-4.15-11.97-8.43-17.81-12.85-55.38-42.09-100.69-96.96-128.42-161.54-12.45-29.01-21.06-59.56-25.63-90.69,0-.07-.03-.18-.03-.26-.33-2.16-.62-4.32-.88-6.52-.26-1.83-.48-3.69-.7-5.56-.11-.99-.23-1.98-.33-2.96-.18-1.5-.32-3.05-.47-4.54-.11-1.36-.26-2.72-.33-4.07v-.44c-.11-.88-.18-1.76-.21-2.63-.15-1.58-.23-3.16-.33-4.77,0-.21-.03-.44-.03-.66v-.48c-.04-.11-.04-.21-.04-.32-.11-1.91-.18-3.81-.26-5.76v-.47c-.11-2.02-.14-4.03-.18-6.08-.03-2.2-.08-4.36-.08-6.56v-4.83c0-.7.04-1.4.04-2.08,0-.59.03-1.18.03-1.76v-.41c0-.65.04-1.31.04-1.93,0-.08.03-.12,0-.15.03-.7.06-1.35.06-2.05.03-.7.06-1.4.1-2.09.03-.71.05-1.41.09-2.12,0-.12,0-.26.04-.36v-.08c.03-1.25.11-2.49.18-3.74.03-.55.07-1.1.07-1.65.03-.14.03-.26.03-.4.04-.73.07-1.47.15-2.16.03-.37.03-.7.08-1.06,0-.26.03-.55.03-.81.04-.15.04-.3.04-.44.02-.19.03-.38.05-.57.02-.27.03-.53.05-.78.01-.04.01-.08.01-.11.01-.14.01-.27.02-.41.07-.7.11-1.4.18-2.09.08-.81.15-1.61.23-2.37.03-.59.11-1.21.18-1.84.07-.96.18-1.87.29-2.78.1-1.02.2-2.04.32-3.06.01-.16.03-.31.04-.47.03-.34.07-.7.11-1.04.04-.3.07-.62.11-.96.08-.44.12-.85.19-1.25.06-.62.14-1.21.21-1.84.11-.91.26-1.87.36-2.78.11-.7.18-1.43.29-2.13.12-.65.23-1.35.33-2.01.04-.23.04-.44.07-.67.08-.5.18-1.06.26-1.57.26-1.58.52-3.19.76-4.77.15-.81.3-1.61.44-2.42.07-.58.18-1.17.33-1.76.23-1.28.44-2.56.7-3.84.07.04.14.07.21.07v-.07c13.7,4.44,27.36,9.01,40.99,13.78,143.51,50.14,283.76,119.37,407.53,208.96,10.21,7.4,20.33,14.95,30.28,22.6t.07.08c2.57,1.94,5.13,3.89,7.7,5.86,1.09.81,2.19,1.64,3.25,2.49.73.59,1.47,1.14,2.2,1.72,1.2.91,2.37,1.84,3.55,2.75,3.25,2.57,6.48,5.13,9.7,7.69,1.03.81,2.02,1.61,3.01,2.42.55.44,1.14.88,1.69,1.36.21.18.44.32.62.5,3.04,2.46,6.08,4.95,9.09,7.44,1.94,1.61,3.92,3.25,5.85,4.91.59.47,1.18.99,1.76,1.46.43.35.85.72,1.27,1.07.42.35.84.71,1.27,1.05.98.83,1.94,1.66,2.91,2.5,1.39,1.19,2.77,2.38,4.16,3.58,2.75,2.38,5.49,4.8,8.24,7.22-.11-8.28-1.1-54.47-2.13-102.38-1.25-57.1-2.56-116.69-2.56-117.62-.23-21.83-1.03-44.9,6.22-66.34,2.13-6.22,4.92-12.37,8.25-18.31.03-.03.03-.08.08-.11v-.04c2.16-4.03,4.73-7.95,7.69-11.79.21-.29.44-.55.65-.84.04-.04.04-.08.08-.08,13.78-17.47,32.42-26.19,53.41-27.33,17.81-.95,34.54,1.91,49.52,9.45.12.04.18.12.3.15h.06s.04.03.08.03c.15.04.33.15.59.26.03,0,.08.04.11.04.04.03.11.07.15.11h.08v.03h.03s.08.04.08.04c.03,0,.03.03.08.03,0,0,.03.04.06.04.08.03.19.11.3.14l.03.04s.07.03.11.03c.08.03.15.08.23.11,0,.04.03.04.08.08.69.36,1.5.81,2.34,1.29.51.29,1.02.58,1.5.91h.03c.88.58,1.73,1.17,2.57,1.83,1.28.99,2.49,2.05,3.66,3.22.33.38.66.74,1.03,1.18.32.4.69.81,1.09,1.28.18.21.36.47.55.7.62.73,1.25,1.5,1.87,2.31,2.64,3.25,5.68,7.25,8.94,11.53.81,1.1,1.65,2.23,2.49,3.37,13.3,17.81,28.38,39.23,28.38,39.23,6.38,5.97.04,16.37-7.72,13.01Z"/>
    <path class="cls-1" d="m825.48,680.26c-10.83,16.4-26.59,31.18-49.24,41.97h-.01c-1.88.75-3.77,1.46-5.67,2.15-18.13,6.49-37.51,10.85-56.74,13.81-3.31.53-6.62,1-9.9,1.44-18.3,2.47-36.22,3.83-52.51,4.83-2.64.14-5.27.29-7.91.4-15.97.7-31.94.65-47.95-.11-2.81-.15-5.64-.33-8.46-.52-.21-.03-.43-.03-.69-.08-44.03-3-87.65-11.79-129.3-26.48-27.62-9.71-54.39-22.08-79.74-36.88-9.49-5.53-18.79-11.43-27.88-17.66-6.05-4.15-11.97-8.43-17.81-12.85-55.38-42.09-100.69-96.96-128.42-161.54-12.45-29.01-21.06-59.56-25.63-90.69,0-.07-.03-.18-.03-.26-.33-2.16-.62-4.32-.88-6.52-.26-1.83-.48-3.69-.7-5.56-.11-.99-.23-1.98-.33-2.96-.29-2.87-.55-5.76-.81-8.61v-.44c-.21-2.78-.4-5.56-.58-8.36v-.18c-.12-2.19-.23-4.35-.3-6.55-.11-2.02-.14-4.03-.18-6.08-.03-2.2-.08-4.36-.08-6.56v-1.06c0-2.86.04-5.75.12-8.6.02-1.89.09-3.77.16-5.65.03-.71.05-1.41.09-2.12,0-.12,0-.26.04-.36v-.08c.03-1.25.11-2.49.18-3.74.03-.55.07-1.1.07-1.65.03-.14.03-.26.03-.4.04-.73.07-1.47.15-2.16.03-.37.03-.7.08-1.06.03-.6.07-1.21.13-1.82.02-.27.03-.53.05-.78.01-.04.01-.08.01-.11.06-.84.14-1.68.2-2.5.08-.81.15-1.61.23-2.37.03-.59.11-1.21.18-1.84.07-.96.18-1.87.29-2.78.1-1.02.2-2.04.32-3.06.01-.16.03-.31.04-.47.13-1.08.27-2.17.41-3.24.06-.62.14-1.21.21-1.84.11-.91.26-1.87.36-2.78.11-.7.18-1.43.29-2.13.12-.65.23-1.35.33-2.01.11-.73.23-1.5.33-2.23.26-1.58.52-3.19.76-4.77.15-.81.3-1.61.44-2.42.07-.58.18-1.17.33-1.76.23-1.28.44-2.56.7-3.84.07.04.14.07.21.07,129.16,41.75,253.88,99.12,369.23,170.69,26.67,16.52,53.07,33.88,78.93,52.24,10.33,7.25,20.54,14.72,30.65,22.34t.07.08c2.57,1.94,5.13,3.89,7.7,5.86,1.09.81,2.19,1.64,3.25,2.49.73.59,1.47,1.14,2.2,1.72,1.2.91,2.37,1.84,3.55,2.75,3.25,2.57,6.48,5.13,9.7,7.69,1.03.81,2.02,1.61,3.01,2.42.55.44,1.14.88,1.69,1.36.21.18.44.32.62.5,3.04,2.46,6.08,4.95,9.09,7.44,1.94,1.61,3.92,3.25,5.85,4.91.59.47,1.18.99,1.76,1.46.43.35.85.72,1.27,1.07,1.4,1.18,2.79,2.36,4.18,3.55,1.39,1.19,2.77,2.38,4.16,3.58,2.75,2.38,5.49,4.8,8.24,7.22,19.73,17.46,38.73,35.71,56.75,54.8,15.08,15.96,29.48,32.51,43.09,49.68Z"/>
  </g>
  <g>
    <path class="cls-2" d="m294.17,967.28l-40.7-107.19h24.04l21.81,62.32c3.75,10.47,6.01,18.93,6.78,25.39h.77c.58-4.65,2.84-13.12,6.78-25.39l21.81-62.32h24.23l-40.9,107.19h-24.62Z"/>
    <path class="cls-2" d="m443.03,967.28l-4.56-14.93h-.77c-5.17,6.53-10.37,10.97-15.6,13.33-5.23,2.36-11.95,3.54-20.16,3.54-10.53,0-18.75-2.84-24.66-8.53-5.91-5.68-8.87-13.73-8.87-24.13,0-11.05,4.1-19.38,12.31-25,8.2-5.62,20.71-8.69,37.51-9.21l18.51-.58v-5.72c0-6.85-1.6-11.97-4.8-15.36-3.2-3.39-8.16-5.09-14.88-5.09-5.49,0-10.76.81-15.8,2.42-5.04,1.62-9.89,3.52-14.54,5.72l-7.37-16.28c5.81-3.04,12.18-5.35,19.09-6.93,6.91-1.58,13.44-2.37,19.58-2.37,13.63,0,23.92,2.97,30.87,8.92,6.94,5.95,10.42,15.28,10.42,28.01v72.2h-16.28Zm-33.92-15.51c8.27,0,14.91-2.31,19.92-6.93,5.01-4.62,7.51-11.1,7.51-19.43v-9.3l-13.76.58c-10.73.39-18.53,2.18-23.41,5.38-4.88,3.2-7.32,8.09-7.32,14.68,0,4.78,1.42,8.48,4.26,11.1,2.84,2.62,7.11,3.93,12.79,3.93Z"/>
    <path class="cls-2" d="m585.4,967.28h-22.87v-65.9c0-8.27-1.66-14.44-4.99-18.51-3.33-4.07-8.61-6.11-15.85-6.11-9.56,0-16.59,2.86-21.08,8.58-4.49,5.72-6.74,15.3-6.74,28.74v53.21h-22.78v-150.8h22.78v38.28c0,6.14-.39,12.7-1.16,19.67h1.45c3.1-5.17,7.41-9.17,12.94-12.02,5.52-2.84,11.97-4.26,19.33-4.26,25.97,0,38.96,13.08,38.96,39.25v69.88Z"/>
    <path class="cls-2" d="m684.16,967.28l-4.56-14.93h-.77c-5.17,6.53-10.37,10.97-15.6,13.33-5.23,2.36-11.95,3.54-20.16,3.54-10.53,0-18.75-2.84-24.66-8.53-5.91-5.68-8.87-13.73-8.87-24.13,0-11.05,4.1-19.38,12.31-25,8.2-5.62,20.71-8.69,37.51-9.21l18.51-.58v-5.72c0-6.85-1.6-11.97-4.8-15.36-3.2-3.39-8.16-5.09-14.88-5.09-5.49,0-10.76.81-15.8,2.42-5.04,1.62-9.89,3.52-14.54,5.72l-7.37-16.28c5.81-3.04,12.18-5.35,19.09-6.93,6.91-1.58,13.44-2.37,19.58-2.37,13.63,0,23.92,2.97,30.87,8.92,6.94,5.95,10.42,15.28,10.42,28.01v72.2h-16.28Zm-33.92-15.51c8.27,0,14.91-2.31,19.92-6.93,5.01-4.62,7.51-11.1,7.51-19.43v-9.3l-13.76.58c-10.73.39-18.53,2.18-23.41,5.38-4.88,3.2-7.32,8.09-7.32,14.68,0,4.78,1.42,8.48,4.26,11.1,2.84,2.62,7.11,3.93,12.79,3.93Z"/>
    <path class="cls-2" d="m826.53,967.28h-22.87v-65.9c0-8.27-1.66-14.44-4.99-18.51-3.33-4.07-8.61-6.11-15.85-6.11-9.63,0-16.67,2.84-21.13,8.53-4.46,5.69-6.69,15.22-6.69,28.59v53.4h-22.78v-107.19h17.83l3.2,14.05h1.16c3.23-5.1,7.82-9.05,13.76-11.82,5.94-2.78,12.53-4.17,19.77-4.17,25.71,0,38.57,13.08,38.57,39.25v69.88Z"/>
  </g>
</svg>