<svg width="67" height="67" viewBox="0 0 67 67" fill="none" xmlns="http://www.w3.org/2000/svg">
<g clip-path="url(#clip0_22_40319)">
<path d="M63.6026 60.6726L62.0682 56.1523C59.3875 48.2608 52.4612 42.7021 44.3562 41.6399C41.3494 44.9488 37.4355 46.9685 33.1485 46.9685C28.8625 46.9685 24.9496 44.9488 21.9428 41.6399C13.8387 42.7021 6.91246 48.2608 4.2318 56.1523L2.69736 60.6726C2.25563 61.9724 2.4673 63.4055 3.26773 64.5222C4.06719 65.6381 5.35611 66.2998 6.72917 66.2998H59.5706C60.9438 66.2998 62.2328 65.638 63.0321 64.5222C63.8327 63.4055 64.0443 61.9724 63.6026 60.6726Z" fill="url(#paint0_radial_22_40319)"/>
<path d="M33.1486 43.6185C40.6299 43.6185 46.7032 35.6746 46.9082 25.7778H19.392C19.597 35.6746 25.6703 43.6185 33.1486 43.6185Z" fill="url(#paint1_radial_22_40319)"/>
<path d="M16.3112 21.3903C16.7584 21.6108 17.2535 21.7459 17.7856 21.7459H48.3194H48.5157C49.0468 21.7459 49.5431 21.6108 49.9892 21.3903C51.0972 20.8451 51.8661 19.7151 51.8661 18.3956C51.8661 16.545 50.3664 15.0454 48.5158 15.0454H48.2521H47.9008C47.805 14.56 47.6915 14.0803 47.5705 13.6025C46.6565 10.0026 45.0064 6.6535 42.6858 4.14727V6.58046C42.6858 7.81377 41.6857 8.81393 40.4524 8.81393C39.2188 8.81393 38.2189 7.81377 38.2189 6.58046V0.853808C37.3297 0.454784 36.3777 0.178655 35.3829 0V9.01576C35.3829 10.2491 34.383 11.2492 33.1494 11.2492C31.9161 11.2492 30.9159 10.2491 30.9159 9.01576V0C29.9214 0.178655 28.9704 0.454784 28.0816 0.852685V6.58046C28.0816 7.81377 27.0815 8.81393 25.8481 8.81393C24.6148 8.81393 23.6147 7.81377 23.6147 6.58046V4.14741C21.295 6.65251 19.6459 9.99935 18.7323 13.5973C18.6101 14.0771 18.4966 14.558 18.4007 15.0455H18.0484H17.7856C15.9349 15.0455 14.4354 16.5451 14.4354 18.3957C14.4353 19.7141 15.2041 20.8441 16.3112 21.3903Z" fill="url(#paint2_radial_22_40319)"/>
</g>
<defs>
<radialGradient id="paint0_radial_22_40319" cx="0" cy="0" r="1" gradientUnits="userSpaceOnUse" gradientTransform="translate(33.15 71.6241) rotate(-90) scale(46.7977 42.0657)">
<stop stop-color="#FF9C38"/>
<stop offset="1" stop-color="#F97619"/>
</radialGradient>
<radialGradient id="paint1_radial_22_40319" cx="0" cy="0" r="1" gradientUnits="userSpaceOnUse" gradientTransform="translate(33.1501 47.4704) rotate(-90) scale(33.8567 18.8644)">
<stop stop-color="#FF9C38"/>
<stop offset="1" stop-color="#F97619"/>
</radialGradient>
<radialGradient id="paint2_radial_22_40319" cx="0" cy="0" r="1" gradientUnits="userSpaceOnUse" gradientTransform="translate(33.1507 26.4411) rotate(-90) scale(41.2678 25.6615)">
<stop stop-color="#FF9C38"/>
<stop offset="1" stop-color="#F97619"/>
</radialGradient>
<clipPath id="clip0_22_40319">
<rect width="66.3" height="66.3" fill="white"/>
</clipPath>
</defs>
</svg>
