<svg width="69" height="69" viewBox="0 0 69 69" fill="none" xmlns="http://www.w3.org/2000/svg">
<path d="M4.01202 37.0853H9.29132V53.2142C9.29135 56.7007 12.1079 59.5414 15.5999 59.5414H31.7474V64.8207C31.7474 65.5068 31.1914 66.0629 30.5052 66.0629H4.01202C3.32586 66.0629 2.76984 65.5068 2.76984 64.8207V38.3275C2.76984 37.6413 3.32586 37.0853 4.01202 37.0853Z" fill="url(#paint0_radial_22_40312)" stroke="url(#paint1_radial_22_40312)" stroke-width="1.3"/>
<path d="M64.8208 2.11951H15.6185C14.5734 2.11951 13.7261 2.96675 13.7261 4.0119V53.2142C13.7261 54.2593 14.5734 55.1066 15.6185 55.1066H64.8208C65.866 55.1066 66.7132 54.2593 66.7132 53.2142V4.0119C66.7132 2.96675 65.866 2.11951 64.8208 2.11951ZM57.349 21.5205C57.349 22.5653 56.5018 23.4129 55.4566 23.4129C54.4111 23.4129 53.5642 22.5653 53.5642 21.5205V17.8816L37.7414 33.7044C37.3724 34.0738 36.8879 34.2587 36.4033 34.2587C35.9192 34.2587 35.4351 34.0738 35.0653 33.7044C34.326 32.9655 34.326 31.767 35.0653 31.0282L50.9771 15.1163H47.149C46.1038 15.1163 45.2566 14.2695 45.2566 13.2239C45.2566 12.1788 46.1038 11.3315 47.149 11.3315H55.4566C56.5018 11.3315 57.349 12.1788 57.349 13.2239V21.5205Z" fill="url(#paint2_radial_22_40312)"/>
<defs>
<radialGradient id="paint0_radial_22_40312" cx="0" cy="0" r="1" gradientUnits="userSpaceOnUse" gradientTransform="translate(17.2586 73.2506) rotate(-90) scale(57.46 20.758)">
<stop stop-color="#FF9C38"/>
<stop offset="1" stop-color="#F97619"/>
</radialGradient>
<radialGradient id="paint1_radial_22_40312" cx="0" cy="0" r="1" gradientUnits="userSpaceOnUse" gradientTransform="translate(17.2586 73.2506) rotate(-90) scale(57.46 20.758)">
<stop stop-color="#FF9C38"/>
<stop offset="1" stop-color="#F97619"/>
</radialGradient>
<radialGradient id="paint2_radial_22_40312" cx="0" cy="0" r="1" gradientUnits="userSpaceOnUse" gradientTransform="translate(40.2197 66.547) rotate(-90) scale(100.555 36.3266)">
<stop stop-color="#FF9C38"/>
<stop offset="1" stop-color="#F97619"/>
</radialGradient>
</defs>
</svg>
