<svg width="153" height="52" viewBox="0 0 153 52" fill="none" xmlns="http://www.w3.org/2000/svg">
<path d="M50.6217 16.9817L48.5309 16.0707L48.1576 15.9104C48.0419 15.8434 47.9189 15.788 47.7887 15.7442L47.7641 15.734L47.6874 15.7049C47.4516 15.616 47.1955 15.5664 46.9263 15.5664C46.4431 15.5664 45.9975 15.7238 45.643 15.9877C45.287 16.2515 45.0194 16.6232 44.8935 17.0517H44.892V17.0546C44.8602 17.1654 44.8371 17.2791 44.824 17.3942C44.8226 17.4102 44.8197 17.4248 44.8183 17.4408C44.8139 17.4991 44.8096 17.5604 44.8096 17.623C44.8096 17.6522 44.8096 17.6813 44.8125 17.709C44.8168 17.795 44.8255 17.8825 44.84 17.9641C44.8617 18.0865 44.892 18.2046 44.934 18.3168H44.9369C45.0613 18.8722 46.0524 22.7055 46.8902 25.9326C46.9177 26.0404 46.9466 26.1483 46.9741 26.2576C47.1202 26.8246 47.2635 27.3668 47.3922 27.8653C47.5181 28.3463 47.6324 28.7865 47.7308 29.1625C47.7308 29.1669 47.7337 29.1713 47.7337 29.1756C47.7352 29.1815 47.738 29.1902 47.7409 29.2019C47.7438 29.2135 47.7467 29.2266 47.7511 29.2441C47.8958 29.8301 48.6872 33.4783 46.867 36.2564C46.2897 37.1368 45.4491 37.9312 44.241 38.5113C44.1411 38.5521 44.0398 38.59 43.9386 38.6264C42.972 38.9748 41.939 39.2095 40.9131 39.3683C40.7366 39.396 40.5601 39.4223 40.385 39.4456C39.4098 39.5782 38.4535 39.6511 37.5853 39.705C37.445 39.7123 37.3046 39.7211 37.1628 39.7269C36.3106 39.7648 35.4599 39.7619 34.6062 39.7211C34.4557 39.7123 34.3053 39.7036 34.1548 39.6934C34.1432 39.6919 34.1316 39.6919 34.1186 39.689C31.7703 39.5287 29.4452 39.055 27.2243 38.2664C25.7514 37.7446 24.3233 37.08 22.9719 36.2856C22.4655 35.9868 21.9692 35.6691 21.486 35.3367C21.1633 35.1137 20.8479 34.8834 20.5368 34.6458C17.5837 32.3852 15.1675 29.438 13.6888 25.969C13.0246 24.4109 12.566 22.7697 12.3215 21.0979C12.3215 21.0935 12.32 21.0877 12.32 21.0847C12.3027 20.9681 12.2867 20.853 12.2737 20.7349C12.2607 20.6373 12.2477 20.5367 12.2361 20.4361C12.2303 20.3837 12.2245 20.3297 12.2187 20.2772C12.2086 20.1971 12.2014 20.114 12.1941 20.0338C12.1884 19.961 12.1797 19.8881 12.1768 19.8152V19.7919C12.171 19.7452 12.1667 19.6971 12.1652 19.6505C12.1565 19.566 12.1536 19.4814 12.1478 19.394C12.1478 19.3823 12.1464 19.3706 12.1464 19.359V19.3328C12.1464 19.3328 12.1435 19.3211 12.1435 19.3153C12.1377 19.2132 12.1334 19.1112 12.1305 19.0063V18.9815C12.1247 18.8736 12.1232 18.7658 12.1204 18.655C12.1189 18.5369 12.116 18.4203 12.116 18.3023V18.0428C12.116 18.0049 12.1189 17.9685 12.1189 17.9306C12.1189 17.8985 12.1204 17.8665 12.1204 17.8358V17.814C12.1204 17.779 12.1232 17.744 12.1232 17.7105C12.1232 17.7061 12.1247 17.7047 12.1232 17.7017C12.1247 17.6638 12.1261 17.6289 12.1261 17.591C12.1276 17.5531 12.129 17.5166 12.1319 17.4787C12.1334 17.4408 12.1348 17.4029 12.1363 17.3651C12.1363 17.3592 12.1363 17.3519 12.1392 17.3461V17.3417C12.1406 17.2747 12.145 17.2076 12.1493 17.1406C12.1507 17.1114 12.1536 17.0823 12.1536 17.0517C12.1551 17.0444 12.1551 17.0386 12.1551 17.0298C12.158 16.9905 12.1594 16.9511 12.1638 16.9132C12.1652 16.8943 12.1652 16.8753 12.1681 16.8564C12.1681 16.8418 12.1695 16.8272 12.1695 16.8126C12.1724 16.8039 12.1724 16.7966 12.1724 16.7893C12.1724 16.7791 12.1739 16.7689 12.1753 16.7587C12.1753 16.7441 12.1768 16.731 12.1782 16.7164C12.1782 16.7135 12.1782 16.7121 12.1782 16.7106C12.1782 16.7033 12.1782 16.696 12.1782 16.6887C12.1826 16.6508 12.184 16.6144 12.1884 16.5765C12.1927 16.5328 12.197 16.4905 12.1999 16.4497C12.2014 16.4176 12.2057 16.3841 12.2101 16.3506C12.2144 16.2996 12.2202 16.25 12.226 16.2005C12.2318 16.1451 12.2375 16.0911 12.2433 16.0358C12.2433 16.027 12.2448 16.0197 12.2462 16.011C12.2477 15.992 12.2506 15.9731 12.252 15.9556C12.2549 15.9396 12.2564 15.9221 12.2578 15.9046C12.2621 15.8813 12.2636 15.8594 12.2679 15.8375C12.2708 15.804 12.2752 15.7719 12.2795 15.7384C12.2853 15.6889 12.2925 15.6378 12.2983 15.5883C12.3041 15.5504 12.3084 15.511 12.3142 15.4746C12.32 15.4396 12.3258 15.4017 12.3316 15.3667C12.3345 15.3551 12.3345 15.3434 12.3359 15.3303C12.3403 15.3026 12.3461 15.2735 12.3504 15.2458C12.3634 15.1612 12.3779 15.0738 12.3909 14.9892C12.3996 14.9455 12.4068 14.9032 12.4141 14.8595C12.4184 14.8289 12.4242 14.7968 12.4314 14.7648C12.443 14.6963 12.4546 14.6278 12.469 14.5578C12.4734 14.5607 12.4763 14.5622 12.4806 14.5622V14.5578C13.2113 14.7954 13.9391 15.0417 14.6669 15.2982C22.3194 17.9918 29.7968 21.71 36.396 26.5229C36.94 26.9208 37.4797 27.326 38.0107 27.737C38.0107 27.737 38.0122 27.7385 38.0151 27.7414C38.1525 27.8463 38.2885 27.9498 38.426 28.0562C38.4838 28.1 38.5432 28.1451 38.5996 28.1903C38.6387 28.2224 38.6777 28.2515 38.7168 28.2822C38.7804 28.3317 38.8427 28.3813 38.9063 28.4294C39.08 28.5678 39.2521 28.7048 39.4229 28.8419C39.4778 28.8856 39.5299 28.9279 39.5835 28.9716C39.6124 28.9949 39.6442 29.0182 39.6732 29.0445C39.6847 29.0547 39.6963 29.0619 39.7065 29.0721C39.8685 29.2048 40.0305 29.3374 40.1912 29.4715C40.2953 29.5575 40.3995 29.6464 40.5037 29.7353C40.5355 29.7601 40.5673 29.7878 40.5977 29.814C40.6209 29.833 40.6426 29.8534 40.6657 29.8723C40.6874 29.8913 40.7106 29.9102 40.7337 29.9292C40.7858 29.9729 40.8379 30.0181 40.8885 30.0633C40.9623 30.1274 41.0361 30.1916 41.1099 30.2557C41.2561 30.3839 41.4022 30.5137 41.5498 30.6434C41.544 30.1988 41.4919 27.7181 41.4369 25.144C41.3704 22.0773 41.3009 18.8765 41.3009 18.827C41.2893 17.6536 41.2459 16.4147 41.6322 15.2633C41.7451 14.9295 41.8941 14.5986 42.0721 14.2794C42.0735 14.2779 42.0735 14.275 42.0764 14.2736V14.2707C42.1922 14.0549 42.3282 13.8436 42.4859 13.6366C42.4975 13.6206 42.509 13.6075 42.5206 13.5914C42.5235 13.5885 42.5235 13.5871 42.525 13.5871C43.2513 12.6528 44.2453 12.1834 45.3637 12.1222C46.3129 12.0712 47.2056 12.2242 48.0043 12.6294C48.0101 12.6324 48.0144 12.6353 48.0202 12.6382H48.0231C48.0231 12.6382 48.026 12.6397 48.0274 12.6397C48.0361 12.6426 48.0448 12.6484 48.0593 12.6542C48.0607 12.6542 48.0636 12.6571 48.065 12.6571C48.0679 12.6586 48.0708 12.6615 48.0737 12.663H48.0781L48.0795 12.6644C48.081 12.6644 48.0838 12.6673 48.0838 12.6673C48.0853 12.6673 48.0853 12.6688 48.0882 12.6688C48.0882 12.6688 48.0896 12.6717 48.0911 12.6717C48.0954 12.6732 48.1012 12.6775 48.107 12.679V12.6819C48.107 12.6819 48.1128 12.6834 48.1142 12.6834C48.1186 12.6848 48.1229 12.6878 48.1258 12.6892C48.1258 12.6921 48.1273 12.6921 48.1301 12.6936C48.1663 12.7125 48.2097 12.7373 48.2546 12.7621C48.2821 12.7781 48.3096 12.7927 48.3342 12.8116H48.3356C48.3819 12.8423 48.4282 12.8743 48.4731 12.9093C48.5411 12.9618 48.6062 13.0201 48.6684 13.0827C48.6857 13.1032 48.7031 13.1221 48.7234 13.1469C48.7407 13.1687 48.7595 13.1906 48.7812 13.2154C48.7914 13.227 48.8001 13.2402 48.8102 13.2533C48.8435 13.2926 48.8767 13.3334 48.91 13.3772C49.0504 13.5521 49.2124 13.7663 49.386 13.9966C49.4294 14.0549 49.4743 14.1162 49.5191 14.1774C50.2281 15.1335 51.0326 16.285 51.0326 16.285C51.3726 16.6057 51.0355 17.1639 50.6202 16.9832L50.6217 16.9817Z" fill="#FE8302"/>
<path d="M46.8652 36.2565C46.2879 37.1369 45.4472 37.9313 44.2391 38.5114C44.1393 38.5522 44.038 38.5901 43.9367 38.6265C42.9702 38.9749 41.9371 39.2096 40.9113 39.3684C40.7348 39.3961 40.5583 39.4224 40.3832 39.4457C39.408 39.5783 38.4516 39.6512 37.5835 39.7051C37.4431 39.7124 37.3028 39.7212 37.161 39.727C36.3088 39.7649 35.458 39.762 34.6044 39.7212C34.4539 39.7124 34.3034 39.7037 34.1529 39.6935C34.1414 39.692 34.1298 39.692 34.1168 39.6891C31.7685 39.5288 29.4434 39.0551 27.2224 38.2665C25.7495 37.7447 24.3214 37.0801 22.9701 36.2857C22.4637 35.9884 21.9674 35.6721 21.4841 35.3368C21.1615 35.1138 20.846 34.8835 20.535 34.6459C17.5819 32.3853 15.1656 29.4381 13.6869 25.9691C13.0228 24.411 12.5641 22.7698 12.3196 21.098C12.3196 21.0936 12.3182 21.0878 12.3182 21.0848C12.3008 20.9682 12.2849 20.8531 12.2719 20.735C12.2589 20.6374 12.2458 20.5368 12.2343 20.4362C12.2285 20.3838 12.2227 20.3298 12.2169 20.2773C12.201 20.1228 12.188 19.9683 12.1735 19.8153V19.792C12.1619 19.6419 12.1518 19.4932 12.1431 19.3431V19.3329C12.1373 19.2148 12.1315 19.0996 12.1272 18.9816C12.1214 18.8737 12.12 18.7659 12.1171 18.6551C12.1156 18.537 12.1127 18.4204 12.1127 18.3024V18.2455C12.1127 18.0925 12.1156 17.9365 12.1185 17.7835C12.1185 17.6814 12.1228 17.5809 12.1272 17.4803C12.1286 17.4424 12.1301 17.4045 12.1315 17.3666C12.1315 17.3608 12.1315 17.3535 12.1344 17.3477V17.3433C12.1359 17.2762 12.1402 17.2092 12.1445 17.1421C12.146 17.113 12.1489 17.0838 12.1489 17.0532C12.1503 17.0459 12.1503 17.0401 12.1503 17.0314C12.1532 16.992 12.1547 16.9527 12.159 16.9148C12.1605 16.8958 12.1605 16.8769 12.1634 16.8579C12.1648 16.8259 12.1677 16.7923 12.1706 16.7603C12.1706 16.7457 12.172 16.7326 12.1735 16.718C12.1735 16.7151 12.1735 16.7136 12.1735 16.7122C12.1764 16.667 12.1807 16.6218 12.1851 16.5781C12.1894 16.5343 12.1937 16.4921 12.1966 16.4513C12.1981 16.4192 12.2024 16.3857 12.2068 16.3521C12.2111 16.3011 12.2169 16.2516 12.2227 16.202C12.2285 16.1466 12.2343 16.0927 12.24 16.0373C12.24 16.0286 12.2415 16.0213 12.2429 16.0125C12.2502 15.9542 12.2574 15.8959 12.2646 15.8376C12.2675 15.8041 12.2719 15.772 12.2762 15.7385C12.282 15.689 12.2892 15.6379 12.295 15.5884C12.3008 15.5505 12.3052 15.5111 12.3109 15.4747C12.3167 15.4397 12.3225 15.4018 12.3283 15.3668C12.3341 15.3275 12.3399 15.2867 12.3457 15.2473C12.3587 15.1628 12.3732 15.0753 12.3862 14.9908C12.3949 14.9471 12.4021 14.9048 12.4093 14.8611C12.4137 14.8305 12.4195 14.7984 12.4267 14.7663C12.4383 14.6978 12.4498 14.6293 12.4643 14.5594C12.4686 14.5623 12.4715 14.5637 12.4759 14.5637C19.363 16.8069 26.0128 19.8882 32.1635 23.7318C33.5858 24.6194 34.9936 25.5522 36.3725 26.5376C36.9237 26.9267 37.4677 27.329 38.0074 27.7371C38.0074 27.7371 38.0089 27.7386 38.0118 27.7415C38.1492 27.8464 38.2852 27.9499 38.4227 28.0563C38.4805 28.1001 38.5399 28.1452 38.5963 28.1904C38.6354 28.2225 38.6744 28.2516 38.7135 28.2823C38.7772 28.3318 38.8394 28.3814 38.903 28.4295C39.0767 28.5679 39.2488 28.7049 39.4196 28.842C39.4745 28.8857 39.5266 28.928 39.5802 28.9717C39.6091 28.995 39.6409 29.0183 39.6699 29.0446C39.6815 29.0548 39.693 29.062 39.7032 29.0722C39.8652 29.2049 40.0273 29.3375 40.1879 29.4716C40.292 29.5576 40.3962 29.6465 40.5004 29.7354C40.5322 29.7602 40.564 29.7879 40.5944 29.8141C40.6176 29.8331 40.6393 29.8535 40.6624 29.8724C40.7362 29.9366 40.8115 29.9993 40.8853 30.0634C40.959 30.1275 41.0328 30.1917 41.1066 30.2558C41.2528 30.3841 41.3989 30.5138 41.5465 30.6435C42.5983 31.5822 43.6112 32.5616 44.5719 33.5878C45.3763 34.4448 46.1432 35.3339 46.8695 36.2565H46.8652Z" fill="url(#paint0_linear_22_40112)"/>
<path d="M63.2572 36.7818L57.3684 21.1582H60.8467L64.0023 30.2417C64.5449 31.7678 64.8719 33.0009 64.9833 33.9425H65.0947C65.1786 33.2647 65.5056 32.0302 66.0757 30.2417L69.2313 21.1582H72.7371L66.8194 36.7818H63.2572Z" fill="#2A2A2A"/>
<path d="M84.7951 36.7817L84.1353 34.6056H84.0239C83.2759 35.5574 82.5235 36.2045 81.7668 36.5485C81.0101 36.8925 80.0378 37.0645 78.8499 37.0645C77.3263 37.0645 76.137 36.6505 75.2819 35.8212C74.4268 34.9933 73.9985 33.82 73.9985 32.3041C73.9985 30.6935 74.5918 29.4794 75.7796 28.6602C76.9661 27.8411 78.7761 27.3936 81.2069 27.3178L83.885 27.2333V26.3995C83.885 25.4011 83.6535 24.6549 83.1905 24.1607C82.7275 23.6666 82.0099 23.4188 81.0376 23.4188C80.2432 23.4188 79.4807 23.5369 78.7515 23.7716C78.0223 24.0077 77.3206 24.2846 76.6478 24.6053L75.5814 22.2324C76.422 21.7893 77.3437 21.4526 78.3435 21.2223C79.3433 20.992 80.2881 20.8769 81.1765 20.8769C83.1486 20.8769 84.6374 21.3098 85.643 22.177C86.6471 23.0443 87.1506 24.4042 87.1506 26.2596V36.7832H84.7951V36.7817ZM79.8873 34.5211C81.0839 34.5211 82.0446 34.1844 82.7695 33.511C83.4944 32.8376 83.8561 31.8931 83.8561 30.6789V29.3234L81.8652 29.4079C80.3127 29.4648 79.1841 29.7257 78.4781 30.1921C77.772 30.6585 77.4189 31.3713 77.4189 32.3318C77.4189 33.0285 77.6244 33.5678 78.0353 33.9497C78.4462 34.3316 79.064 34.5225 79.8859 34.5225L79.8873 34.5211Z" fill="#2A2A2A"/>
<path d="M105.394 36.7816H102.085V27.1763C102.085 25.9709 101.845 25.0716 101.363 24.4784C100.882 23.8852 100.118 23.5878 99.07 23.5878C97.6868 23.5878 96.6697 24.0047 96.02 24.8384C95.3704 25.6721 95.0448 27.0685 95.0448 29.0274V36.7831H91.7488V14.8017H95.0448V20.3812C95.0448 21.2761 94.9884 22.2323 94.877 23.2482H95.0868C95.5353 22.4947 96.1589 21.9116 96.959 21.4962C97.7577 21.0823 98.6909 20.8753 99.7558 20.8753C103.513 20.8753 105.393 22.7818 105.393 26.5962V36.7816H105.394Z" fill="#2A2A2A"/>
<path d="M119.684 36.7817L119.024 34.6056H118.912C118.164 35.5574 117.412 36.2045 116.655 36.5485C115.899 36.8925 114.926 37.0645 113.738 37.0645C112.215 37.0645 111.025 36.6505 110.17 35.8212C109.315 34.9933 108.887 33.82 108.887 32.3041C108.887 30.6935 109.48 29.4794 110.668 28.6602C111.855 27.8411 113.665 27.3936 116.095 27.3178L118.773 27.2333V26.3995C118.773 25.4011 118.542 24.6549 118.079 24.1607C117.616 23.6666 116.898 23.4188 115.926 23.4188C115.132 23.4188 114.369 23.5369 113.64 23.7716C112.911 24.0077 112.209 24.2846 111.536 24.6053L110.47 22.2324C111.311 21.7893 112.232 21.4526 113.232 21.2223C114.232 20.992 115.177 20.8769 116.065 20.8769C118.037 20.8769 119.526 21.3098 120.531 22.177C121.536 23.0443 122.039 24.4042 122.039 26.2596V36.7832H119.684V36.7817ZM114.776 34.5211C115.972 34.5211 116.933 34.1844 117.658 33.511C118.383 32.8376 118.745 31.8931 118.745 30.6789V29.3234L116.754 29.4079C115.201 29.4648 114.073 29.7257 113.367 30.1921C112.66 30.6585 112.307 31.3713 112.307 32.3318C112.307 33.0285 112.513 33.5678 112.924 33.9497C113.335 34.3316 113.952 34.5225 114.774 34.5225L114.776 34.5211Z" fill="#2A2A2A"/>
<path d="M140.283 36.7817H136.974V27.1764C136.974 25.971 136.734 25.0717 136.252 24.4784C135.77 23.8852 135.006 23.5879 133.959 23.5879C132.565 23.5879 131.547 24.0018 130.902 24.8312C130.256 25.6605 129.934 27.0496 129.934 28.9983V36.7817H126.638V21.1581H129.217L129.68 23.206H129.848C130.316 22.4626 130.98 21.8869 131.839 21.4832C132.699 21.078 133.652 20.8754 134.7 20.8754C138.419 20.8754 140.28 22.7818 140.28 26.5963V36.7817H140.283Z" fill="#2A2A2A"/>
<defs>
<linearGradient id="paint0_linear_22_40112" x1="13.7549" y1="13.3875" x2="40.2117" y2="42.5564" gradientUnits="userSpaceOnUse">
<stop stop-color="#FFE90F"/>
<stop offset="0.14" stop-color="#FEC50D"/>
<stop offset="0.32" stop-color="#FE9D0A"/>
<stop offset="0.51" stop-color="#FE7E09"/>
<stop offset="0.68" stop-color="#FE6807"/>
<stop offset="0.85" stop-color="#FE5A07"/>
<stop offset="1" stop-color="#FE5607"/>
</linearGradient>
</defs>
</svg>
