<svg width="54" height="54" viewBox="0 0 54 54" fill="none" xmlns="http://www.w3.org/2000/svg">
<path d="M3.37519 13.5007H15.1886C15.5211 13.5007 15.8502 13.5662 16.1574 13.6934C16.4645 13.8206 16.7435 14.0071 16.9786 14.2422C17.2137 14.4772 17.4001 14.7563 17.5273 15.0634C17.6545 15.3705 17.72 15.6997 17.72 16.0321V25.3138C17.72 25.9852 17.4533 26.6291 16.9786 27.1038C16.5038 27.5786 15.86 27.8453 15.1886 27.8453H3.37514C2.70377 27.8453 2.0599 27.5786 1.58518 27.1038C1.11045 26.6291 0.84375 25.9852 0.84375 25.3139V16.0322C0.84375 15.6998 0.909228 15.3706 1.03644 15.0634C1.16366 14.7563 1.35013 14.4773 1.58519 14.2422C1.82026 14.0071 2.09932 13.8207 2.40645 13.6934C2.71358 13.5662 3.04276 13.5007 3.37519 13.5007Z" fill="url(#paint0_radial_1_78715)"/>
<path d="M27.8455 10.125C30.1754 10.125 32.0642 8.2362 32.0642 5.90625C32.0642 3.5763 30.1754 1.6875 27.8455 1.6875C25.5155 1.6875 23.6267 3.5763 23.6267 5.90625C23.6267 8.2362 25.5155 10.125 27.8455 10.125Z" fill="url(#paint1_radial_1_78715)"/>
<path d="M10.1273 30.2504C10.1276 31.5605 10.6427 32.818 11.5618 33.7516H25.2785V30.2458C25.2785 30.023 25.1899 29.8094 25.0324 29.6518C24.8749 29.4943 24.6612 29.4058 24.4384 29.4058H10.9674C10.7442 29.4068 10.5304 29.4963 10.3729 29.6546C10.2155 29.8129 10.1272 30.0271 10.1273 30.2504Z" fill="url(#paint2_radial_1_78715)"/>
<path d="M52.0902 43.3338C51.6788 41.8125 50.7561 40.4794 49.4774 39.5584C48.1986 38.6374 46.6418 38.1847 45.0686 38.2765C45.2008 37.7836 45.269 37.2758 45.2713 36.7655C45.2554 35.9564 45.0434 35.1633 44.6534 34.4543C44.2635 33.7453 43.7072 33.1415 43.0324 32.6948C41.2203 31.493 39.8656 28.4363 39.6609 25.221H41.2768C41.9449 25.2213 42.5859 24.9565 43.0591 24.4848C43.5322 24.0131 43.799 23.373 43.8008 22.7048V21.0292C43.799 20.3611 43.5322 19.721 43.059 19.2494C42.5858 18.7778 41.9449 18.5131 41.2768 18.5135H35.506C30.6271 17.1084 29.1593 15.4902 28.2822 14.5207C28.264 14.5009 28.2463 14.4811 28.229 14.4618C28.3166 13.8149 28.1995 13.1568 27.8942 12.5798C27.5889 12.0028 27.1106 11.5359 26.5265 11.2444C26.1095 11.0453 25.653 10.9429 25.1909 10.9449C24.7288 10.9468 24.2731 11.0529 23.8578 11.2554C23.4424 11.4579 23.0781 11.7515 22.792 12.1143C22.5059 12.4771 22.3053 12.8999 22.2053 13.351L19.7843 24.919C19.7129 25.2626 19.7142 25.6173 19.7881 25.9604C19.862 26.3035 20.0068 26.6273 20.2133 26.9111C20.4197 27.1949 20.6833 27.4323 20.987 27.6082C21.2906 27.7841 21.6277 27.8945 21.9766 27.9324L26.1248 28.3914C26.3386 28.4141 26.5356 28.518 26.675 28.6817C26.8144 28.8454 26.8856 29.0564 26.8739 29.271L26.2201 40.3291C25.5417 39.7361 25.0592 38.9511 24.8367 38.0779C24.6142 37.2048 24.662 36.2846 24.9739 35.4392H12.0768C10.7164 37.6927 8.5389 41.9181 9.41994 44.6666C9.5842 45.1839 9.86963 45.6544 10.2525 46.0391C10.6353 46.4238 11.1045 46.7115 11.6209 46.8783C12.0002 46.9943 12.3981 47.0375 12.7934 47.0056C12.8892 48.3703 13.4989 49.648 14.4996 50.5809C15.5002 51.5138 16.8174 52.0325 18.1855 52.0325C19.5536 52.0325 20.8708 51.5137 21.8715 50.5808C22.8721 49.6478 23.4818 48.3702 23.5775 47.0054L38.0392 47.0052C38.1797 46.9975 38.3173 46.9619 38.4441 46.9007C38.5708 46.8394 38.6841 46.7536 38.7775 46.6483C38.88 47.1467 39.0464 47.6298 39.2728 48.0855C39.3361 48.2182 39.4332 48.332 39.5543 48.4154C39.6754 48.4988 39.8163 48.549 39.9629 48.5609C40.1095 48.5728 40.2566 48.5459 40.3896 48.4831C40.5226 48.4203 40.6367 48.3237 40.7206 48.2029C40.8186 48.0619 40.9253 47.9242 41.0375 47.7886C41.1497 48.5172 41.4098 49.2151 41.802 49.8393C42.1941 50.4635 42.7098 51.0009 43.3175 51.4182C43.9251 51.8355 44.6118 52.1241 45.3351 52.266C46.0585 52.4079 46.8033 52.4003 47.5236 52.2435C48.2439 52.0867 48.9244 51.7841 49.5234 51.3543C50.1223 50.9246 50.6269 50.3768 51.0061 49.7446C51.3853 49.1125 51.631 48.4094 51.7282 47.6786C51.8254 46.9479 51.772 46.205 51.5712 45.4957C51.7888 45.472 51.9882 45.3635 52.1264 45.1937C52.2645 45.0239 52.3301 44.8066 52.309 44.5887C52.277 44.1643 52.2038 43.744 52.0902 43.3338ZM18.1852 50.3524C17.2634 50.3523 16.3745 50.0099 15.6909 49.3915C15.0074 48.773 14.5779 47.9227 14.4859 47.0056L21.885 47.0055C21.7929 47.9227 21.3634 48.773 20.6797 49.3915C19.9961 50.0099 19.1071 50.3524 18.1852 50.3524ZM34.5432 41.1357H31.2653L32.7146 27.4335C32.7726 26.8785 32.6444 26.32 32.3503 25.8459C32.0561 25.3718 31.6127 25.0089 31.0897 24.8143L26.955 23.2714C26.765 23.2008 26.607 23.0637 26.5105 22.8855C26.414 22.7072 26.3854 22.5 26.4301 22.3023L27.0593 19.5897C29.2102 21.3047 31.8071 22.3682 34.5432 22.6544V41.1357ZM46.8502 50.6016C46.2904 50.6752 45.7212 50.6206 45.1856 50.4418C44.6501 50.263 44.1622 49.9648 43.7589 49.5696C43.3556 49.1745 43.0475 48.6928 42.8578 48.161C42.6681 47.6292 42.6019 47.0612 42.6641 46.5L42.9211 46.1801C44.8533 44.9824 47.1555 44.5295 49.3974 44.9062L49.5967 45.0601C49.9031 45.5901 50.0737 46.1876 50.0932 46.7995C50.1128 47.4114 49.9808 48.0186 49.709 48.5671C49.4371 49.1156 49.0338 49.5884 48.5351 49.9434C48.0363 50.2983 47.4575 50.5245 46.8502 50.6016Z" fill="url(#paint3_radial_1_78715)"/>
<defs>
<radialGradient id="paint0_radial_1_78715" cx="0" cy="0" r="1" gradientUnits="userSpaceOnUse" gradientTransform="translate(9.28189 30.9424) rotate(-90) scale(27.222 11.5699)">
<stop stop-color="#FF9C38"/>
<stop offset="1" stop-color="#F97619"/>
</radialGradient>
<radialGradient id="paint1_radial_1_78715" cx="0" cy="0" r="1" gradientUnits="userSpaceOnUse" gradientTransform="translate(27.8455 11.9467) rotate(-90) scale(16.0121 5.78453)">
<stop stop-color="#FF9C38"/>
<stop offset="1" stop-color="#F97619"/>
</radialGradient>
<radialGradient id="paint2_radial_1_78715" cx="0" cy="0" r="1" gradientUnits="userSpaceOnUse" gradientTransform="translate(17.7029 34.6899) rotate(-90) scale(8.24728 10.3872)">
<stop stop-color="#FF9C38"/>
<stop offset="1" stop-color="#F97619"/>
</radialGradient>
<radialGradient id="paint3_radial_1_78715" cx="0" cy="0" r="1" gradientUnits="userSpaceOnUse" gradientTransform="translate(30.7645 61.3105) rotate(-90) scale(78.6081 29.5461)">
<stop stop-color="#FF9C38"/>
<stop offset="1" stop-color="#F97619"/>
</radialGradient>
</defs>
</svg>
