<svg width="28" height="28" viewBox="0 0 28 28" fill="none" xmlns="http://www.w3.org/2000/svg">
<path id="retention icon" d="M21.0004 24.5C21.0004 22.0246 20.017 19.6507 18.2665 17.9003C16.516 16.15 14.1418 15.1667 11.6662 15.1667M11.6662 15.1667C9.19063 15.1667 6.81644 16.15 5.06595 17.9003C3.31545 19.6507 2.33203 22.0246 2.33203 24.5M11.6662 15.1667C14.8882 15.1667 17.5001 12.555 17.5001 9.33333C17.5001 6.11167 14.8882 3.5 11.6662 3.5C8.44425 3.5 5.83235 6.11167 5.83235 9.33333C5.83235 12.555 8.44425 15.1667 11.6662 15.1667ZM25.6672 23.3336C25.6672 19.4019 23.3337 15.7502 21.0001 14.0002C21.7672 13.4248 22.3806 12.6692 22.786 11.8002C23.1914 10.9313 23.3763 9.97577 23.3244 9.01833C23.2725 8.06088 22.9853 7.13099 22.4883 6.31096C21.9914 5.49093 21.2999 4.80603 20.4751 4.31689" stroke="#49210F" stroke-opacity="0.7" stroke-width="2" stroke-linecap="round"/>
</svg>