<svg width="28" height="28" viewBox="0 0 28 28" fill="none" xmlns="http://www.w3.org/2000/svg">
<path id="smart icon" d="M4.04441 16.1549C4.23138 16.2723 4.44781 16.3342 4.66856 16.3335H12.8343C13.023 16.3328 13.209 16.378 13.3764 16.4651C13.5438 16.5522 13.6876 16.6786 13.7954 16.8335C13.9033 16.9884 13.9719 17.1671 13.9955 17.3544C14.0191 17.5416 13.9969 17.7318 13.9309 17.9086L11.6911 24.9323C11.656 25.0599 11.6653 25.1956 11.7175 25.3172C11.7697 25.4388 11.8617 25.539 11.9784 25.6014C12.095 25.6638 12.2295 25.6847 12.3596 25.6607C12.4896 25.6366 12.6077 25.569 12.6943 25.469L24.243 13.5683C24.3821 13.3968 24.4697 13.1894 24.4956 12.9702C24.5215 12.7509 24.4847 12.5288 24.3894 12.3296C24.2941 12.1305 24.1443 11.9624 23.9573 11.8451C23.7703 11.7277 23.5539 11.6658 23.3331 11.6665H15.1674C14.9787 11.6671 14.7927 11.622 14.6253 11.5349C14.4579 11.4478 14.3141 11.3214 14.2063 11.1665C14.0984 11.0116 14.0298 10.8329 14.0062 10.6456C13.9826 10.4584 14.0048 10.2682 14.0708 10.0914L16.3106 3.06767C16.3457 2.94009 16.3364 2.80436 16.2842 2.68278C16.2319 2.56119 16.14 2.46096 16.0233 2.39855C15.9066 2.33614 15.7722 2.31525 15.6421 2.33932C15.512 2.36338 15.394 2.43096 15.3074 2.53097L3.75866 14.4317C3.61959 14.6031 3.53201 14.8106 3.50611 15.0298C3.4802 15.2491 3.51703 15.4712 3.61232 15.6704C3.70761 15.8695 3.85744 16.0375 4.04441 16.1549Z" stroke="#49210F" stroke-opacity="0.7" stroke-width="2" stroke-linecap="round"/>
</svg>