<svg width="103" height="18" viewBox="0 0 103 18" fill="none" xmlns="http://www.w3.org/2000/svg">
<g opacity="0.5" clip-path="url(#clip0_1_78760)">
<g clip-path="url(#clip1_1_78760)">
<path d="M102.388 12.6152C102.388 12.9017 102.274 13.1764 102.072 13.3789C101.869 13.5815 101.595 13.6952 101.308 13.6952H97.7083C97.4218 13.6952 97.1471 13.5815 96.9446 13.3789C96.7421 13.1764 96.6283 12.9017 96.6283 12.6152C96.6283 12.3288 96.7421 12.0541 96.9446 11.8516C97.1471 11.649 97.4218 11.5352 97.7083 11.5352H101.308C101.905 11.5352 102.388 12.0184 102.388 12.6152ZM96.6283 15.8552H97.7083C97.9219 15.8552 98.1307 15.9186 98.3083 16.0372C98.4859 16.1559 98.6243 16.3246 98.7061 16.5219C98.7878 16.7193 98.8092 16.9364 98.7675 17.1459C98.7259 17.3554 98.623 17.5479 98.472 17.6989C98.3209 17.8499 98.1285 17.9528 97.919 17.9945C97.7095 18.0362 97.4923 18.0148 97.295 17.933C97.0976 17.8513 96.929 17.7129 96.8103 17.5353C96.6916 17.3576 96.6283 17.1488 96.6283 16.9352V15.8552ZM96.9883 3.61523C97.5851 3.61523 98.0683 4.09843 98.0683 4.69523V8.29523C98.0683 8.58167 97.9545 8.85637 97.752 9.05891C97.5494 9.26145 97.2747 9.37523 96.9883 9.37523C96.7018 9.37523 96.4271 9.26145 96.2246 9.05891C96.0221 8.85637 95.9083 8.58167 95.9083 8.29523V4.69523C95.9083 4.09843 96.3915 3.61523 96.9883 3.61523ZM100.228 9.37523V8.29523C100.228 8.08163 100.292 7.87282 100.41 7.69522C100.529 7.51761 100.698 7.37919 100.895 7.29744C101.092 7.2157 101.309 7.19431 101.519 7.23599C101.728 7.27766 101.921 7.38052 102.072 7.53156C102.223 7.6826 102.326 7.87504 102.368 8.08454C102.409 8.29404 102.388 8.51119 102.306 8.70853C102.224 8.90588 102.086 9.07455 101.908 9.19322C101.731 9.31189 101.522 9.37523 101.308 9.37523H100.228ZM87.9883 9.01523C87.9883 8.41843 88.4715 7.93523 89.0683 7.93523H92.6683C92.9547 7.93523 93.2294 8.04902 93.432 8.25156C93.6345 8.4541 93.7483 8.7288 93.7483 9.01523C93.7483 9.30167 93.6345 9.57637 93.432 9.77891C93.2294 9.98145 92.9547 10.0952 92.6683 10.0952H89.0683C88.7818 10.0952 88.5071 9.98145 88.3046 9.77891C88.1021 9.57637 87.9883 9.30167 87.9883 9.01523ZM93.7483 5.77524H92.6683C92.4547 5.77524 92.2459 5.71189 92.0683 5.59322C91.8907 5.47455 91.7522 5.30588 91.6705 5.10853C91.5887 4.91119 91.5674 4.69404 91.609 4.48454C91.6507 4.27504 91.7536 4.0826 91.9046 3.93156C92.0556 3.78052 92.2481 3.67766 92.4576 3.63599C92.6671 3.59431 92.8842 3.6157 93.0816 3.69744C93.2789 3.77919 93.4476 3.91761 93.5663 4.09522C93.6849 4.27282 93.7483 4.48163 93.7483 4.69523V5.77524ZM93.3883 18.0152C93.1018 18.0152 92.8271 17.9014 92.6246 17.6989C92.4221 17.4964 92.3083 17.2217 92.3083 16.9352V13.3352C92.3083 13.0488 92.4221 12.7741 92.6246 12.5716C92.8271 12.369 93.1018 12.2552 93.3883 12.2552C93.6747 12.2552 93.9494 12.369 94.152 12.5716C94.3545 12.7741 94.4683 13.0488 94.4683 13.3352V16.9352C94.4683 17.2217 94.3545 17.4964 94.152 17.6989C93.9494 17.9014 93.6747 18.0152 93.3883 18.0152ZM90.1483 12.2552V13.3352C90.1483 13.5488 90.0849 13.7576 89.9663 13.9353C89.8476 14.1129 89.6789 14.2513 89.4816 14.333C89.2842 14.4148 89.0671 14.4362 88.8576 14.3945C88.6481 14.3528 88.4556 14.25 88.3046 14.0989C88.1536 13.9479 88.0507 13.7554 88.009 13.5459C87.9674 13.3364 87.9887 13.1193 88.0705 12.9219C88.1522 12.7246 88.2907 12.5559 88.4683 12.4372C88.6459 12.3186 88.8547 12.2552 89.0683 12.2552H90.1483Z" stroke="white" stroke-width="0.9" stroke-linecap="round" stroke-linejoin="round"/>
</g>
</g>
<g opacity="0.5" clip-path="url(#clip2_1_78760)">
<g clip-path="url(#clip3_1_78760)">
<path d="M72.6471 4.3877H61.806C59.8322 4.3877 58.2266 5.99851 58.2266 7.97814V14.0214C58.2266 16.0014 59.8322 17.6118 61.806 17.6118H72.6471C74.6209 17.6118 76.2266 16.001 76.2266 14.0214V7.97814C76.2266 5.99851 74.6209 4.3877 72.6471 4.3877ZM75.4919 14.0217C75.4919 15.5966 74.2157 16.8775 72.6471 16.8775H61.806C60.2374 16.8775 58.9613 15.5962 58.9613 14.0217V7.97814C58.9613 6.4037 60.2374 5.12239 61.806 5.12239H72.6471C74.2157 5.12239 75.4919 6.4037 75.4919 7.97814V14.0217Z" fill="white"/>
<path d="M70.4803 10.8667L65.3907 7.88568C65.3349 7.85326 65.2715 7.83611 65.2069 7.83594C65.1424 7.83577 65.0789 7.85259 65.0229 7.88471C64.9669 7.91683 64.9203 7.96312 64.8878 8.01894C64.8553 8.07475 64.8381 8.13813 64.8379 8.2027V14.1644C64.8381 14.2617 64.8768 14.3551 64.9457 14.4239C65.0145 14.4928 65.1079 14.5315 65.2052 14.5317C65.2704 14.5317 65.3345 14.5143 65.3907 14.4814L70.4803 11.5011C70.5358 11.4687 70.5817 11.4224 70.6137 11.3668C70.6456 11.3111 70.6624 11.2481 70.6624 11.1839C70.6624 11.1197 70.6456 11.0567 70.6137 11.001C70.5817 10.9454 70.5358 10.8991 70.4803 10.8667ZM65.5726 13.5234V8.84335L69.5678 11.1837L65.5726 13.5234Z" fill="white"/>
</g>
</g>
<g opacity="0.5" clip-path="url(#clip4_1_78760)">
<g clip-path="url(#clip5_1_78760)">
<path fill-rule="evenodd" clip-rule="evenodd" d="M32.5758 3.3457C31.9638 3.3457 31.4668 3.8257 31.4668 4.4177V17.2177C31.4668 17.8077 31.9638 18.2877 32.5758 18.2877H45.3568C45.9698 18.2877 46.4658 17.8077 46.4658 17.2177V4.4157C46.4658 3.8257 45.9698 3.3457 45.3568 3.3457H32.5768H32.5758ZM36.0258 9.1227V15.8487H33.7808V9.1227H36.0258ZM36.1738 7.0427C36.1738 7.6887 35.6858 8.2047 34.9038 8.2047H34.8888C34.1358 8.2047 33.6488 7.6887 33.6488 7.0427C33.6488 6.3827 34.1508 5.8807 34.9188 5.8807C35.6858 5.8807 36.1588 6.3827 36.1738 7.0427ZM39.5128 15.8487H37.2668C37.2668 15.8487 37.2968 9.7547 37.2668 9.1237H39.5118V10.0757C39.8098 9.6167 40.3438 8.9657 41.5348 8.9657C43.0108 8.9657 44.1188 9.9267 44.1188 11.9927V15.8487H41.8738V12.2517C41.8738 11.3467 41.5488 10.7297 40.7368 10.7297C40.1168 10.7297 39.7468 11.1457 39.5858 11.5477C39.5258 11.6917 39.5118 11.8927 39.5118 12.0937L39.5128 15.8487Z" fill="white"/>
</g>
</g>
<g opacity="0.5" clip-path="url(#clip6_1_78760)">
<path d="M5.62788 5.94727L9.79616 11.5206L5.60156 16.052H6.5456L10.218 12.0847L13.1851 16.052H16.3977L11.9949 10.1652L15.8992 5.94727H14.9552L11.5731 9.60107L8.84047 5.94727H5.62788ZM7.01616 6.64264H8.49203L15.0092 15.3566H13.5334L7.01616 6.64264Z" fill="white"/>
</g>
<defs>
<clipPath id="clip0_1_78760">
<rect width="17.0371" height="16.313" fill="white" transform="translate(85.1875 0.81543)"/>
</clipPath>
<clipPath id="clip1_1_78760">
<rect width="16" height="16" fill="white" transform="translate(87.1875 2.81543)"/>
</clipPath>
<clipPath id="clip2_1_78760">
<rect width="18.7408" height="17.9443" fill="white" transform="translate(56.2266)"/>
</clipPath>
<clipPath id="clip3_1_78760">
<rect width="18" height="18" fill="white" transform="translate(58.2266 2)"/>
</clipPath>
<clipPath id="clip4_1_78760">
<rect width="17.0371" height="16.313" fill="white" transform="translate(28.9668 0.81543)"/>
</clipPath>
<clipPath id="clip5_1_78760">
<rect width="16" height="16" fill="white" transform="translate(30.9668 2.81543)"/>
</clipPath>
<clipPath id="clip6_1_78760">
<rect width="18.7408" height="17.9443" fill="white"/>
</clipPath>
</defs>
</svg>
