<svg width="1200" height="92" viewBox="0 0 1200 92" fill="none" xmlns="http://www.w3.org/2000/svg">
<mask id="mask0_1_78934" style="mask-type:alpha" maskUnits="userSpaceOnUse" x="0" y="0" width="1200" height="92">
<rect width="1200" height="92" fill="url(#paint0_linear_1_78934)"/>
</mask>
<g mask="url(#mask0_1_78934)">
<g clip-path="url(#clip0_1_78934)">
<mask id="mask1_1_78934" style="mask-type:luminance" maskUnits="userSpaceOnUse" x="-1" y="34" width="89" height="30">
<path d="M-0.999878 34H87.0001V64H-0.999878V34Z" fill="white"/>
</mask>
<g mask="url(#mask1_1_78934)">
<path fill-rule="evenodd" clip-rule="evenodd" d="M54.6582 40.61C54.6559 40.375 54.6995 40.1419 54.7865 39.9244C54.8736 39.7068 55.0023 39.5093 55.1651 39.3435C55.328 39.1776 55.5216 39.0467 55.7346 38.9585C55.9476 38.8704 56.1757 38.8267 56.4055 38.83H57.6356V36.213C57.5968 35.9376 57.6165 35.6569 57.6933 35.3899C57.7702 35.123 57.9024 34.8761 58.0809 34.6661C58.2594 34.4561 58.4801 34.2879 58.7279 34.173C58.9756 34.058 59.2447 33.999 59.5168 34C59.9264 34.0005 60.3249 34.1361 60.6531 34.3867C60.9812 34.6373 61.2216 34.9895 61.3384 35.391C61.4166 35.657 61.4362 35.938 61.3971 36.213V38.83H65.3962C65.7422 38.8261 66.0814 38.9283 66.37 39.1235C66.6586 39.3187 66.8834 39.5979 67.0154 39.925C67.1238 40.1964 67.1653 40.491 67.1362 40.7827C67.107 41.0744 67.0081 41.3543 66.8482 41.5977C66.6883 41.8411 66.4723 42.0405 66.2193 42.1783C65.9662 42.3161 65.6839 42.3881 65.3972 42.388H61.3981V48.691C61.3981 51.764 63.074 53.335 65.3972 53.335C65.8635 53.3358 66.3105 53.5254 66.6405 53.8623C66.9705 54.1993 67.1566 54.6561 67.1581 55.133C67.1584 55.3696 67.113 55.6039 67.0245 55.8225C66.936 56.041 66.8062 56.2396 66.6425 56.4067C66.4788 56.5739 66.2844 56.7063 66.0705 56.7965C65.8567 56.8866 65.6275 56.9327 65.3962 56.932C60.9844 56.932 57.6356 53.756 57.6356 48.691V42.389H56.4055C55.9438 42.3872 55.5015 42.1993 55.1744 41.8661C54.8473 41.5328 54.6618 41.0822 54.6582 40.61ZM39.2641 61.656V54.811C40.8294 56.2181 42.8454 56.9882 44.9293 56.975C49.8446 56.975 53.5661 52.89 53.5661 47.719C53.5661 42.549 49.8446 38.464 44.9293 38.464C42.8385 38.4446 40.8167 39.2287 39.2641 40.661V40.42C39.2158 40.0751 39.0777 39.7499 38.8641 39.4785C38.6505 39.2071 38.3694 38.9996 38.0503 38.8776C37.7312 38.7557 37.3859 38.7239 37.0507 38.7855C36.7154 38.8472 36.4025 39 36.145 39.228C35.7997 39.5341 35.574 39.9574 35.5094 40.42V61.657C35.5576 62.0021 35.6957 62.3275 35.9094 62.599C36.123 62.8706 36.4043 63.0783 36.7235 63.2002C37.0428 63.3222 37.3882 63.354 37.7236 63.2921C38.059 63.2303 38.372 63.0773 38.6295 62.849C38.9748 62.5429 39.2005 62.1197 39.2651 61.657L39.2641 61.656ZM44.5216 42.024C47.4549 42.024 49.7791 44.469 49.7791 47.719C49.7791 50.969 47.4559 53.414 44.5216 53.414C41.5873 53.414 39.2641 50.969 39.2641 47.719V47.472C39.3687 44.367 41.5873 42.024 44.5216 42.024ZM15.9666 47.69C15.9801 45.9293 16.4812 44.2085 17.4117 42.727C18.3412 41.2471 19.6626 40.0676 21.2221 39.326C22.7804 38.5851 24.5128 38.3132 26.2166 38.5422C27.9204 38.7712 29.5252 39.4915 30.8435 40.619C31.0479 40.8004 31.2137 41.0227 31.3306 41.2723C31.4475 41.5219 31.513 41.7934 31.523 42.07C31.5256 42.5912 31.3291 43.0928 30.9755 43.468L25.7493 49.848C25.5975 50.0496 25.4013 50.2115 25.1766 50.3207C24.952 50.4298 24.7053 50.4831 24.4566 50.476C24.1107 50.4952 23.7675 50.4039 23.4744 50.2149C23.1814 50.0259 22.953 49.7485 22.8208 49.421C22.733 49.2036 22.6897 48.9702 22.6937 48.735C22.6824 48.5252 22.7125 48.3152 22.782 48.1175C22.8515 47.9198 22.9591 47.7384 23.0985 47.584L27.212 42.641C26.5387 42.2177 25.7612 41.9995 24.9709 42.012C22.0513 42.012 19.7398 44.522 19.7398 47.69C19.7398 50.858 22.0181 53.368 24.9709 53.368C25.6446 53.3752 26.3124 53.2391 26.9319 52.9685C27.5515 52.6979 28.1094 52.2987 28.5701 51.796L28.7784 51.62C29.2184 51.243 29.5841 50.93 30.202 50.93C30.4428 50.9192 30.6831 50.9593 30.9081 51.0477C31.133 51.1361 31.3377 51.2711 31.5093 51.444C31.6817 51.6169 31.8174 51.8242 31.9083 52.053C31.9991 52.2818 32.043 52.5272 32.0373 52.774C32.0024 53.2437 31.8088 53.6863 31.4898 54.026C30.6748 54.9653 29.6693 55.7115 28.5435 56.2127C27.4176 56.7139 26.1985 56.958 24.9709 56.928C23.7823 56.9471 22.602 56.7211 21.5006 56.2634C20.3993 55.8057 19.3994 55.1257 18.5606 54.264C17.72 53.4016 17.0572 52.3754 16.6116 51.2461C16.166 50.1169 15.9467 48.9076 15.9666 47.69ZM8.68312 42.339H1.13858C0.677727 42.3361 0.236676 42.147 -0.0885269 41.813C-0.414947 41.4778 -0.598945 41.0245 -0.600592 40.5514C-0.60224 40.0783 -0.421404 39.6236 -0.0973269 39.286C0.0646094 39.12 0.25736 38.9887 0.4696 38.8999C0.68184 38.8111 0.909289 38.7666 1.13858 38.769H12.4388C12.7846 38.7647 13.1237 38.8673 13.4116 39.0634C13.6995 39.2595 13.9227 39.5399 14.0521 39.868C14.1391 40.085 14.1821 40.318 14.1792 40.554C14.162 41.0298 13.9671 41.4808 13.6346 41.814L4.44836 53.056H12.4388C12.7847 53.0518 13.1239 53.1545 13.4118 53.3508C13.6997 53.5471 13.9229 53.8278 14.0521 54.156C14.1817 54.4831 14.2143 54.8419 14.1458 55.1878C14.0773 55.5337 13.9107 55.8513 13.6669 56.101C13.3412 56.4349 12.8998 56.6236 12.4388 56.626H0.740629C0.509888 56.6235 0.281895 56.5745 0.0696684 56.4818C-0.142558 56.3892 -0.334861 56.2547 -0.49626 56.086C-0.822838 55.745 -1.00373 55.285 -0.999816 54.807C-0.988082 54.335 -0.80426 53.885 -0.48746 53.543L8.6841 42.338L8.68312 42.339ZM70.4669 42.568C69.4749 44.0865 68.9454 45.8718 68.9455 47.698C68.9242 48.9164 69.1431 50.1267 69.5892 51.2566C70.0353 52.3865 70.6994 53.413 71.5419 54.2746C72.3844 55.1363 73.388 55.8155 74.4929 56.2717C75.5977 56.728 76.7811 56.9518 77.9724 56.93C79.5321 56.9302 81.0653 56.5172 82.4225 55.7311C83.7798 54.945 84.9147 53.8126 85.7167 52.4444C86.5187 51.0763 86.9604 49.5189 86.9988 47.9242C87.0371 46.3295 86.6709 44.7518 85.9357 43.3449C85.2004 41.938 84.1214 40.75 82.8036 39.8965C81.4858 39.0431 79.9743 38.5534 78.4165 38.4751C76.8586 38.3969 75.3075 38.7328 73.9143 39.4501C72.5211 40.1674 71.3334 41.2416 70.4669 42.568ZM77.9724 42.016C80.9673 42.016 83.2201 44.562 83.2201 47.697C83.2201 50.799 80.9722 53.378 77.9724 53.378C74.9725 53.378 72.7256 50.833 72.7256 47.698C72.7256 44.562 74.9774 42.016 77.9724 42.016Z" fill="#6C503C"/>
</g>
</g>
<g clip-path="url(#clip1_1_78934)">
<path d="M167.918 36.2338L168.097 34.9382C168.142 34.7148 168.052 34.5361 167.918 34.3574C167.784 34.2233 167.604 34.134 167.38 34.134H159.629C159.271 34.134 159.002 34.402 158.957 34.7148L156.807 47.9838C156.762 48.2072 156.851 48.3859 156.986 48.5646C157.12 48.6986 157.299 48.8327 157.523 48.8327H159.316C159.674 48.8327 159.943 48.5646 159.988 48.2519L160.794 43.114H165.275C165.633 43.114 165.902 42.846 165.947 42.5332L166.126 41.4163C166.171 41.1929 166.081 41.0142 165.947 40.8355C165.812 40.6568 165.633 40.5674 165.409 40.5674H161.197L161.735 36.8593H167.156C167.604 36.8146 167.873 36.5912 167.918 36.2338ZM209.003 40.6568H208.958C208.466 40.5228 207.928 40.4334 207.301 40.4334C206.315 40.4334 205.509 40.8355 205.016 41.6397C204.523 42.4439 204.254 43.3374 204.254 44.2756C204.254 44.9011 204.344 45.3926 204.568 45.7946C204.792 46.1967 205.105 46.4201 205.509 46.4201C205.957 46.4201 206.449 46.1521 207.032 45.5713C207.569 45.0351 208.107 44.365 208.555 43.6502L209.003 40.6568ZM212.274 39.1378L210.84 48.2519C210.795 48.6093 210.482 48.8327 210.168 48.8327H209.093C208.914 48.8327 208.734 48.7433 208.6 48.6093C208.466 48.4753 208.376 48.2966 208.421 48.1178L208.466 47.0009L208.331 47.135C208.331 47.135 207.928 47.5817 207.435 47.9391C206.718 48.4753 205.957 48.788 205.867 48.8327C205.419 49.0114 204.971 49.0561 204.478 49.0561C203.403 49.0561 202.596 48.654 202.014 47.8945C201.431 47.135 201.163 46.0627 201.163 44.8118C201.163 44.1416 201.207 43.5161 201.342 42.8906C201.476 42.2652 201.7 41.6397 202.014 41.0589C202.327 40.4334 202.731 39.8973 203.224 39.4505C203.716 39.0038 204.344 38.6017 205.105 38.3336C205.867 38.0655 206.763 37.8868 207.704 37.8868C208.869 37.8868 210.213 38.0209 211.736 38.3336C212.095 38.423 212.319 38.7804 212.274 39.1378ZM219.935 38.0209C219.219 38.1996 218.502 38.6463 218.054 38.9591C217.516 39.3612 216.754 40.1654 216.754 40.1654L216.62 40.2994L216.665 38.8697C216.665 38.691 216.62 38.5123 216.485 38.3336C216.351 38.1996 216.172 38.1102 215.993 38.1102H214.917C214.559 38.1102 214.29 38.3336 214.245 38.691L212.767 47.9838C212.722 48.2072 212.812 48.3859 212.946 48.5646C213.08 48.6986 213.26 48.788 213.484 48.788H215.141C215.5 48.788 215.769 48.5199 215.813 48.2072L216.575 43.2481C217.023 42.6226 217.606 42.0865 218.278 41.6397C218.815 41.327 219.308 41.1036 219.846 41.0142C220.115 40.9695 220.383 40.7462 220.428 40.4334L220.742 38.7357C220.787 38.5123 220.697 38.2889 220.518 38.1102C220.383 38.0209 220.159 37.9762 219.935 38.0209ZM186.601 42.6673C186.601 42.0418 186.512 41.5503 186.288 41.1482C186.064 40.7462 185.75 40.5228 185.347 40.5228C184.899 40.5228 184.406 40.7908 183.823 41.3716C183.241 41.9078 182.748 42.5779 182.3 43.2927L181.807 46.2861H181.852C182.345 46.4201 182.882 46.5095 183.51 46.5095C184.54 46.5095 185.302 46.1074 185.795 45.3032C186.332 44.5437 186.601 43.6502 186.601 42.6673ZM188.841 39.0931C189.424 39.8526 189.693 40.9249 189.693 42.1311C189.693 42.9353 189.558 43.7842 189.334 44.5437C189.11 45.3032 188.752 46.0627 188.259 46.7775C187.766 47.4924 187.094 48.0285 186.243 48.4753C185.347 48.922 184.316 49.1007 183.151 49.1007C182.703 49.1007 182.121 49.0561 181.404 48.9667H181.314L181.18 50.2177V50.2623L180.822 52.4962C180.777 52.8536 180.463 53.077 180.149 53.077H178.492C178.268 53.077 178.088 52.9876 177.954 52.8536C177.82 52.7196 177.775 52.4962 177.775 52.2728L179.925 38.7804C179.97 38.423 180.284 38.1996 180.597 38.1996H181.673C181.852 38.1996 182.031 38.2889 182.166 38.423C182.3 38.557 182.39 38.7357 182.345 38.9144L182.434 39.9866L182.569 39.8079C182.569 39.8079 183.599 38.557 185.167 38.0655C185.616 37.9315 186.019 37.8422 186.422 37.8422C187.453 37.9315 188.259 38.2889 188.841 39.0931ZM227.283 38.1102H225.984L226.253 36.2785C226.298 36.0551 226.208 35.8764 226.074 35.6977C225.939 35.5636 225.76 35.4743 225.536 35.4743H224.237C223.923 35.4743 223.654 35.6977 223.565 35.9657L222.937 38.1102H222.22C221.862 38.1102 221.593 38.3336 221.548 38.691L221.369 39.6739C221.324 39.8973 221.369 40.076 221.548 40.2547C221.683 40.3887 221.862 40.4781 222.086 40.4781H222.534L221.772 45.4372C221.728 45.75 221.683 46.0627 221.683 46.4201C221.683 47.3137 221.907 47.9391 222.4 48.3859C222.892 48.8327 223.609 49.0561 224.55 49.0561C225.133 49.0561 225.939 48.8327 226.029 48.788C226.118 48.7433 226.253 48.6986 226.253 48.6986C226.298 48.6986 226.298 48.654 226.342 48.654C226.566 48.5646 226.656 48.3412 226.701 48.1178L226.835 47.0903C226.835 46.8669 226.79 46.6435 226.611 46.5095C226.566 46.4648 226.522 46.4201 226.477 46.3754C226.432 46.3754 226.387 46.3308 226.387 46.3308C226.342 46.3308 226.298 46.3308 226.029 46.3308C225.984 46.3308 225.894 46.3308 225.85 46.3308C225.715 46.3308 225.67 46.3308 225.625 46.3308C225.536 46.3308 225.267 46.2414 225.177 46.1521C225.133 46.1074 224.953 45.9287 224.953 45.3479C224.953 45.3032 224.953 45.2138 224.953 45.0798L225.67 40.5228H227.149C227.462 40.5228 227.776 40.2994 227.821 39.942L228 38.9591C228.045 38.7357 228 38.557 227.866 38.3783C227.686 38.2442 227.507 38.1102 227.283 38.1102ZM200.894 38.423C200.759 38.2442 200.535 38.1549 200.311 38.1549H198.564C198.25 38.1549 197.981 38.3783 197.892 38.6463C197.757 39.1378 197.489 39.7186 197.041 40.3887C196.458 41.2823 196.01 41.8631 195.607 42.1311L195.562 42.1758C195.428 42.2652 195.204 42.3545 194.442 42.4886H194.352L195.562 34.9828C195.607 34.7594 195.517 34.5807 195.383 34.402C195.248 34.268 195.069 34.134 194.845 34.134H193.187C192.829 34.134 192.56 34.402 192.515 34.7148L190.41 47.9838C190.365 48.2072 190.454 48.3859 190.544 48.5646C190.678 48.6986 190.858 48.8327 191.082 48.8327H192.739C193.098 48.8327 193.367 48.5646 193.411 48.2519L193.949 44.7671H194.98L196.413 48.3859C196.503 48.654 196.772 48.8327 197.041 48.8327H198.833C199.236 48.8327 199.55 48.5199 199.55 48.1178C199.55 48.0285 199.55 47.9391 199.505 47.8498L197.847 43.6502L197.892 43.6055C198.564 42.98 199.281 42.1311 199.953 41.0589C200.401 40.3441 200.714 39.6739 200.894 39.0484C201.028 38.825 200.983 38.6017 200.894 38.423ZM176.834 37.2167C177.506 37.2167 178.044 37.038 178.357 36.6806C178.716 36.3231 178.85 35.8764 178.85 35.2956C178.85 34.8488 178.716 34.5361 178.492 34.3127C178.223 34.0893 177.864 33.9999 177.372 33.9999C176.7 33.9999 176.162 34.1786 175.848 34.5361C175.49 34.8935 175.311 35.3402 175.311 35.921C175.311 36.3678 175.445 36.6806 175.669 36.9039C175.938 37.1273 176.296 37.2167 176.834 37.2167ZM177.372 38.1102H175.714C175.355 38.1102 175.087 38.3336 175.042 38.691L173.563 47.9838C173.518 48.2072 173.608 48.3859 173.742 48.5646C173.877 48.6986 174.056 48.788 174.28 48.788H175.938C176.296 48.788 176.565 48.5199 176.61 48.2072L178.088 38.9144C178.133 38.691 178.044 38.5123 177.909 38.3336C177.775 38.2442 177.596 38.1102 177.372 38.1102ZM172.622 34.402C172.757 34.5361 172.802 34.7594 172.802 34.9828L171.189 45.3032C171.189 45.4819 171.189 45.5713 171.189 45.6606C171.189 46.018 171.278 46.2414 171.368 46.3754C171.502 46.5095 171.771 46.5542 171.816 46.5542C171.95 46.5542 172.085 46.6435 172.219 46.7775C172.354 46.9116 172.443 47.135 172.398 47.3137L172.309 48.2519C172.309 48.4306 172.219 48.6093 172.085 48.6986C171.95 48.788 171.816 48.8327 171.637 48.922C171.457 49.0114 170.965 49.1454 170.606 49.1454C169.755 49.1454 169.038 48.922 168.59 48.5646C168.142 48.1625 167.918 47.5817 167.918 46.8669C167.918 46.6435 167.918 46.4648 167.963 46.1967C167.963 46.1074 169.71 34.9828 169.755 34.8488C169.8 34.4914 170.113 34.268 170.427 34.268H172.085C172.309 34.134 172.488 34.2233 172.622 34.402Z" fill="#6C503C"/>
<path d="M220.472 56.2044C220.472 56.2044 221.502 56.7405 222.04 56.9192C222.533 57.1426 222.577 57.9468 222.04 58.2148C221.502 58.4829 221.323 58.5276 221.323 58.5276C221.323 58.5276 221.412 58.3042 221.412 58.0808C221.368 57.6787 220.248 57.366 219.486 57.1873C219.486 57.1873 218.903 55.3555 218.635 54.8641C218.366 54.3726 217.828 54.1492 217.828 54.1492H219.083C219.083 54.1492 219.531 54.1492 219.71 54.596C219.889 55.0874 220.472 56.2044 220.472 56.2044Z" fill="#6C503C"/>
<path d="M220.383 60.1807C220.383 60.1807 219.89 61.2082 219.666 61.7444C219.442 62.2358 218.635 62.2805 218.366 61.7444C218.098 61.2082 218.053 61.0742 218.053 61.0742C218.053 61.0742 218.232 61.1189 218.456 61.0742C218.859 61.0295 219.173 59.9126 219.352 59.1531C219.352 59.1531 221.144 58.5723 221.682 58.3042C222.175 58.0362 222.399 57.5001 222.399 57.5001V58.9297C222.399 58.9297 222.399 59.1978 221.951 59.3765C221.503 59.6446 220.383 60.1807 220.383 60.1807Z" fill="#6C503C"/>
<path d="M216.351 60.0912C216.351 60.0912 215.321 59.5998 214.783 59.3764C214.29 59.153 214.245 58.3488 214.783 58.0807C215.321 57.8127 215.545 57.768 215.545 57.768C215.545 57.768 215.41 57.9914 215.455 58.2595C215.5 58.6615 216.575 58.9296 217.337 59.1083C217.337 59.1083 217.919 60.8954 218.188 61.4315C218.502 62.057 218.95 62.1463 218.95 62.1463H217.516C217.516 62.1463 217.247 62.1463 217.068 61.6996C216.934 61.2081 216.351 60.0912 216.351 60.0912Z" fill="#6C503C"/>
<path d="M216.442 56.115C216.442 56.115 216.935 55.0875 217.159 54.5514C217.383 54.0599 218.189 54.0152 218.458 54.5514C218.727 55.0875 218.772 55.2215 218.772 55.2215C218.772 55.2215 218.548 55.2215 218.369 55.2215C217.965 55.2662 217.652 56.3384 217.472 57.0979C217.472 57.0979 215.68 57.6787 215.143 57.9468C214.426 58.3042 214.426 58.7063 214.426 58.7063L214.471 57.2766C214.471 57.2766 214.471 57.0086 214.919 56.8299C215.367 56.6512 216.442 56.115 216.442 56.115Z" fill="#6C503C"/>
<path d="M160.749 61.1188H156L157.031 54.5513H161.825L161.645 55.847H158.375L158.151 57.2319H160.973L160.794 58.4382H157.971L157.747 59.8679H160.973L160.749 61.1188Z" fill="#6C503C"/>
<path d="M166.35 61.1188H164.692L164.02 59.7338L162.855 61.1188H161.287L163.393 58.6616L162.138 56.2043H163.796L164.468 57.634L165.678 56.2043H167.201L165.095 58.6169L166.35 61.1188Z" fill="#6C503C"/>
<path d="M170.605 56.1151C171.098 56.1151 171.456 56.2938 171.725 56.6512C171.994 57.0086 172.128 57.5 172.128 58.0362C172.128 58.3936 172.083 58.7957 171.949 59.1531C171.859 59.5105 171.68 59.8232 171.456 60.1807C171.232 60.4934 170.918 60.7615 170.515 60.9848C170.112 61.1635 169.619 61.2529 169.082 61.2529C168.858 61.2529 168.589 61.2529 168.275 61.2082L168.23 61.7443L168.096 63.04H166.662L167.737 56.2491H168.858L168.813 57.2767C169.306 56.5171 169.888 56.1151 170.605 56.1151ZM170.157 57.366C169.978 57.366 169.754 57.5 169.485 57.7234C169.216 57.9915 168.992 58.2595 168.813 58.617L168.589 59.9126C168.813 60.0019 169.037 60.0019 169.35 60.0019C169.798 60.0019 170.112 59.8232 170.336 59.4658C170.56 59.1084 170.694 58.7063 170.694 58.2595C170.694 57.9915 170.65 57.7681 170.56 57.5894C170.47 57.4554 170.336 57.366 170.157 57.366Z" fill="#6C503C"/>
<path d="M175.177 59.9572L175.043 61.0742C174.729 61.1635 174.371 61.2529 174.012 61.2529C173.609 61.2529 173.295 61.1635 173.071 60.9848C172.847 60.8061 172.758 60.538 172.758 60.1806C172.758 60.0913 172.758 60.0019 172.803 59.8679L173.654 54.3279H175.132L174.326 59.4658C174.326 59.5551 174.326 59.5998 174.326 59.6445C174.326 59.7785 174.371 59.9126 174.416 59.9572C174.46 60.0019 174.595 60.0466 174.729 60.0466C174.819 60.0019 174.998 60.0019 175.177 59.9572Z" fill="#6C503C"/>
<path d="M177.953 61.2529C177.281 61.2529 176.744 61.0742 176.385 60.7168C176.027 60.3594 175.803 59.8679 175.803 59.2424C175.803 58.3042 176.072 57.5894 176.609 57.0086C177.147 56.4278 177.864 56.1597 178.715 56.1597C179.432 56.1597 179.97 56.3384 180.328 56.6959C180.731 57.0533 180.91 57.5447 180.91 58.1702C180.91 59.1084 180.642 59.8679 180.104 60.4487C179.611 60.9402 178.894 61.2529 177.953 61.2529ZM178.088 60.0019C178.491 60.0019 178.805 59.8679 179.073 59.5552C179.297 59.2424 179.432 58.8403 179.432 58.3042C179.432 57.6787 179.163 57.3213 178.581 57.3213C178.177 57.3213 177.864 57.4554 177.595 57.7681C177.326 58.0808 177.236 58.4829 177.236 59.0637C177.236 59.3765 177.326 59.6445 177.46 59.7786C177.595 59.9573 177.819 60.0019 178.088 60.0019Z" fill="#6C503C"/>
<path d="M181.359 61.1189L182.121 56.2044H183.286L183.241 57.366C183.734 56.5171 184.361 56.0704 185.123 56.0704H185.213L184.944 57.5447C184.63 57.5447 184.316 57.6341 184.003 57.8575C183.689 58.0362 183.42 58.3042 183.241 58.5723L182.838 61.0742H181.359V61.1189Z" fill="#6C503C"/>
<path d="M190.007 57.5894C189.962 58.751 189.111 59.2871 187.453 59.2871C187.229 59.2871 187.005 59.2871 186.781 59.2424C186.826 59.5105 186.916 59.7339 187.095 59.8679C187.274 60.0019 187.543 60.0466 187.991 60.0466C188.484 60.0466 188.977 59.9573 189.514 59.7786L189.29 60.9402C188.708 61.1635 188.17 61.2529 187.588 61.2529C186.736 61.2529 186.154 61.0742 185.795 60.7168C185.437 60.3594 185.258 59.8679 185.258 59.1978C185.258 58.3489 185.527 57.6341 186.019 57.0533C186.557 56.4725 187.229 56.1597 188.08 56.1597C188.753 56.1597 189.201 56.2938 189.514 56.5618C189.873 56.8299 190.007 57.1426 190.007 57.5894ZM186.826 58.3936C186.871 58.3936 187.005 58.3936 187.14 58.3936C188.08 58.3936 188.573 58.1702 188.573 57.7234C188.573 57.5894 188.529 57.4554 188.439 57.366C188.349 57.2767 188.215 57.232 188.036 57.232C187.722 57.232 187.498 57.3213 187.274 57.5447C187.05 57.7681 186.916 58.0362 186.826 58.3936Z" fill="#6C503C"/>
<path d="M194.129 61.1188H192.605L193.636 54.5513H196.324C197.131 54.5513 197.713 54.6854 198.072 54.9981C198.43 55.3108 198.564 55.7129 198.564 56.2937C198.564 56.5618 198.52 56.8299 198.475 57.0979C198.43 57.3213 198.34 57.5894 198.206 57.8127C198.072 58.0361 197.892 58.2595 197.668 58.4382C197.444 58.6169 197.175 58.751 196.817 58.8403C196.459 58.9297 196.055 59.019 195.607 59.019H194.442L194.129 61.1188ZM194.666 57.8127H195.742C196.638 57.8127 197.086 57.4107 197.086 56.5618C197.086 56.2937 196.996 56.115 196.862 55.981C196.727 55.847 196.459 55.7576 196.1 55.7576H194.98L194.666 57.8127Z" fill="#6C503C"/>
<path d="M201.207 59.9572L201.117 61.0742C200.758 61.2082 200.4 61.2975 200.042 61.2975C199.638 61.2975 199.325 61.2082 199.101 61.0295C198.877 60.8508 198.787 60.5827 198.787 60.2253C198.787 60.1359 198.787 60.0466 198.832 59.9126L199.683 54.3726H201.162L200.355 59.5105C200.355 59.5998 200.355 59.6445 200.355 59.6892C200.355 59.8232 200.4 59.9572 200.445 60.0019C200.49 60.0466 200.624 60.0913 200.758 60.0913C200.848 60.0019 201.027 60.0019 201.207 59.9572Z" fill="#6C503C"/>
<path d="M207.031 56.2491L206.225 61.1635H205.105L205.15 60.136C204.612 60.8955 203.985 61.2976 203.178 61.2976C202.73 61.2976 202.417 61.1635 202.193 60.9402C201.969 60.7168 201.879 60.3594 201.879 59.9573C201.879 59.7786 201.879 59.6445 201.924 59.5105L202.461 56.2938H203.895L203.447 59.1531C203.447 59.2424 203.402 59.3318 203.402 59.4658C203.402 59.8232 203.537 60.0019 203.805 60.0019C204.029 60.0019 204.254 59.8679 204.478 59.6445C204.746 59.4211 204.97 59.1084 205.194 58.7957L205.598 56.2938H207.031V56.2491Z" fill="#6C503C"/>
<path d="M207.256 60.9848L207.525 59.7786C207.569 59.8232 207.749 59.9126 208.107 59.9573C208.466 60.0466 208.779 60.0466 209.093 60.0466C209.72 60.0466 210.034 59.9126 210.034 59.5999C210.034 59.4658 209.944 59.3765 209.81 59.3318C209.675 59.2424 209.451 59.1978 209.227 59.1531C209.003 59.1084 208.779 59.0191 208.555 58.9744C208.331 58.885 208.152 58.751 207.973 58.5723C207.838 58.3936 207.749 58.1255 207.749 57.8575C207.749 57.2767 207.973 56.8746 208.376 56.5618C208.779 56.2491 209.406 56.1151 210.213 56.1151C210.482 56.1151 210.751 56.1151 211.019 56.1597C211.288 56.2044 211.467 56.2044 211.602 56.2491C211.736 56.2938 211.826 56.3384 211.871 56.3384L211.647 57.5C211.557 57.4107 211.333 57.366 211.064 57.3213C210.795 57.2767 210.527 57.232 210.258 57.232C209.63 57.232 209.272 57.366 209.272 57.6787C209.272 57.7681 209.362 57.8575 209.496 57.9468C209.675 57.9915 209.854 58.0808 210.079 58.1255C210.303 58.1702 210.527 58.2149 210.751 58.3042C210.975 58.3936 211.154 58.5276 211.333 58.7063C211.512 58.885 211.557 59.1531 211.557 59.4211C211.557 60.0019 211.333 60.4487 210.885 60.7615C210.437 61.0295 209.854 61.2082 209.093 61.2082C208.824 61.2082 208.51 61.2082 208.242 61.1635C207.928 61.1189 207.749 61.0742 207.569 61.0742C207.345 61.0295 207.301 61.0295 207.256 60.9848Z" fill="#6C503C"/>
</g>
<g clip-path="url(#clip2_1_78934)">
<path d="M355.646 33H312.81C304.079 33 297 40.0786 297 48.8104C297 57.5423 304.079 64.6208 312.81 64.6208H355.646C364.377 64.6208 371.456 57.5423 371.456 48.8104C371.456 40.0786 364.377 33 355.646 33Z" fill="#6C503C"/>
<path d="M332.327 44.1383C331.72 43.9122 331.118 43.799 330.523 43.799C329.379 43.799 328.319 44.1028 327.343 44.7098C326.366 45.3169 325.878 46.4552 325.878 48.1221L325.865 57.1396H327.121C327.77 57.137 328.295 56.6102 328.295 55.9614V55.9247L328.307 52.2665C328.593 52.7665 328.974 53.1364 329.45 53.3742C329.903 53.5885 330.427 53.6956 331.023 53.6956C332.142 53.6956 333.059 53.2435 333.774 52.3382C334.488 51.4091 334.845 50.1944 334.845 48.6937C334.845 47.1931 334.488 46.0499 333.774 45.1208C333.416 44.6918 332.935 44.3649 332.327 44.1383ZM331.845 50.8375C331.487 51.3376 330.999 51.5879 330.38 51.5879C329.713 51.5879 329.2 51.3376 328.843 50.8375C328.486 50.3855 328.307 49.7068 328.307 48.8008C328.307 47.8245 328.474 47.1097 328.807 46.657C329.165 46.157 329.665 45.9067 330.308 45.9067C330.951 45.9067 331.487 46.157 331.844 46.657C332.201 47.157 332.38 47.8718 332.38 48.8008C332.38 49.6582 332.202 50.337 331.845 50.8375Z" fill="white"/>
<path d="M348.275 41.5312C348.275 40.8805 347.748 40.3538 347.098 40.3538H345.846V45.2641C345.56 44.8121 345.179 44.4422 344.703 44.1564C344.25 43.9185 343.726 43.7989 343.131 43.7989C342.011 43.7989 341.094 44.2635 340.38 45.1925C339.689 46.0979 339.344 47.3003 339.344 48.8009C339.344 50.3015 339.689 51.5287 340.38 52.4092C340.737 52.8619 341.213 53.1894 341.809 53.3918C342.404 53.5942 343.011 53.6957 343.631 53.6957C344.774 53.6957 345.834 53.398 346.811 52.8028C347.787 52.2074 348.276 51.0642 348.276 49.3731V41.568L348.275 41.5312ZM345.346 50.8731C344.988 51.3731 344.488 51.6234 343.845 51.6234C343.202 51.6234 342.666 51.3731 342.309 50.8731C341.951 50.3731 341.773 49.6464 341.773 48.6937C341.773 47.8363 341.951 47.1694 342.309 46.6931C342.666 46.1931 343.154 45.9428 343.774 45.9428C344.394 45.9428 344.929 46.1813 345.31 46.6577C345.667 47.1577 345.846 47.8369 345.846 48.6943C345.846 49.647 345.679 50.3731 345.346 50.8731Z" fill="white"/>
<path d="M357.467 45.943C357.038 45.0619 356.372 44.4423 355.467 44.0849C354.681 43.7992 353.799 43.722 352.823 43.8527C351.846 43.9841 351.049 44.4063 350.43 45.1211C350.049 45.5501 349.768 46.0856 349.59 46.7288C349.412 47.372 349.323 48.0152 349.323 48.6578C349.323 49.4437 349.43 50.2002 349.644 50.9268C349.858 51.6535 350.215 52.2306 350.716 52.6597C351.192 53.0888 351.829 53.3919 352.628 53.5707C353.425 53.7493 354.217 53.7314 355.004 53.5171C355.885 53.3266 356.611 52.8385 357.183 52.052C357.444 51.6716 357.659 51.207 357.826 50.6585C357.992 50.1112 358.076 49.4561 358.076 48.6934C358.076 47.6453 357.874 46.7282 357.469 45.9424L357.467 45.943ZM355.181 50.8017C354.895 51.23 354.568 51.4984 354.199 51.6055C353.829 51.7127 353.466 51.7008 353.109 51.5701C352.751 51.4392 352.501 51.2787 352.359 51.0875C352.001 50.6585 351.799 49.9026 351.751 48.8185C351.703 47.7351 351.93 46.9193 352.43 46.3708C352.596 46.2045 352.858 46.067 353.215 45.9598C353.573 45.8527 353.93 45.859 354.287 45.9779C354.644 46.0974 354.959 46.3708 355.233 46.7998C355.507 47.2282 355.644 47.8714 355.644 48.7288C355.621 49.6815 355.466 50.3726 355.18 50.8011L355.181 50.8017Z" fill="white"/>
<path d="M315.421 43.7933C314.778 43.7933 314.153 43.8767 313.546 44.0436C312.939 44.2105 312.408 44.4727 311.956 44.8294C311.479 45.2105 311.104 45.7168 310.831 46.3481C310.557 46.9795 310.42 47.7591 310.42 48.6881L310.422 53.6943H311.676C312.327 53.6943 312.854 53.1669 312.854 52.5169L312.851 48.0075C312.851 47.0225 313.65 46.2236 314.635 46.2236H314.565H314.62C315.263 46.2124 315.779 45.6881 315.779 45.0449V43.7933H315.421Z" fill="white"/>
<path d="M337.1 43.7927C336.429 43.7927 335.885 44.3432 335.885 45.0225V53.7038H337.139C337.789 53.7038 338.316 53.1763 338.316 52.5263V45.0225C338.316 44.3432 337.771 43.7927 337.1 43.7927Z" fill="white"/>
<path d="M323.808 44.4777C323.141 44.0256 322.14 43.799 320.806 43.799C319.615 43.799 318.699 44.0729 318.055 44.6209C317.484 45.0978 317.15 45.705 317.055 46.4428H318.428C318.758 46.4036 319.128 46.4397 319.758 46.0475C319.836 45.9895 319.923 45.9422 320.021 45.9073C320.283 45.8127 320.58 45.7647 320.914 45.7647C321.224 45.7647 321.563 45.8183 321.932 45.9254C322.301 46.0324 322.486 46.2647 322.486 46.6222C322.486 47.0991 321.961 47.4079 320.913 47.5511C320.699 47.5754 320.511 47.624 320.342 47.6402C320.176 47.6564 320.042 47.6732 319.913 47.6937C319.007 47.8363 318.263 48.1228 317.68 48.5511C317.096 48.9802 316.805 49.6944 316.805 50.695C316.805 51.7666 317.126 52.535 317.769 52.9995C318.412 53.464 319.163 53.6962 320.02 53.6962C320.449 53.6962 320.943 53.6664 321.502 53.6072C322.062 53.5474 322.592 53.3874 323.092 53.1247C323.568 52.8867 323.979 52.4995 324.325 51.9634C324.67 51.4272 324.843 50.6832 324.843 49.7305V46.479C324.843 45.6216 324.498 44.9541 323.808 44.4777ZM322.521 49.6228C322.521 50.2897 322.33 50.8139 321.95 51.195C321.569 51.5761 321.044 51.7666 320.377 51.7666C319.972 51.7666 319.662 51.672 319.448 51.4808C319.234 51.2666 319.126 50.9808 319.126 50.6234C319.126 50.3612 319.21 50.0998 319.377 49.8376C319.567 49.6471 319.877 49.4926 320.306 49.3731L321.128 49.1944C321.723 49.0511 322.187 48.8968 322.521 48.7299V49.6228Z" fill="white"/>
<path d="M337.138 40.3765H337.062C336.411 40.3765 335.885 40.9039 335.885 41.5539V42.808H337.139C337.789 42.808 338.316 42.2806 338.316 41.6305V41.5545C338.316 40.9039 337.788 40.3765 337.138 40.3765Z" fill="white"/>
</g>
<g clip-path="url(#clip3_1_78934)">
<path d="M444.765 49.7865C444.02 49.7865 443.363 49.6223 442.796 49.2941C442.229 48.9552 441.788 48.4893 441.473 47.8963C441.158 47.2928 441 46.5993 441 45.8157C441 44.8733 441.231 44.0474 441.693 43.338C442.166 42.6285 442.833 42.0832 443.694 41.702C444.566 41.3208 445.584 41.1302 446.75 41.1302C447.286 41.1302 447.721 41.1673 448.058 41.2414V40.9079C448.058 40.1031 447.91 39.5048 447.616 39.1131C447.322 38.7107 446.876 38.5095 446.277 38.5095C445.311 38.5095 444.692 39.0231 444.419 40.0502C444.335 40.3466 444.161 40.4737 443.899 40.4313L441.756 40.0502C441.599 40.0184 441.489 39.9496 441.426 39.8437C441.373 39.7378 441.368 39.5948 441.41 39.4148C441.683 38.3348 442.26 37.4983 443.143 36.9053C444.035 36.3018 445.154 36 446.498 36C448.094 36 449.307 36.4341 450.137 37.3024C450.977 38.1707 451.397 39.436 451.397 41.0985V49.0876C451.397 49.2041 451.355 49.3046 451.271 49.3893C451.198 49.4635 451.103 49.5005 450.988 49.5005H448.94C448.688 49.5005 448.53 49.3628 448.467 49.0876L448.152 47.5946H448.026C447.742 48.2935 447.317 48.8334 446.75 49.2146C446.193 49.5958 445.532 49.7865 444.765 49.7865ZM444.434 45.4345C444.434 45.9957 444.576 46.4457 444.86 46.7845C445.154 47.1128 445.548 47.2769 446.041 47.2769C446.692 47.2769 447.191 46.9857 447.538 46.4033C447.884 45.8104 448.058 44.9633 448.058 43.8621V43.0203C447.763 42.9673 447.485 42.9408 447.223 42.9408C446.361 42.9408 445.679 43.1685 445.175 43.6238C444.681 44.0686 444.434 44.6721 444.434 45.4345ZM453.35 36.6988C453.35 36.5824 453.387 36.4871 453.461 36.413C453.545 36.3282 453.645 36.2859 453.76 36.2859H455.839C455.955 36.2859 456.049 36.3229 456.123 36.3971C456.207 36.4712 456.259 36.5718 456.28 36.6988L456.596 38.2554H456.722C457.005 37.5248 457.409 36.9689 457.935 36.5877C458.47 36.1959 459.1 36 459.825 36C460.602 36 461.269 36.2065 461.825 36.6194C462.393 37.0324 462.828 37.6201 463.133 38.3824H463.259C463.721 37.5777 464.241 36.9794 464.819 36.5877C465.396 36.1959 466.042 36 466.756 36C467.533 36 468.205 36.2118 468.773 36.6353C469.35 37.0589 469.791 37.6624 470.096 38.446C470.4 39.2295 470.553 40.156 470.553 41.2255V49.0876C470.553 49.2041 470.511 49.3046 470.427 49.3893C470.353 49.4635 470.259 49.5005 470.143 49.5005H467.623C467.507 49.5005 467.407 49.4635 467.323 49.3893C467.25 49.3046 467.213 49.2041 467.213 49.0876V41.4796C467.213 40.7066 467.066 40.1137 466.772 39.7007C466.478 39.2878 466.053 39.0813 465.496 39.0813C464.887 39.0813 464.419 39.3248 464.094 39.8119C463.779 40.299 463.621 41.0031 463.621 41.9243V49.0876C463.621 49.2041 463.579 49.3046 463.495 49.3893C463.422 49.4635 463.327 49.5005 463.212 49.5005H460.691C460.576 49.5005 460.476 49.4635 460.392 49.3893C460.318 49.3046 460.282 49.2041 460.282 49.0876V41.4796C460.282 40.7066 460.135 40.1137 459.841 39.7007C459.547 39.2878 459.121 39.0813 458.565 39.0813C457.956 39.0813 457.488 39.3248 457.163 39.8119C456.848 40.299 456.69 41.0031 456.69 41.9243V49.0876C456.69 49.2041 456.648 49.3046 456.564 49.3893C456.491 49.4635 456.396 49.5005 456.28 49.5005H453.76C453.645 49.5005 453.545 49.4635 453.461 49.3893C453.387 49.3046 453.35 49.2041 453.35 49.0876V36.6988ZM472.191 45.8157C472.191 44.8733 472.422 44.0474 472.884 43.338C473.357 42.6285 474.023 42.0832 474.885 41.702C475.756 41.3208 476.775 41.1302 477.941 41.1302C478.476 41.1302 478.912 41.1673 479.248 41.2414V40.9079C479.248 40.1031 479.101 39.5048 478.807 39.1131C478.513 38.7107 478.067 38.5095 477.468 38.5095C476.502 38.5095 475.882 39.0231 475.609 40.0502C475.525 40.3466 475.352 40.4737 475.089 40.4313L472.947 40.0502C472.789 40.0184 472.679 39.9496 472.616 39.8437C472.564 39.7378 472.558 39.5948 472.6 39.4148C472.874 38.3348 473.451 37.4983 474.333 36.9053C475.226 36.3018 476.344 36 477.689 36C479.285 36 480.498 36.4341 481.328 37.3024C482.168 38.1707 482.588 39.436 482.588 41.0985V49.0876C482.588 49.2041 482.546 49.3046 482.462 49.3893C482.388 49.4635 482.294 49.5005 482.178 49.5005H480.13C479.878 49.5005 479.721 49.3628 479.658 49.0876L479.343 47.5946H479.217C478.933 48.2935 478.508 48.8334 477.941 49.2146C477.384 49.5958 476.723 49.7865 475.956 49.7865C475.189 49.7865 474.554 49.6223 473.987 49.2941C473.42 48.9552 472.979 48.4893 472.664 47.8963C472.348 47.2928 472.191 46.5993 472.191 45.8157ZM475.625 45.4345C475.625 45.9957 475.767 46.4457 476.05 46.7845C476.344 47.1128 476.738 47.2769 477.232 47.2769C477.883 47.2769 478.382 46.9857 478.728 46.4033C479.075 45.8104 479.248 44.9633 479.248 43.8621V43.0203C478.954 42.9673 478.676 42.9408 478.413 42.9408C477.552 42.9408 476.87 43.1685 476.365 43.6238C475.872 44.0686 475.625 44.6721 475.625 45.4345ZM484.289 47.1657C484.289 46.9328 484.352 46.7316 484.478 46.5622L489.866 38.9542H484.825C484.709 38.9542 484.609 38.9172 484.525 38.8431C484.452 38.7583 484.415 38.6578 484.415 38.5413V36.6988C484.415 36.5824 484.452 36.4871 484.525 36.413C484.609 36.3282 484.709 36.2859 484.825 36.2859H493.111C493.226 36.2859 493.321 36.3282 493.394 36.413C493.478 36.4871 493.52 36.5824 493.52 36.6988V38.6207C493.52 38.8536 493.457 39.0548 493.331 39.2242L488.448 45.9903C488.742 45.9375 489.041 45.911 489.346 45.911C490.102 45.911 490.795 45.9798 491.425 46.1175C492.066 46.2446 492.727 46.4563 493.41 46.7528C493.652 46.8587 493.772 47.0386 493.772 47.2928V49.1194C493.772 49.2888 493.72 49.4052 493.615 49.4687C493.51 49.5217 493.379 49.5164 493.221 49.4529C492.433 49.1564 491.735 48.95 491.126 48.8334C490.527 48.7064 489.871 48.6428 489.157 48.6428C488.443 48.6428 487.76 48.7064 487.077 48.8334C486.405 48.9605 485.66 49.1669 484.84 49.4529C484.683 49.5059 484.552 49.5059 484.447 49.4529C484.342 49.3893 484.289 49.2781 484.289 49.1194V47.1657ZM494.465 42.8932C494.465 41.6014 494.712 40.4313 495.206 39.3831C495.699 38.3242 496.377 37.4983 497.238 36.9053C498.11 36.3018 499.076 36 500.136 36C501.197 36 502.174 36.3018 503.035 36.9053C503.907 37.4983 504.589 38.3242 505.083 39.3831C505.587 40.4313 505.839 41.6014 505.839 42.8932C505.839 44.185 505.587 45.3604 505.083 46.4192C504.589 47.4675 503.907 48.2935 503.035 48.897C502.174 49.4899 501.208 49.7865 500.136 49.7865C499.065 49.7865 498.11 49.4899 497.238 48.897C496.377 48.2935 495.699 47.4675 495.206 46.4192C494.712 45.3604 494.465 44.185 494.465 42.8932ZM497.931 42.8932C497.931 44.238 498.12 45.2757 498.498 46.0063C498.876 46.7263 499.422 47.0863 500.136 47.0863C500.851 47.0863 501.402 46.7263 501.791 46.0063C502.179 45.2757 502.373 44.238 502.373 42.8932C502.373 41.5485 502.179 40.5161 501.791 39.796C501.402 39.0654 500.851 38.7001 500.136 38.7001C499.422 38.7001 498.876 39.0654 498.498 39.796C498.12 40.5161 497.931 41.5485 497.931 42.8932ZM507.54 36.6988C507.54 36.5824 507.577 36.4871 507.651 36.413C507.735 36.3282 507.834 36.2859 507.95 36.2859H510.029C510.145 36.2859 510.239 36.3229 510.313 36.3971C510.397 36.4712 510.449 36.5718 510.47 36.6988L510.785 38.2554H510.911C511.195 37.5354 511.61 36.9794 512.156 36.5877C512.713 36.1959 513.364 36 514.109 36C514.907 36 515.595 36.2118 516.173 36.6353C516.761 37.0589 517.213 37.6624 517.528 38.446C517.843 39.2295 518 40.156 518 41.2255V49.0876C518 49.2041 517.958 49.3046 517.874 49.3893C517.801 49.4635 517.706 49.5005 517.591 49.5005H515.07C514.955 49.5005 514.855 49.4635 514.771 49.3893C514.697 49.3046 514.661 49.2041 514.661 49.0876V41.4796C514.661 40.7066 514.503 40.1137 514.188 39.7007C513.873 39.2878 513.427 39.0813 512.849 39.0813C512.208 39.0813 511.72 39.3248 511.384 39.8119C511.048 40.299 510.88 41.0031 510.88 41.9243V49.0876C510.88 49.2041 510.838 49.3046 510.754 49.3893C510.68 49.4635 510.586 49.5005 510.47 49.5005H507.95C507.834 49.5005 507.735 49.4635 507.651 49.3893C507.577 49.3046 507.54 49.2041 507.54 49.0876V36.6988Z" fill="#6C503C"/>
<path d="M449.76 51.3266C449.561 51.4855 449.519 51.7501 449.634 52.1208C449.739 52.4491 449.986 52.8567 450.374 53.3438C451.939 55.2921 453.803 56.9121 455.967 58.204C458.13 59.4958 460.446 60.4488 462.914 61.0629C465.392 61.6877 467.923 62 470.507 62C473.815 62 476.965 61.513 479.958 60.5387C482.951 59.5752 485.451 58.2198 487.457 56.4727C488.16 55.848 488.512 55.3504 488.512 54.9797C488.512 54.842 488.454 54.7044 488.339 54.5667C488.181 54.408 487.992 54.355 487.772 54.408C487.551 54.4608 487.241 54.5932 486.842 54.805C484.921 55.8215 482.579 56.6316 479.817 57.2351C477.065 57.8492 474.193 58.1563 471.2 58.1563C467.493 58.1563 463.911 57.6481 460.456 56.6316C457.001 55.615 453.94 54.0268 451.272 51.8667C450.884 51.5596 450.569 51.3636 450.327 51.2789C450.096 51.1942 449.907 51.2102 449.76 51.3266Z" fill="#6C503C"/>
<path d="M484.761 52.1216C484.541 52.3335 484.483 52.5558 484.588 52.7888C484.662 52.9582 484.803 53.0535 485.014 53.0747C485.224 53.1064 485.523 53.0852 485.911 53.0112C486.542 52.8735 487.198 52.7782 487.881 52.7252C488.563 52.6829 489.157 52.6935 489.661 52.757C490.165 52.8311 490.48 52.9582 490.606 53.1382C490.795 53.4241 490.727 54.0276 490.401 54.9489C490.086 55.8701 489.655 56.7648 489.109 57.6331C488.899 57.9825 488.773 58.2578 488.731 58.459C488.689 58.6602 488.742 58.8296 488.889 58.9673C488.983 59.0625 489.088 59.1102 489.204 59.1102C489.508 59.1102 489.949 58.8402 490.527 58.3002C491.567 57.3896 492.297 56.3095 492.717 55.0601C492.948 54.4141 493.089 53.7365 493.142 53.027C493.195 52.3176 493.116 51.8093 492.906 51.5023C492.706 51.2057 492.265 50.9622 491.582 50.7717C490.91 50.5811 490.233 50.4857 489.55 50.4857C488.217 50.4857 486.951 50.8034 485.754 51.4387C485.313 51.6823 484.982 51.9099 484.761 52.1216Z" fill="#6C503C"/>
</g>
<g clip-path="url(#clip4_1_78934)">
<path d="M598.832 42.9408C600.44 42.9408 601.842 43.3534 603.079 44.1372C604.357 44.9211 605.346 46.035 606.047 47.4789C606.748 48.8403 607.078 50.4906 607.078 52.3471C607.078 54.1623 606.748 55.7713 606.047 57.2152C605.346 58.6592 604.398 59.7731 603.12 60.5569C601.842 61.382 600.399 61.7946 598.832 61.7946C597.678 61.7946 596.565 61.5471 595.575 61.0932C594.545 60.5982 593.679 59.9381 592.937 59.0717V61.3408H587V37H592.937V45.6224C593.679 44.756 594.545 44.096 595.575 43.6421C596.565 43.1471 597.678 42.9408 598.832 42.9408ZM597.06 56.8439C597.884 56.8439 598.668 56.6376 599.327 56.2663C599.987 55.895 600.523 55.3587 600.894 54.6574C601.265 53.9973 601.471 53.2134 601.471 52.3471C601.471 51.4807 601.265 50.7381 600.894 50.0368C600.523 49.3354 599.987 48.7991 599.327 48.4278C598.668 48.0565 597.925 47.8502 597.06 47.8502C596.276 47.8502 595.575 48.0565 594.916 48.4278C594.297 48.7991 593.803 49.3354 593.432 49.9955C593.061 50.6968 592.896 51.4807 592.896 52.3471C592.896 53.2134 593.061 53.9973 593.432 54.6986C593.803 55.3587 594.256 55.895 594.916 56.3076C595.534 56.6376 596.235 56.8439 597.06 56.8439Z" fill="#6C503C"/>
<path d="M607.902 61.3408V37H613.798V61.3408H607.902Z" fill="#6C503C"/>
<path d="M615.49 61.3408V43.3534H621.386V61.3408H615.49Z" fill="#6C503C"/>
<path d="M634.206 42.9408C635.484 42.9408 636.597 43.2296 637.628 43.8072C638.659 44.3847 639.442 45.2099 640.019 46.2412C640.555 47.3139 640.844 48.5103 640.844 49.8717V61.3408H635.196V51.1919C635.196 50.5318 635.072 49.9542 634.783 49.4592C634.536 48.9229 634.165 48.5516 633.711 48.2628C633.258 47.974 632.722 47.8502 632.104 47.8502C631.526 47.8502 630.99 47.974 630.496 48.2628C630.001 48.5516 629.63 48.9229 629.341 49.3767C629.053 49.8305 628.929 50.3668 628.929 50.9856L628.888 61.3408H622.992V43.3534H628.888V45.4161C629.424 44.6323 630.207 44.0547 631.114 43.6009C632.062 43.1471 633.093 42.9408 634.206 42.9408Z" fill="#6C503C"/>
<path d="M653.831 51.1919L660.552 61.3408H653.873L649.956 54.9874L648.142 57.0915V61.3408H642.205V37H648.142V50.4493L653.79 43.3534H660.469L653.831 51.1919Z" fill="#6C503C"/>
<path d="M615.49 37H621.386V41.6213H615.49V37Z" fill="#6C503C"/>
<path d="M661.457 61.2583V43.2709H667.353V61.2583H661.457Z" fill="#6C503C"/>
<path d="M679.804 56.1838L681 59.9793C680.464 60.4744 679.804 60.887 678.98 61.217C678.155 61.5471 677.372 61.7121 676.63 61.7121C675.517 61.7121 674.527 61.4645 673.661 60.9695C672.796 60.4744 672.095 59.7731 671.6 58.9067C671.105 58.0403 670.858 57.0502 670.858 55.9363V47.974H668.508V43.2708H670.858V37H676.506V43.2708H680.217V47.974H676.506V54.8224C676.506 55.4 676.671 55.8538 676.96 56.2251C677.248 56.5964 677.66 56.7614 678.114 56.7614C678.444 56.7614 678.774 56.7202 679.062 56.5964C679.392 56.5551 679.639 56.3901 679.804 56.1838Z" fill="#6C503C"/>
<path d="M661.416 37H667.312V41.6213H661.416V37Z" fill="#6C503C"/>
</g>
<path d="M851.573 55.0656L850.845 59.6048C849.715 60.2196 847.602 61.1043 845.16 61.1043C841.006 61.1043 840.167 58.8738 840.824 54.1424L841.88 46.5267H839.836L840.415 41.5971L842.646 41.4884L843.484 37.9111L849.787 35.5265L848.986 41.4884H853.323C853.177 42.1038 852.667 45.4881 852.521 46.5267H848.294L847.346 53.5657C847.091 55.3734 847.237 56.0273 848.475 56.0273C849.387 56.0273 850.735 55.4889 851.573 55.0656ZM818.838 47.3345C819.312 44.0649 819.056 41.1037 815.45 41.1037C812.827 41.1037 809.984 43.3343 807.979 47.0652C808.417 43.9881 808.162 41.1037 804.591 41.1037C801.894 41.1037 798.979 43.4499 796.975 47.3345C797.485 44.7961 797.376 41.9113 797.23 41.2957C795.153 41.6425 793.331 41.8341 790.78 41.9113C790.853 43.6808 790.743 45.9885 790.416 48.1806L789.577 53.9504C789.25 56.2194 788.885 58.8358 788.521 60.4892H795.299C795.335 59.4892 795.59 57.9121 795.772 56.5271L796.355 52.5661C796.829 49.9884 798.87 46.9503 800.436 46.9503C801.348 46.9503 801.311 47.8349 801.056 49.489L800.4 53.9504C800.073 56.2194 799.708 58.8358 799.343 60.4892H806.194C806.23 59.4892 806.449 57.9121 806.631 56.5271L807.214 52.5661C807.688 49.9884 809.729 46.9503 811.295 46.9503C812.207 46.9503 812.17 47.7958 812.024 48.9503L810.389 60.4892H816.64L818.838 47.3345ZM871.761 49.3944C871.761 55.8634 867.22 61.241 861.202 61.241C855.812 61.241 853.043 57.5388 853.043 52.7066C853.043 46.2773 857.621 40.8991 863.602 40.8991C869.066 40.8991 871.761 44.6011 871.761 49.3944ZM859.602 52.5796C859.602 54.926 860.367 56.1185 861.68 56.1185C863.429 56.1185 864.813 53.2727 864.813 49.8105C864.813 47.4256 864.048 46.2718 862.772 46.2718C861.023 46.2718 859.602 49.0797 859.602 52.5796ZM788.193 49.5283C788.193 55.9129 783.711 61.2213 777.771 61.2213C772.451 61.2213 769.718 57.5672 769.718 52.7979C769.718 46.4516 774.236 41.1436 780.14 41.1436C785.533 41.1436 788.193 44.7976 788.193 49.5283ZM776.277 52.5796C776.277 54.926 777.043 56.1185 778.354 56.1185C780.103 56.1185 781.488 53.2727 781.488 49.8105C781.488 47.4256 780.723 46.2718 779.447 46.2718C777.698 46.2718 776.277 49.0797 776.277 52.5796ZM769.827 41.6035L769.718 45.1039L760.645 55.0277C764.434 55.0277 766.839 54.9884 768.224 54.9121C767.823 56.7968 767.495 58.3354 767.167 60.6421C765.345 60.4892 762.503 60.4509 759.661 60.4509C756.491 60.4509 753.721 60.4892 751.498 60.6421L751.571 57.1046L760.645 47.2192C756.672 47.2192 755.215 47.2577 753.575 47.2962C753.939 45.5272 754.195 43.5653 754.45 41.6035C757.329 41.7189 758.458 41.7572 762.212 41.7572C765.673 41.7572 767.641 41.7189 769.827 41.6035Z" fill="#6C503C"/>
<path d="M825.71 60.7412C822.473 61.1414 820.341 59.849 819.7 56.9068C819.298 55.056 819.855 52.9496 820.831 51.6905C822.137 50.0462 824.267 48.989 826.863 48.6687C828.954 48.4105 830.714 48.5383 832.361 48.852L832.43 48.5673C832.477 48.1135 832.523 47.6591 832.457 47.115C832.288 45.7222 831.194 44.8911 828.496 45.2243C826.675 45.4492 824.942 46.1117 823.596 46.8647L822.29 42.8864C824.111 41.8334 826.41 41.0323 829.04 40.7074C834.064 40.0868 837.593 41.6988 838.045 45.4035C838.165 46.3894 838.18 47.4346 838.056 48.3808C837.41 52.9624 836.996 56.4089 836.816 58.721C836.788 59.0773 836.79 59.6915 836.822 60.5646L830.589 60.5589C830.721 60.1964 830.84 59.7083 830.946 59.0948C831.015 58.6906 831.065 58.1799 831.098 57.5633C829.779 59.3819 827.969 60.4623 825.71 60.7412ZM827.665 57.2242C829.958 56.9408 831.537 54.7149 831.916 52.4947L831.98 51.8999C830.995 51.6769 829.571 51.508 828.189 51.6787C826.873 51.8416 825.777 52.3907 825.189 53.1879C824.746 53.7597 824.521 54.4431 824.62 55.2584C824.77 56.4821 826.114 57.4156 827.665 57.2242Z" fill="#6C503C"/>
<g clip-path="url(#clip5_1_78934)">
<path d="M983.416 55.8149C982.039 55.8149 980.88 55.5197 979.935 54.9292C978.99 54.3264 978.316 53.4872 977.908 52.4117L980.622 50.839C981.172 52.11 982.136 52.7471 983.512 52.7471C984.759 52.7471 985.38 52.3742 985.38 51.6257C985.38 51.2061 985.178 50.8921 984.772 50.6804C984.352 50.4317 983.606 50.1617 982.53 49.8755C981.43 49.5744 980.498 49.1419 979.739 48.5799C978.9 47.8987 978.481 46.9353 978.481 45.6895C978.481 44.4431 978.931 43.4019 979.836 42.6437C980.753 41.8823 981.841 41.5028 983.099 41.5028C984.227 41.5028 985.222 41.7702 986.086 42.3077C986.95 42.8328 987.634 43.5975 988.131 44.6075L985.476 46.1615C984.98 45.099 984.187 44.5706 983.099 44.5706C982.64 44.5706 982.279 44.6697 982.018 44.8659C981.756 45.0614 981.623 45.3101 981.623 45.6118C981.623 45.9381 981.782 46.2334 982.096 46.4976C982.437 46.7585 983.106 47.035 984.1 47.3238L985.377 47.7375C985.703 47.8431 986.086 48.0205 986.518 48.2685C986.991 48.5048 987.345 48.7599 987.581 49.0364C988.209 49.7169 988.526 50.569 988.526 51.5914C988.526 52.887 988.053 53.9256 987.112 54.6961C986.166 55.442 984.936 55.8182 983.416 55.8182V55.8149ZM998.62 50.9788L1000.03 45.7109H1003.18L1000.03 55.5417H997.281L995.708 50.2919L994.136 55.5417H991.382L988.236 45.7102H991.382L992.796 50.9782L994.328 45.7102H997.082L998.614 50.9782L998.62 50.9788ZM1006.67 44.3343C1006.51 44.4994 1006.32 44.6299 1006.1 44.7175C1005.89 44.8052 1005.66 44.8482 1005.43 44.8439C1005.2 44.8465 1004.97 44.8028 1004.75 44.7153C1004.54 44.6278 1004.34 44.4983 1004.17 44.3343C1004.01 44.1691 1003.88 43.9727 1003.79 43.7565C1003.7 43.5403 1003.66 43.3088 1003.66 43.0756C1003.66 42.5906 1003.84 42.1775 1004.17 41.8389C1004.53 41.4841 1004.95 41.3073 1005.43 41.3073C1005.92 41.3073 1006.33 41.4841 1006.67 41.8382C1007.02 42.1801 1007.2 42.5906 1007.2 43.0749C1007.2 43.5606 1007.02 43.9801 1006.67 44.3343ZM1006.91 55.5385H1003.96V45.7076H1006.91V55.5391V55.5385ZM1015.88 46.7119V45.7083H1018.75V55.0444C1018.75 56.5919 1018.25 57.7574 1017.24 58.5435C1016.25 59.3425 1015.02 59.7433 1013.56 59.7433C1011.34 59.7433 1009.78 58.9507 1008.9 57.3657L1011.42 55.9114C1011.88 56.7383 1012.63 57.1514 1013.66 57.1514C1014.37 57.1514 1014.91 56.9681 1015.29 56.601C1015.69 56.2345 1015.88 55.7152 1015.88 55.047V54.1431C1015.19 54.9946 1014.23 55.42 1013.02 55.42C1011.64 55.42 1010.49 54.9357 1009.56 53.9657C1008.64 52.9958 1008.18 51.8148 1008.18 50.4259C1008.18 49.0364 1008.64 47.8651 1009.56 46.9074C1010.47 45.9252 1011.63 45.4344 1013.02 45.4344C1014.23 45.4344 1015.19 45.8604 1015.88 46.7119ZM1011.79 52.0796C1012.26 52.4985 1012.82 52.707 1013.5 52.707C1014.18 52.707 1014.76 52.4985 1015.21 52.0789C1015.66 51.6723 1015.88 51.1219 1015.88 50.4291C1015.88 49.7363 1015.66 49.1827 1015.21 48.778C1014.75 48.3591 1014.18 48.1506 1013.5 48.1506C1012.82 48.1506 1012.25 48.3591 1011.79 48.7787C1011.35 49.1859 1011.13 49.7357 1011.13 50.4291C1011.13 51.1219 1011.35 51.6755 1011.79 52.0796ZM1027.74 46.7119V45.7083H1030.61V55.0444C1030.61 56.5919 1030.1 57.7574 1029.09 58.5435C1028.1 59.3425 1026.87 59.7433 1025.42 59.7433C1023.19 59.7433 1021.63 58.9507 1020.76 57.3657L1023.28 55.9114C1023.74 56.7383 1024.48 57.1514 1025.52 57.1514C1026.23 57.1514 1026.77 56.9681 1027.15 56.601C1027.54 56.2345 1027.74 55.7152 1027.74 55.047V54.1431C1027.05 54.9946 1026.09 55.42 1024.87 55.42C1023.49 55.42 1022.34 54.9357 1021.41 53.9657C1020.49 52.9958 1020.03 51.8148 1020.03 50.4259C1020.03 49.0364 1020.49 47.8651 1021.41 46.9074C1022.33 45.9252 1023.48 45.4344 1024.87 45.4344C1026.09 45.4344 1027.05 45.8604 1027.74 46.7119ZM1023.65 52.0796C1024.11 52.4985 1024.68 52.707 1025.36 52.707C1026.04 52.707 1026.61 52.4985 1027.07 52.0789C1027.51 51.6723 1027.74 51.1219 1027.74 50.4291C1027.74 49.7363 1027.51 49.1827 1027.07 48.778C1026.61 48.3591 1026.04 48.1506 1025.36 48.1506C1024.68 48.1506 1024.11 48.3591 1023.65 48.7787C1023.2 49.1859 1022.98 49.7357 1022.98 50.4291C1022.98 51.1219 1023.2 51.6755 1023.65 52.0796ZM1036.72 51.7248L1038.57 45.7076H1041.72L1038.36 55.2432C1037.81 56.7752 1037.08 57.8785 1036.17 58.5467C1035.28 59.2272 1034.14 59.5354 1032.75 59.47V56.7163C1033.43 56.7163 1033.96 56.5919 1034.32 56.3433C1034.69 56.107 1034.99 55.6874 1035.21 55.0846L1031.3 45.7076H1034.54L1036.72 51.7248ZM939 48.9496C939 42.2332 939 38.8766 940.812 36.5858C941.212 36.0797 941.67 35.6219 942.177 35.2215C944.464 33.4099 947.823 33.4099 954.54 33.4099C961.256 33.4099 964.613 33.4099 966.903 35.2215C967.409 35.6219 967.867 36.0797 968.268 36.5858C970.08 38.8734 970.08 42.2332 970.08 48.9496C970.08 55.666 970.08 59.0226 968.268 61.3128C967.867 61.8189 967.409 62.2767 966.903 62.677C964.616 64.4894 961.256 64.4894 954.54 64.4894C947.823 64.4894 944.467 64.4894 942.177 62.677C941.67 62.2767 941.212 61.8189 940.812 61.3128C939 59.0252 939 55.666 939 48.9496Z" fill="#6C503C"/>
<path fill-rule="evenodd" clip-rule="evenodd" d="M955.716 45.7297V42.5097C955.715 42.4093 955.675 42.3132 955.604 42.2422C955.533 42.1713 955.437 42.1313 955.336 42.1309C955.236 42.1314 955.14 42.1715 955.069 42.2424C954.998 42.3134 954.958 42.4094 954.957 42.5097V46.2924C954.957 46.5067 955.132 46.6776 955.343 46.6776H955.712C961.087 46.6776 961.645 46.9573 961.31 48.0917C961.294 48.1474 961.276 48.2005 961.257 48.2601L961.248 48.2937C959.836 52.5484 956.02 57.8727 954.892 59.3956C954.855 59.4455 954.807 59.4861 954.752 59.5141C954.697 59.5421 954.635 59.5566 954.573 59.5566C954.511 59.5566 954.45 59.5421 954.395 59.5141C954.34 59.4861 954.292 59.4455 954.255 59.3956C953.574 58.4755 951.908 56.1633 950.389 53.5397C950.286 53.3001 950.236 52.7414 951.923 52.7414H953.987C954.103 52.7414 954.196 52.8346 954.196 52.9492V54.6152C954.196 54.814 954.342 54.9972 954.54 55.0134C954.596 55.0181 954.652 55.0105 954.704 54.9911C954.756 54.9717 954.803 54.9411 954.842 54.9014C954.878 54.8669 954.907 54.8253 954.926 54.7793C954.945 54.7333 954.955 54.6838 954.954 54.634V52.3742C954.953 52.2706 954.912 52.1714 954.839 52.0982C954.765 52.025 954.666 51.9837 954.562 51.9831H950.392C949.664 51.9831 949.223 51.3616 948.934 50.7956C948.027 48.8933 947.377 47.0162 947.377 45.5367C947.377 41.7489 950.398 38.3392 954.569 38.3392C958.283 38.3392 961.096 41.0393 961.667 44.3065C961.671 44.3343 961.692 44.4587 961.695 44.4833C961.844 46.0871 957.661 45.9039 955.902 45.9129C955.878 45.9131 955.853 45.9084 955.83 45.8991C955.808 45.8898 955.787 45.876 955.77 45.8587C955.752 45.8413 955.739 45.8207 955.729 45.798C955.72 45.7753 955.715 45.751 955.716 45.7264V45.7297Z" fill="white"/>
</g>
<g clip-path="url(#clip6_1_78934)">
<path d="M1115.23 51.5249V34.0002H1111V51.7453C1111 58.4135 1115.67 62.8222 1121.71 62.8222C1124.68 62.8222 1127.26 61.6649 1129.19 59.681V62.3262H1133.36V34.0002H1129.13V51.5249C1129.13 56.0438 1126.11 59.0748 1122.21 59.0748C1118.25 59.0197 1115.23 56.0989 1115.23 51.5249ZM1137.54 62.3813H1141.55V59.7912C1143.42 61.72 1146.06 62.8773 1148.91 62.8773C1154.96 62.8773 1159.74 58.0828 1159.74 52.076C1159.74 46.0691 1154.96 41.2746 1148.91 41.2746C1146.06 41.2746 1143.47 42.4319 1141.61 44.3607V34.0002H1137.54V62.3813ZM1141.55 52.076C1141.55 48.053 1144.74 44.9118 1148.64 44.9118C1152.54 44.9118 1155.73 48.053 1155.73 52.076C1155.73 56.0438 1152.54 59.2401 1148.64 59.2401C1144.68 59.2401 1141.55 56.0438 1141.55 52.076ZM1162.16 52.0209C1162.16 58.1931 1166.94 62.8222 1173.09 62.8222C1176.83 62.8222 1179.91 61.1689 1181.99 58.4135L1179.03 56.2091C1177.49 58.2482 1175.45 59.2401 1173.09 59.2401C1169.63 59.2401 1166.83 56.7051 1166.28 53.3435H1183.04V52.0209C1183.04 45.8487 1178.7 41.2746 1172.76 41.2746C1166.72 41.2746 1162.16 46.1793 1162.16 52.0209ZM1172.65 44.8567C1175.67 44.8567 1178.2 46.9508 1178.92 50.1472H1166.33C1167.1 46.9508 1169.63 44.8567 1172.65 44.8567ZM1196.61 45.3527V41.5502H1195.18C1192.93 41.5502 1191.28 42.5972 1190.24 44.2505V41.7155H1186.28V62.3813H1190.35V50.588C1190.35 47.3917 1192.27 45.2976 1194.96 45.2976H1196.61V45.3527Z" fill="#6C503C"/>
</g>
</g>
<defs>
<linearGradient id="paint0_linear_1_78934" x1="0" y1="46" x2="1200" y2="46" gradientUnits="userSpaceOnUse">
<stop stop-color="#D9D9D9" stop-opacity="0"/>
<stop offset="0.125"/>
<stop offset="0.908654"/>
<stop offset="1" stop-color="white" stop-opacity="0"/>
</linearGradient>
<clipPath id="clip0_1_78934">
<rect width="88" height="30" fill="white" transform="translate(-1 34)"/>
</clipPath>
<clipPath id="clip1_1_78934">
<rect width="72" height="29.04" fill="white" transform="translate(156 34)"/>
</clipPath>
<clipPath id="clip2_1_78934">
<rect width="75.0995" height="31.6208" fill="white" transform="translate(297 33)"/>
</clipPath>
<clipPath id="clip3_1_78934">
<rect width="77" height="26" fill="white" transform="translate(441 36)"/>
</clipPath>
<clipPath id="clip4_1_78934">
<rect width="94" height="24.7533" fill="white" transform="translate(587 37)"/>
</clipPath>
<clipPath id="clip5_1_78934">
<rect width="102.951" height="31.727" fill="white" transform="translate(939 33)"/>
</clipPath>
<clipPath id="clip6_1_78934">
<rect width="85.6098" height="28.822" fill="white" transform="translate(1111 34)"/>
</clipPath>
</defs>
</svg>
