<svg width="49" height="54" viewBox="0 0 49 54" fill="none" xmlns="http://www.w3.org/2000/svg">
<path fill-rule="evenodd" clip-rule="evenodd" d="M4.59178 24.1179C5.07882 23.4664 3.71912 21.0024 3.04704 20.0572C2.74143 19.6264 1.98102 19.2389 2.09682 18.5976C2.64715 15.5447 5.27341 17.8694 6.6725 16.9988C8.40942 15.9174 8.55387 13.6927 9.56737 12.2007C10.0091 11.5504 11.3962 10.6352 11.6039 9.89091C11.8439 9.03034 10.2836 8.24759 10.0198 7.49862C9.48141 5.96333 9.99474 4.02644 9.78225 3.35771C9.51126 2.5001 8.49776 2.21349 8.5849 1.18555C8.72816 -0.495736 11.8725 -0.088918 12.8347 0.581023C13.7049 1.18697 15.2413 2.43756 16.1521 2.80465C17.3149 3.27403 18.5838 1.33822 19.6272 2.09066C21.5456 3.47422 18.7104 4.89743 18.8142 6.23717C18.8524 6.73365 19.5854 7.85519 19.398 8.27181C19.0685 9.00788 18.0156 9.16427 17.741 9.97184C17.334 11.176 20.5535 12.2173 21.1086 12.8501C21.8046 13.6456 20.3793 14.6936 20.23 15.4819C20.2121 15.5805 21.5396 16.2178 21.6554 16.3083C22.3286 16.8346 22.9613 17.777 23.7636 18.103C24.8881 18.5596 26.0723 18.0745 27.2207 18.2295C28.8752 18.4526 30.8449 20.6548 32.5639 19.5184C33.5619 18.8589 32.1259 16.787 33.0785 16.4578C35.3394 15.676 34.8882 18.1096 35.688 18.5447C35.7763 18.5929 39.1236 18.1844 39.4627 18.0695C39.8076 17.9521 39.5438 17.1123 39.7683 16.7753C40.3592 15.8839 41.4813 14.4527 42.4483 13.9232C43.8461 13.1586 47.8751 14.3638 48.1138 16.1979C48.1867 16.7504 47.2101 16.8414 46.8461 17.0526C45.8887 17.6082 44.4669 18.9375 44.0598 19.9607C43.87 20.4395 44.4347 21.107 44.5182 21.5969C44.5994 22.0842 44.1231 23.0656 43.901 23.5038C43.5167 24.2596 42.1355 23.5686 41.8168 24.7478C41.4885 25.9574 43.2982 27.1196 42.4256 28.2693C42.0949 28.7041 41.1041 26.8856 40.9692 26.5412C40.9155 26.4035 40.9334 26.4385 40.894 26.3358C40.8761 26.2888 40.8582 26.2421 40.8391 26.1956C40.8223 26.1542 40.7997 26.0937 40.7698 26.0605C40.4069 25.6604 38.7989 26.6444 38.4718 25.7668C37.8952 24.2195 38.4444 23.7359 38.9935 22.4178C39.0985 22.1647 38.4527 22.3232 38.1805 22.2895C37.6445 22.2232 37.099 22.2251 36.5821 22.057C35.4528 21.6898 34.9657 19.6412 33.8711 20.9109C32.5472 22.4464 35.8348 26.4666 34.8082 28.1445C34.0883 29.3228 32.4863 29.1954 31.5671 30.069C31.0777 30.5333 31.4191 31.1557 30.9428 31.6695C30.4832 32.1648 29.829 32.3932 29.3622 32.8925C27.4701 34.9171 25.738 37.0735 23.822 39.0527C22.7225 40.1883 20.9976 40.1156 20.0712 41.5549C19.7119 42.1133 20.6824 43.9724 20.637 44.8261C20.5905 45.718 19.953 46.6246 19.8408 47.545C19.7704 48.1239 20.2204 49.0734 19.9936 49.5704C19.5209 50.6036 17.8926 51.3411 17.0916 52.0961C16.4242 52.7249 15.9897 54.1829 14.7972 53.981C12.609 53.6098 12.8609 49.8745 12.2007 48.2963C11.8557 47.4732 11.1132 46.8283 10.7121 46.0062C10.0961 44.7402 10.2239 43.2795 9.68549 42.0021C9.0325 40.4538 7.97842 39.2008 7.63223 37.5259C7.06999 34.7981 7.90084 32.6793 7.50808 30.1783C7.49017 30.063 7.27529 29.3081 7.09384 29.2855C6.44444 29.2044 5.66132 30.4194 5.10743 30.6676C4.24673 31.053 2.30927 29.7224 1.69328 29.2713C0.600978 28.4706 0.561594 28.1924 1.35665 27.0968C1.59182 26.7734 0.164069 25.8127 0.0029143 25.6351C-0.014994 25.6151 0.0554364 25.471 0.0566384 25.4701C0.301344 24.9723 1.593 24.2953 2.10275 24.0055C2.71994 23.6545 3.85283 24.3315 4.59178 24.1179Z" fill="url(#paint0_radial_1_78704)"/>
<defs>
<radialGradient id="paint0_radial_1_78704" cx="0" cy="0" r="1" gradientUnits="userSpaceOnUse" gradientTransform="translate(24.0589 49.5056) rotate(-90) scale(53.331 17.1677)">
<stop stop-color="#FF9C38"/>
<stop offset="1" stop-color="#F97619"/>
</radialGradient>
</defs>
</svg>
