<svg width="130" height="28" viewBox="0 0 130 28" fill="none" xmlns="http://www.w3.org/2000/svg">
<path d="M38.9455 4.92417L36.8311 4.00287L36.4536 3.84072C36.3365 3.77291 36.2121 3.7169 36.0804 3.67267L36.0556 3.66236L35.978 3.63287C35.7395 3.54295 35.4805 3.49284 35.2083 3.49284C34.7196 3.49284 34.2689 3.65204 33.9104 3.91885C33.5504 4.18565 33.2797 4.56154 33.1524 4.99493H33.151V4.99787C33.1188 5.1099 33.0953 5.22488 33.0822 5.34133C33.0807 5.35755 33.0778 5.37229 33.0763 5.3885C33.0719 5.44747 33.0675 5.50938 33.0675 5.57276C33.0675 5.60225 33.0675 5.63173 33.0705 5.65974C33.0749 5.74671 33.0836 5.83515 33.0983 5.9177C33.1202 6.04152 33.151 6.16092 33.1934 6.27443H33.1963C33.3222 6.83605 34.3245 10.7129 35.1717 13.9765C35.1995 14.0856 35.2288 14.1947 35.2566 14.3052C35.4044 14.8786 35.5493 15.427 35.6795 15.9311C35.8068 16.4176 35.9224 16.8628 36.0219 17.2431C36.0219 17.2475 36.0248 17.2519 36.0248 17.2563C36.0263 17.2622 36.0292 17.2711 36.0321 17.2829C36.0351 17.2947 36.038 17.3079 36.0424 17.3256C36.1887 17.9182 36.9891 21.6078 35.1483 24.4174C34.5645 25.3078 33.7143 26.1111 32.4925 26.6978C32.3915 26.7391 32.2891 26.7774 32.1867 26.8143C31.2092 27.1666 30.1644 27.4039 29.1269 27.5646C28.9484 27.5926 28.7699 27.6191 28.5928 27.6427C27.6066 27.7769 26.6394 27.8506 25.7614 27.9051C25.6195 27.9125 25.4775 27.9213 25.3341 27.9272C24.4723 27.9655 23.6118 27.9626 22.7485 27.9213C22.5963 27.9125 22.4441 27.9036 22.292 27.8933C22.2803 27.8918 22.2686 27.8918 22.2554 27.8889C19.8805 27.7267 17.529 27.2477 15.2829 26.4502C13.7933 25.9225 12.349 25.2503 10.9823 24.4469C10.4702 24.1447 9.96825 23.8234 9.47951 23.4873C9.1532 23.2617 8.83421 23.0288 8.5196 22.7886C5.53305 20.5023 3.08938 17.5217 1.59391 14.0134C0.922265 12.4376 0.458406 10.7777 0.211112 9.08698C0.211112 9.08255 0.209649 9.07666 0.209649 9.07371C0.192089 8.95578 0.175993 8.83933 0.162824 8.71993C0.149654 8.62117 0.136485 8.51945 0.124778 8.41774C0.118925 8.36468 0.113072 8.31013 0.107219 8.25707C0.0969762 8.17599 0.0896598 8.09197 0.0823434 8.0109C0.0764903 7.93719 0.0677106 7.86349 0.0647841 7.78978V7.7662C0.058931 7.71903 0.0545411 7.67038 0.0530779 7.62321C0.0442982 7.53772 0.0413716 7.45222 0.0355185 7.36377C0.0355185 7.35198 0.0340552 7.34019 0.0340552 7.3284V7.30186C0.0340552 7.30186 0.0311287 7.29007 0.0311287 7.28417C0.0252756 7.18099 0.0208857 7.0778 0.0179592 6.97167V6.94661C0.0121061 6.83753 0.0106428 6.72845 0.00771625 6.61642C0.00625297 6.49701 0.00332642 6.37909 0.00332642 6.25969V5.9973C0.00332642 5.95897 0.00625297 5.92212 0.00625297 5.8838C0.00625297 5.85137 0.00771625 5.81894 0.00771625 5.78798V5.76587C0.00771625 5.73049 0.0106428 5.69511 0.0106428 5.66121C0.0106428 5.65679 0.0121061 5.65531 0.0106428 5.65237C0.0121061 5.61404 0.0135694 5.57866 0.0135694 5.54034C0.0150326 5.50201 0.0164959 5.46516 0.0194225 5.42683C0.0208857 5.3885 0.022349 5.35018 0.0238123 5.31185C0.0238123 5.30596 0.0238123 5.29859 0.0267389 5.29269V5.28827C0.0282021 5.22046 0.032592 5.15265 0.0369818 5.08484C0.0384451 5.05536 0.0413716 5.02588 0.0413716 4.99493C0.0428349 4.98755 0.0428349 4.98166 0.0428349 4.97281C0.0457615 4.93301 0.0472247 4.89321 0.0516146 4.85489C0.0530778 4.83572 0.0530778 4.81656 0.0560044 4.7974C0.0560044 4.78266 0.0574677 4.76792 0.0574677 4.75318C0.0603942 4.74433 0.0603942 4.73696 0.0603942 4.72959C0.0603942 4.71927 0.0618575 4.70895 0.0633208 4.69863C0.0633208 4.68389 0.0647841 4.67063 0.0662473 4.65589C0.0662473 4.65294 0.0662473 4.65146 0.0662473 4.64999C0.0662473 4.64262 0.0662473 4.63525 0.0662473 4.62788C0.0706372 4.58955 0.0721005 4.5527 0.0764903 4.51437C0.0808801 4.47015 0.08527 4.4274 0.0881965 4.38613C0.0896598 4.3537 0.0940496 4.3198 0.0984395 4.28589C0.102829 4.2343 0.108682 4.18418 0.114536 4.13406C0.120389 4.07805 0.126242 4.02351 0.132095 3.96749C0.132095 3.95865 0.133558 3.95128 0.135021 3.94243C0.136485 3.92327 0.139411 3.9041 0.140875 3.88642C0.143801 3.8702 0.145264 3.85251 0.146728 3.83482C0.151117 3.81124 0.152581 3.78913 0.156971 3.76701C0.159897 3.73311 0.164287 3.70068 0.168677 3.66678C0.17453 3.61666 0.181846 3.56507 0.187699 3.51495C0.193552 3.47662 0.197942 3.43682 0.203795 3.39997C0.209649 3.36459 0.215502 3.32626 0.221355 3.29089C0.224281 3.27909 0.224281 3.2673 0.225745 3.25403C0.230134 3.22603 0.235988 3.19655 0.240377 3.16854C0.253547 3.08304 0.26818 2.9946 0.281349 2.9091C0.290129 2.86488 0.297445 2.82213 0.304762 2.77791C0.309151 2.74695 0.315005 2.71452 0.322321 2.68209C0.334027 2.61281 0.345733 2.54353 0.360366 2.47277C0.364756 2.47572 0.367683 2.47719 0.372072 2.47719V2.47277C1.11103 2.71305 1.84706 2.96217 2.58308 3.2216C10.3224 5.94571 17.8846 9.70609 24.5586 14.5735C25.1088 14.9759 25.6546 15.3857 26.1916 15.8014C26.1916 15.8014 26.1931 15.8029 26.196 15.8058C26.335 15.912 26.4726 16.0166 26.6116 16.1242C26.6701 16.1685 26.7301 16.2142 26.7872 16.2599C26.8267 16.2923 26.8662 16.3218 26.9057 16.3527C26.9701 16.4028 27.033 16.453 27.0974 16.5016C27.273 16.6416 27.4471 16.7802 27.6198 16.9188C27.6754 16.963 27.728 17.0057 27.7822 17.05C27.8115 17.0736 27.8436 17.0971 27.8729 17.1237C27.8846 17.134 27.8963 17.1414 27.9066 17.1517C28.0705 17.2858 28.2343 17.42 28.3968 17.5556C28.5021 17.6425 28.6075 17.7325 28.7128 17.8224C28.745 17.8474 28.7772 17.8755 28.8079 17.902C28.8314 17.9211 28.8533 17.9418 28.8767 17.9609C28.8987 17.9801 28.9221 17.9993 28.9455 18.0184C28.9982 18.0627 29.0508 18.1084 29.1021 18.1541C29.1767 18.2189 29.2513 18.2838 29.3259 18.3486C29.4737 18.4784 29.6215 18.6095 29.7708 18.7407C29.7649 18.2911 29.7122 15.7823 29.6566 13.179C29.5893 10.0776 29.5191 6.84048 29.5191 6.79036C29.5074 5.60372 29.4635 4.35075 29.8542 3.18623C29.9683 2.84866 30.119 2.51405 30.299 2.19122C30.3005 2.18975 30.3005 2.1868 30.3034 2.18533V2.18238C30.4205 1.96421 30.558 1.75047 30.7175 1.54115C30.7292 1.52494 30.7409 1.51167 30.7526 1.49546C30.7556 1.49251 30.7556 1.49103 30.757 1.49103C31.4916 0.546146 32.4969 0.0714921 33.628 0.00958069C34.5879 -0.0420122 35.4907 0.112766 36.2985 0.522561C36.3043 0.525509 36.3087 0.528457 36.3146 0.531406H36.3175C36.3175 0.531406 36.3204 0.53288 36.3219 0.53288C36.3307 0.535828 36.3394 0.541724 36.3541 0.547621C36.3555 0.547621 36.3585 0.550569 36.3599 0.550569C36.3628 0.552043 36.3658 0.554991 36.3687 0.556465H36.3731L36.3745 0.557939C36.376 0.557939 36.3789 0.560887 36.3789 0.560887C36.3804 0.560887 36.3804 0.562361 36.3833 0.562361C36.3833 0.562361 36.3848 0.56531 36.3863 0.56531C36.3906 0.566784 36.3965 0.571206 36.4024 0.57268V0.575628C36.4024 0.575628 36.4082 0.577102 36.4097 0.577102C36.4141 0.578576 36.4184 0.581524 36.4214 0.582999C36.4214 0.585947 36.4228 0.585947 36.4258 0.587421C36.4623 0.606584 36.5062 0.631643 36.5516 0.656703C36.5794 0.672917 36.6072 0.687658 36.6321 0.706821H36.6336C36.6804 0.737777 36.7272 0.770207 36.7726 0.805585C36.8413 0.858652 36.9072 0.917615 36.9701 0.981001C36.9877 1.00164 37.0052 1.0208 37.0257 1.04586C37.0433 1.06797 37.0623 1.09008 37.0842 1.11514C37.0945 1.12693 37.1033 1.1402 37.1135 1.15347C37.1472 1.19327 37.1808 1.23454 37.2145 1.27877C37.3564 1.45565 37.5203 1.67234 37.6959 1.90525C37.7398 1.96421 37.7852 2.02612 37.8305 2.08804C38.5475 3.05503 39.3611 4.21956 39.3611 4.21956C39.705 4.54386 39.364 5.10843 38.9441 4.92564L38.9455 4.92417Z" fill="#FE8302"/>
<path d="M35.1465 24.4175C34.5626 25.3079 33.7124 26.1112 32.4906 26.6979C32.3896 26.7392 32.2872 26.7775 32.1848 26.8144C31.2073 27.1667 30.1625 27.404 29.1251 27.5647C28.9466 27.5927 28.768 27.6192 28.591 27.6428C27.6047 27.777 26.6375 27.8507 25.7595 27.9052C25.6176 27.9126 25.4757 27.9214 25.3323 27.9273C24.4704 27.9656 23.61 27.9627 22.7466 27.9214C22.5945 27.9126 22.4423 27.9037 22.2901 27.8934C22.2784 27.8919 22.2667 27.8919 22.2535 27.889C19.8786 27.7268 17.5271 27.2478 15.281 26.4503C13.7914 25.9226 12.3471 25.2504 10.9804 24.447C10.4683 24.1463 9.96638 23.8264 9.47765 23.4874C9.15134 23.2619 8.83234 23.0289 8.51774 22.7887C5.53119 20.5024 3.08752 17.5218 1.59205 14.0135C0.920402 12.4377 0.456543 10.7779 0.209249 9.08708C0.209249 9.08266 0.207785 9.07676 0.207785 9.07381C0.190226 8.95589 0.17413 8.83944 0.160961 8.72003C0.147791 8.62127 0.134622 8.51956 0.122915 8.41785C0.117062 8.36478 0.111209 8.31024 0.105356 8.25717C0.0892599 8.10092 0.0760904 7.94467 0.0614577 7.78989V7.7663C0.0497514 7.61447 0.0395085 7.46412 0.0307288 7.31229V7.30197C0.0248757 7.18257 0.0190226 7.06611 0.0146328 6.94671C0.00877967 6.83763 0.00731639 6.72855 0.00438983 6.61652C0.00292655 6.49712 0 6.37919 0 6.25979V6.2023C0 6.04752 0.00292655 5.8898 0.00585311 5.73502C0.00585311 5.63183 0.0102429 5.53012 0.0146328 5.42841C0.0160961 5.39008 0.0175593 5.35176 0.0190226 5.31343C0.0190226 5.30754 0.0190226 5.30016 0.0219492 5.29427V5.28985C0.0234124 5.22204 0.0278023 5.15423 0.0321921 5.08642C0.0336554 5.05694 0.0365819 5.02746 0.0365819 4.9965C0.0380452 4.98913 0.0380452 4.98324 0.0380452 4.97439C0.0409718 4.93459 0.042435 4.89479 0.0468249 4.85647C0.0482882 4.8373 0.0482882 4.81814 0.0512147 4.79898C0.052678 4.76655 0.0556045 4.73264 0.0585311 4.70021C0.0585311 4.68547 0.0599944 4.67221 0.0614577 4.65746C0.0614577 4.65452 0.0614577 4.65304 0.0614577 4.65157C0.0643842 4.60587 0.068774 4.56018 0.0731639 4.51595C0.0775537 4.47173 0.0819435 4.42898 0.0848701 4.38771C0.0863334 4.35528 0.0907232 4.32137 0.095113 4.28747C0.0995029 4.23588 0.105356 4.18576 0.111209 4.13564C0.117062 4.07962 0.122915 4.02508 0.128768 3.96907C0.128768 3.96022 0.130232 3.95285 0.131695 3.94401C0.139011 3.88505 0.146328 3.82608 0.153644 3.76712C0.156571 3.73322 0.160961 3.70079 0.16535 3.66688C0.171203 3.61676 0.17852 3.56517 0.184373 3.51505C0.190226 3.47673 0.194616 3.43693 0.200469 3.40007C0.206322 3.3647 0.212175 3.32637 0.218028 3.29099C0.223881 3.25119 0.229735 3.20992 0.235588 3.17012C0.248757 3.08462 0.26339 2.99617 0.276559 2.91068C0.285339 2.86646 0.292655 2.82371 0.299972 2.77948C0.304362 2.74853 0.310215 2.7161 0.317531 2.68367C0.329237 2.61439 0.340944 2.54511 0.355576 2.47435C0.359966 2.4773 0.362893 2.47877 0.367283 2.47877C7.33248 4.74738 14.0577 7.86359 20.2781 11.7507C21.7165 12.6485 23.1403 13.5919 24.5348 14.5884C25.0923 14.9819 25.6425 15.3888 26.1883 15.8015C26.1883 15.8015 26.1897 15.803 26.1927 15.8059C26.3317 15.9121 26.4692 16.0167 26.6082 16.1243C26.6668 16.1686 26.7268 16.2143 26.7838 16.26C26.8233 16.2924 26.8628 16.3219 26.9024 16.3528C26.9667 16.4029 27.0297 16.4531 27.094 16.5017C27.2696 16.6418 27.4438 16.7803 27.6164 16.9189C27.672 16.9631 27.7247 17.0058 27.7789 17.0501C27.8081 17.0737 27.8403 17.0972 27.8696 17.1238C27.8813 17.1341 27.893 17.1415 27.9032 17.1518C28.0671 17.2859 28.231 17.4201 28.3934 17.5557C28.4988 17.6427 28.6041 17.7326 28.7095 17.8225C28.7417 17.8475 28.7739 17.8756 28.8046 17.9021C28.828 17.9213 28.85 17.9419 28.8734 17.9611C28.948 18.0259 29.0241 18.0893 29.0987 18.1542C29.1734 18.219 29.248 18.2839 29.3226 18.3487C29.4704 18.4785 29.6182 18.6096 29.7675 18.7408C30.8313 19.6901 31.8556 20.6807 32.8272 21.7185C33.6407 22.5852 34.4163 23.4844 35.1509 24.4175H35.1465Z" fill="url(#paint0_linear_1_69137)"/>
<path d="M51.7243 24.9487L45.7688 9.14805H49.2865L52.4779 18.3345C53.0266 19.8779 53.3573 21.125 53.47 22.0772H53.5827C53.6675 21.3918 53.9982 20.1432 54.5748 18.3345L57.7662 9.14805H61.3117L55.3269 24.9487H51.7243Z" fill="#1e1e1e"/>
<path d="M73.5064 24.9487L72.8392 22.7479H72.7265C71.97 23.7104 71.2091 24.3649 70.4438 24.7128C69.6785 25.0607 68.6952 25.2346 67.4938 25.2346C65.953 25.2346 64.7502 24.816 63.8854 23.9772C63.0206 23.14 62.5874 21.9533 62.5874 20.4203C62.5874 18.7914 63.1874 17.5635 64.3887 16.7351C65.5886 15.9066 67.4192 15.4541 69.8775 15.3775L72.586 15.292V14.4488C72.586 13.439 72.3519 12.6843 71.8836 12.1846C71.4154 11.6849 70.6896 11.4343 69.7063 11.4343C68.9029 11.4343 68.1318 11.5537 67.3943 11.791C66.6568 12.0298 65.9471 12.3099 65.2667 12.6342L64.1883 10.2344C65.0384 9.78626 65.9705 9.44575 66.9817 9.21284C67.9928 8.97994 68.9483 8.86349 69.8467 8.86349C71.8412 8.86349 73.3469 9.30129 74.3639 10.1784C75.3794 11.0554 75.8886 12.4308 75.8886 14.3073V24.9501H73.5064V24.9487ZM68.543 22.6624C69.7531 22.6624 70.7247 22.3219 71.4578 21.6408C72.1909 20.9598 72.5567 20.0046 72.5567 18.7767V17.4058L70.5433 17.4913C68.9732 17.5488 67.8318 17.8126 67.1177 18.2843C66.4037 18.7561 66.0466 19.4769 66.0466 20.4483C66.0466 21.1529 66.2544 21.6983 66.67 22.0845C67.0855 22.4707 67.7104 22.6638 68.5415 22.6638L68.543 22.6624Z" fill="#1e1e1e"/>
<path d="M94.3392 24.9486H90.9927V15.2344C90.9927 14.0153 90.7498 13.1058 90.2625 12.5058C89.7752 11.9059 89.0026 11.6052 87.9432 11.6052C86.5443 11.6052 85.5156 12.0268 84.8586 12.8699C84.2016 13.7131 83.8723 15.1253 83.8723 17.1065V24.95H80.539V2.71942H83.8723V8.36221C83.8723 9.26729 83.8153 10.2343 83.7026 11.2617H83.9148C84.3684 10.4996 84.9991 9.90999 85.8083 9.48988C86.616 9.07124 87.5598 8.86192 88.6368 8.86192C92.4369 8.86192 94.3377 10.79 94.3377 14.6477V24.9486H94.3392Z" fill="#1e1e1e"/>
<path d="M108.79 24.9487L108.123 22.7479H108.01C107.254 23.7104 106.493 24.3649 105.728 24.7128C104.962 25.0607 103.979 25.2346 102.778 25.2346C101.237 25.2346 100.034 24.816 99.1694 23.9772C98.3046 23.14 97.8714 21.9533 97.8714 20.4203C97.8714 18.7914 98.4714 17.5635 99.6727 16.7351C100.873 15.9066 102.703 15.4541 105.161 15.3775L107.87 15.292V14.4488C107.87 13.439 107.636 12.6843 107.168 12.1846C106.699 11.6849 105.974 11.4343 104.99 11.4343C104.187 11.4343 103.416 11.5537 102.678 11.791C101.941 12.0298 101.231 12.3099 100.551 12.6342L99.4723 10.2344C100.322 9.78626 101.255 9.44575 102.266 9.21284C103.277 8.97994 104.232 8.86349 105.131 8.86349C107.125 8.86349 108.631 9.30129 109.648 10.1784C110.663 11.0554 111.173 12.4308 111.173 14.3073V24.9501H108.79V24.9487ZM103.827 22.6624C105.037 22.6624 106.009 22.3219 106.742 21.6408C107.475 20.9598 107.841 20.0046 107.841 18.7767V17.4058L105.827 17.4913C104.257 17.5488 103.116 17.8126 102.402 18.2843C101.688 18.7561 101.331 19.4769 101.331 20.4483C101.331 21.1529 101.538 21.6983 101.954 22.0845C102.37 22.4707 102.994 22.6638 103.826 22.6638L103.827 22.6624Z" fill="#1e1e1e"/>
<path d="M129.623 24.9486H126.277V15.2344C126.277 14.0153 126.034 13.1058 125.547 12.5059C125.059 11.9059 124.287 11.6052 123.227 11.6052C121.818 11.6052 120.788 12.0239 120.136 12.8626C119.483 13.7014 119.157 15.1062 119.157 17.077V24.9486H115.823V9.14793H118.432L118.901 11.219H119.07C119.543 10.4672 120.215 9.88497 121.084 9.47665C121.953 9.06685 122.917 8.86195 123.977 8.86195C127.739 8.86195 129.62 10.7901 129.62 14.6477V24.9486H129.623Z" fill="#1e1e1e"/>
<defs>
<linearGradient id="paint0_linear_1_69137" x1="1.66082" y1="1.28919" x2="28.4176" y2="30.7888" gradientUnits="userSpaceOnUse">
<stop stop-color="#FFE90F"/>
<stop offset="0.14" stop-color="#FEC50D"/>
<stop offset="0.32" stop-color="#FE9D0A"/>
<stop offset="0.51" stop-color="#FE7E09"/>
<stop offset="0.68" stop-color="#FE6807"/>
<stop offset="0.85" stop-color="#FE5A07"/>
<stop offset="1" stop-color="#FE5607"/>
</linearGradient>
</defs>
</svg>
