<svg width="85" height="85" viewBox="0 0 85 85" fill="none" xmlns="http://www.w3.org/2000/svg">
<path d="M70.1004 25.1467L67.0333 23.819L66.4864 23.5842C66.3174 23.4864 66.1367 23.4058 65.9442 23.3433L65.9075 23.3292L65.7956 23.2861C65.4482 23.1578 65.0726 23.0851 64.6783 23.0851C63.9702 23.0851 63.3161 23.3143 62.795 23.6985C62.2732 24.0826 61.8812 24.6241 61.6942 25.2484H61.6918V25.2515C61.6457 25.4119 61.6113 25.5786 61.5909 25.7476C61.5886 25.7703 61.5854 25.793 61.5823 25.8164C61.5768 25.9025 61.5706 25.9909 61.5706 26.0825C61.5706 26.1255 61.5706 26.1685 61.5737 26.2084C61.5792 26.3344 61.594 26.4604 61.6144 26.5809C61.6457 26.7592 61.6918 26.9306 61.7513 27.0941H61.7544C61.9375 27.9023 63.3905 33.4879 64.6196 38.1879C64.6603 38.3451 64.7025 38.5032 64.7432 38.6612C64.9584 39.4867 65.1673 40.2769 65.3566 41.0022C65.5405 41.7032 65.7087 42.3432 65.8535 42.8917C65.855 42.8987 65.8566 42.905 65.8589 42.9113C65.8613 42.9207 65.8644 42.9332 65.8691 42.9488C65.873 42.9653 65.8785 42.9856 65.884 43.0091C66.096 43.8627 67.2587 49.1776 64.5875 53.2234C63.7402 54.5065 62.5071 55.6629 60.735 56.5072H60.7342C60.5871 56.5658 60.4392 56.6214 60.2906 56.6754C58.8721 57.1832 57.3557 57.5243 55.8512 57.7559C55.5922 57.7973 55.3332 57.8341 55.0766 57.8685C53.6448 58.0618 52.2427 58.1682 50.9682 58.2464C50.7616 58.2574 50.5558 58.2691 50.3493 58.2777C49.0998 58.3325 47.8503 58.3286 46.5976 58.2691C46.3778 58.2574 46.1564 58.2433 45.9357 58.2284C45.9193 58.2261 45.9021 58.2261 45.8817 58.2222C42.4368 57.9875 39.0239 57.2997 35.7652 56.1504C33.6042 55.3907 31.5097 54.4228 29.5263 53.2649C28.7838 52.8291 28.0562 52.3674 27.3449 51.8831C26.8716 51.5584 26.4084 51.2236 25.9515 50.8777C21.6185 47.5846 18.0734 43.2915 15.9038 38.2387C14.9297 35.969 14.2561 33.5787 13.8985 31.1431C13.8985 31.1376 13.8961 31.129 13.8961 31.1227C13.8703 30.9537 13.8476 30.7847 13.8273 30.6126C13.807 30.4694 13.7897 30.3239 13.7725 30.1776C13.7639 30.1001 13.7545 30.0227 13.7467 29.946C13.7326 29.8286 13.7217 29.7074 13.7099 29.5908C13.7013 29.4844 13.6896 29.378 13.6841 29.2723V29.2379C13.6755 29.1691 13.67 29.1002 13.6677 29.0321C13.6559 28.9085 13.6497 28.7849 13.6419 28.6589C13.6419 28.6425 13.6395 28.6245 13.6395 28.6073V28.5697C13.6364 28.5611 13.6364 28.5533 13.6364 28.5447C13.6278 28.3953 13.6223 28.2466 13.616 28.094V28.0573C13.6074 27.8992 13.6051 27.7419 13.602 27.5816C13.5996 27.4094 13.5957 27.2404 13.5957 27.0683V26.6904C13.5957 26.6356 13.5988 26.5809 13.5988 26.5277C13.5988 26.4815 13.6012 26.4353 13.6012 26.3899V26.3579C13.6012 26.307 13.6043 26.2554 13.6043 26.2069C13.6043 26.2006 13.6067 26.1975 13.6043 26.1951C13.6067 26.1404 13.609 26.0895 13.609 26.0347C13.6114 25.98 13.6137 25.9252 13.6168 25.8712C13.6192 25.8157 13.6207 25.7609 13.6239 25.7053C13.6239 25.696 13.6239 25.685 13.627 25.6772V25.6709C13.6293 25.5731 13.6356 25.4761 13.6411 25.3783C13.6434 25.3353 13.6466 25.2922 13.6466 25.2492C13.6489 25.2382 13.6489 25.2289 13.6489 25.2179C13.652 25.1608 13.6544 25.1029 13.6606 25.0489C13.663 25.02 13.663 24.9941 13.6669 24.966C13.6669 24.9456 13.6692 24.9229 13.6692 24.9026C13.6724 24.8909 13.6724 24.8791 13.6724 24.8682C13.6739 24.8533 13.6747 24.8384 13.6763 24.8236C13.6779 24.8024 13.6786 24.7821 13.6802 24.7625C13.681 24.7594 13.681 24.7563 13.681 24.7539C13.6818 24.743 13.6818 24.7328 13.6826 24.7219C13.688 24.6671 13.6912 24.6123 13.6966 24.5583C13.7029 24.495 13.7084 24.4324 13.7146 24.3729C13.717 24.3267 13.7232 24.2782 13.7287 24.2289C13.7342 24.1538 13.7428 24.0826 13.7514 24.0114C13.7592 23.9316 13.7671 23.8518 13.7764 23.772C13.7772 23.7595 13.7788 23.7478 13.7796 23.7352C13.7819 23.7086 13.785 23.6805 13.7882 23.6539C13.7913 23.6304 13.7937 23.6054 13.7968 23.5788C13.803 23.5443 13.8062 23.5123 13.8116 23.481C13.8163 23.4324 13.8226 23.3863 13.8281 23.337C13.8367 23.2658 13.8484 23.1907 13.8562 23.1195C13.8649 23.0647 13.8703 23.0076 13.8789 22.9528C13.8883 22.902 13.8969 22.8472 13.9048 22.7956C13.9079 22.7776 13.9079 22.7611 13.9102 22.7431C13.9165 22.704 13.9243 22.6602 13.9306 22.6203C13.9509 22.4967 13.9713 22.3707 13.99 22.2471C14.0018 22.1837 14.0135 22.1211 14.0245 22.0578C14.0299 22.0124 14.0385 21.9662 14.0503 21.9201C14.0683 21.8199 14.0847 21.7198 14.105 21.6196C14.1105 21.6227 14.116 21.6251 14.1215 21.6251V21.6196C15.1934 21.967 16.2621 22.3246 17.3286 22.6978C28.5569 26.6208 39.5302 32.0374 49.214 39.047C50.0129 39.6259 50.8047 40.2167 51.5831 40.8152C51.5831 40.8152 51.585 40.8173 51.5886 40.8215C51.7897 40.9732 51.99 41.1258 52.1911 41.2799C52.2764 41.3433 52.3624 41.4083 52.4454 41.4748C52.5025 41.5209 52.5604 41.564 52.6175 41.6093C52.7114 41.6805 52.8029 41.7533 52.8952 41.8245C53.1495 42.0256 53.4022 42.2259 53.6542 42.4262C53.7348 42.4895 53.8122 42.5521 53.8897 42.6155C53.9327 42.6499 53.9789 42.6844 54.0219 42.7219C54.0383 42.736 54.0563 42.747 54.0704 42.761C54.3083 42.9535 54.5461 43.1483 54.7816 43.3432C54.9334 43.4691 55.0883 43.5974 55.2393 43.7273C55.2855 43.7641 55.3317 43.8048 55.377 43.8415C55.4107 43.8689 55.4435 43.8979 55.4764 43.9253C55.5093 43.9526 55.5421 43.9808 55.5758 44.0074C55.6524 44.0724 55.7276 44.1373 55.8035 44.203C55.9122 44.2961 56.0202 44.3892 56.1289 44.4831C56.3441 44.6693 56.5585 44.8587 56.7736 45.048C56.765 44.4002 56.6876 40.7862 56.607 37.0377C56.5092 32.5702 56.4067 27.9078 56.4067 27.8351C56.3887 26.1271 56.3261 24.322 56.8933 22.6446C57.06 22.1579 57.2783 21.6767 57.5388 21.212C57.5412 21.2096 57.5412 21.2057 57.5451 21.2034V21.2002C57.7141 20.8849 57.9152 20.5782 58.1468 20.2778C58.1632 20.2551 58.1812 20.2347 58.1976 20.2121C58.2007 20.2089 58.2007 20.2058 58.2039 20.2058C59.282 18.8389 60.7404 18.1567 62.3827 18.0675C63.7762 17.9932 65.0852 18.2169 66.2572 18.8069C66.2666 18.81 66.2713 18.8162 66.2807 18.8186H66.2854C66.2854 18.8186 66.2885 18.8209 66.2916 18.8209C66.3034 18.8241 66.3174 18.8327 66.3378 18.8413C66.3401 18.8413 66.344 18.8444 66.3464 18.8444C66.3495 18.8468 66.355 18.8499 66.3581 18.853H66.3644V18.8554H66.3667L66.373 18.8585C66.3753 18.8585 66.3753 18.8608 66.3793 18.8608C66.3793 18.8608 66.3816 18.864 66.3839 18.864C66.3902 18.8663 66.3988 18.8726 66.4074 18.8749L66.4098 18.8781C66.4098 18.8781 66.4152 18.8804 66.4184 18.8804C66.4246 18.8828 66.4301 18.8867 66.4364 18.889C66.4364 18.8921 66.4387 18.8921 66.4426 18.8953C66.4966 18.9234 66.56 18.9586 66.6257 18.9962C66.6656 19.0189 66.7055 19.0416 66.7431 19.0674H66.7454C66.8143 19.1128 66.8808 19.1589 66.9465 19.2106C67.0466 19.288 67.1413 19.371 67.2329 19.4625C67.2587 19.4922 67.2845 19.5204 67.3134 19.5548C67.3385 19.5861 67.3674 19.6182 67.3987 19.655C67.4128 19.6714 67.4269 19.6918 67.4418 19.7098C67.4903 19.7669 67.5396 19.8271 67.5881 19.8905C67.7946 20.1448 68.0325 20.4577 68.2875 20.7926C68.3509 20.8787 68.4166 20.9671 68.4824 21.0563C69.523 22.4497 70.7028 24.1257 70.7028 24.1257C71.202 24.5928 70.706 25.4065 70.0988 25.1436L70.1004 25.1467Z" fill="#FE8302"/>
<path d="M64.5872 53.2241C63.7398 54.5072 62.5067 55.6636 60.7346 56.5079H60.7338C60.5867 56.5665 60.4388 56.6221 60.2902 56.6761C58.8717 57.1839 57.3554 57.525 55.8508 57.7566C55.5918 57.798 55.3328 57.8348 55.0762 57.8692C53.6444 58.0625 52.2423 58.1689 50.9678 58.2472C50.7612 58.2581 50.5555 58.2698 50.3489 58.2784C49.0994 58.3332 47.8499 58.3293 46.5973 58.2698C46.3774 58.2581 46.156 58.244 45.9353 58.2292C45.9189 58.2268 45.9017 58.2268 45.8814 58.2229C42.4364 57.9882 39.0236 57.3004 35.7648 56.1511C33.6038 55.3914 31.5093 54.4235 29.5259 53.2656C28.7834 52.8329 28.0558 52.3713 27.3446 51.8838C26.8712 51.5591 26.408 51.2243 25.9511 50.8784C21.6181 47.5853 18.073 43.2922 15.9034 38.2394C14.9293 35.9697 14.2557 33.5794 13.8981 31.1438C13.8981 31.1383 13.8958 31.1297 13.8958 31.1234C13.8699 30.9544 13.8473 30.7854 13.8269 30.6133C13.8066 30.4701 13.7894 30.3246 13.7721 30.1783C13.7635 30.1008 13.7541 30.0234 13.7463 29.9467C13.7236 29.7221 13.7033 29.496 13.6829 29.273V29.2386C13.6665 29.0211 13.6516 28.8036 13.6376 28.5845V28.5704C13.6282 28.3991 13.6196 28.2301 13.6141 28.058C13.6055 27.8999 13.6031 27.7427 13.6 27.5823C13.5977 27.4101 13.5938 27.2411 13.5938 27.069V26.9861C13.5938 26.7623 13.5969 26.5362 13.6031 26.3132C13.6047 26.1653 13.6102 26.0182 13.6157 25.8711C13.618 25.8156 13.6196 25.7608 13.6227 25.7053C13.6227 25.6959 13.6227 25.6849 13.6258 25.6771V25.6708C13.6282 25.573 13.6344 25.476 13.6399 25.3782C13.6423 25.3352 13.6454 25.2921 13.6454 25.2491C13.6477 25.2382 13.6477 25.2288 13.6477 25.2178C13.6509 25.1607 13.6532 25.1028 13.6595 25.0488C13.6618 25.0199 13.6618 24.9941 13.6657 24.9659C13.6681 24.9189 13.6712 24.8712 13.6759 24.8235C13.6775 24.8024 13.6783 24.782 13.6798 24.7625C13.6806 24.7593 13.6806 24.7562 13.6806 24.7539C13.6853 24.6881 13.6916 24.6224 13.6962 24.5583C13.7025 24.4949 13.708 24.4323 13.7142 24.3728C13.7166 24.3267 13.7228 24.2782 13.7283 24.2289C13.7338 24.1537 13.7424 24.0825 13.751 24.0113C13.7588 23.9315 13.7667 23.8517 13.7761 23.7719C13.7768 23.7594 13.7784 23.7477 13.7792 23.7352C13.7894 23.6507 13.8003 23.5654 13.8113 23.4817C13.816 23.4331 13.8222 23.387 13.8277 23.3377C13.8363 23.2665 13.848 23.1914 13.8559 23.1202C13.8645 23.0654 13.8699 23.0083 13.8785 22.9535C13.8879 22.9027 13.8965 22.8479 13.9044 22.7963C13.913 22.7392 13.9224 22.6789 13.9302 22.6218C13.9505 22.4982 13.9709 22.3722 13.9896 22.2486C14.0014 22.1852 14.0131 22.1226 14.0241 22.0592C14.0296 22.0139 14.0382 21.9677 14.0499 21.9215C14.0679 21.8214 14.0843 21.7212 14.1047 21.6211C14.1101 21.6242 14.1156 21.6266 14.1211 21.6266C24.2267 24.8931 33.9849 29.3818 43.0099 34.9815C45.0966 36.274 47.1622 37.6323 49.1855 39.0688C49.9937 39.636 50.7925 40.2205 51.5835 40.8167C51.5835 40.8167 51.5854 40.8188 51.589 40.8229C51.7901 40.9747 51.9904 41.1273 52.1915 41.2814C52.2768 41.3448 52.3628 41.4097 52.4458 41.4762C52.5029 41.5224 52.5608 41.5654 52.6179 41.6108C52.7118 41.682 52.8033 41.7548 52.8956 41.826C53.1499 42.0271 53.4026 42.2274 53.6546 42.4277C53.7352 42.491 53.8126 42.5536 53.8901 42.617C53.9331 42.6514 53.9793 42.6858 54.0223 42.7234C54.0387 42.7375 54.0567 42.7484 54.0708 42.7625C54.3087 42.955 54.5465 43.1498 54.782 43.3446C54.9338 43.4706 55.0887 43.5989 55.2397 43.7288C55.2859 43.7656 55.3321 43.8063 55.3774 43.843C55.4111 43.8704 55.4439 43.8994 55.4768 43.9267C55.5863 44.0191 55.6951 44.1114 55.8038 44.2045C55.9126 44.2976 56.0206 44.3907 56.1293 44.4846C56.3445 44.6708 56.5589 44.8602 56.774 45.0495C58.3177 46.4156 59.8043 47.8435 61.2142 49.3371C62.3941 50.5858 63.5207 51.8807 64.5856 53.2241H64.5872Z" fill="url(#paint0_linear_1_78835)"/>
<path d="M23.0164 75.3954L19.832 67.0088H21.7129L23.4193 71.8847C23.7127 72.7039 23.8896 73.3658 23.9498 73.8713H24.0101C24.0554 73.5075 24.2323 72.8448 24.5405 71.8847L26.247 67.0088H28.1427L24.9427 75.3954H23.0164Z" fill="white"/>
<path d="M34.6625 75.3951L34.3058 74.2269H34.2455C33.841 74.7378 33.4342 75.0852 33.025 75.2699C32.6158 75.4545 32.09 75.5468 31.4476 75.5468C30.6238 75.5468 29.9806 75.3246 29.5182 74.8794C29.0558 74.435 28.8242 73.8052 28.8242 72.9915C28.8242 72.1269 29.145 71.4752 29.7874 71.0355C30.4289 70.5958 31.4077 70.3556 32.7222 70.3149L34.1704 70.2695V69.822C34.1704 69.286 34.0452 68.8854 33.7949 68.6202C33.5445 68.355 33.1564 68.2219 32.6306 68.2219C32.2011 68.2219 31.7888 68.2853 31.3944 68.4113C31.0001 68.538 30.6206 68.6867 30.2568 68.8588L29.6802 67.5851C30.1348 67.3472 30.6331 67.1665 31.1738 67.0429C31.7144 66.9192 32.2253 66.8574 32.7057 66.8574C33.7722 66.8574 34.5773 67.0898 35.121 67.5553C35.664 68.0209 35.9363 68.7509 35.9363 69.7469V75.3958H34.6625V75.3951ZM32.0086 74.1815C32.6557 74.1815 33.1752 74.0008 33.5672 73.6393C33.9592 73.2779 34.1548 72.7709 34.1548 72.1191V71.3915L33.0782 71.4369C32.2386 71.4674 31.6284 71.6074 31.2466 71.8578C30.8647 72.1082 30.6738 72.4908 30.6738 73.0064C30.6738 73.3804 30.7849 73.6698 31.0071 73.8748C31.2293 74.0798 31.5634 74.1823 32.0078 74.1823L32.0086 74.1815Z" fill="white"/>
<path d="M45.8026 75.3956H44.0133V70.2395C44.0133 69.5925 43.8834 69.1097 43.6228 68.7913C43.3623 68.4728 42.9492 68.3132 42.3827 68.3132C41.6347 68.3132 41.0847 68.537 40.7334 68.9845C40.3821 69.4321 40.2061 70.1816 40.2061 71.2332V75.3964H38.4237V63.5977H40.2061V66.5927C40.2061 67.0731 40.1755 67.5864 40.1153 68.1317H40.2287C40.4713 67.7272 40.8085 67.4142 41.2412 67.1913C41.6731 66.969 42.1777 66.8579 42.7536 66.8579C44.7855 66.8579 45.8018 67.8813 45.8018 69.9289V75.3964L45.8026 75.3956Z" fill="white"/>
<path d="M53.5297 75.3951L53.173 74.2269H53.1127C52.7082 74.7378 52.3014 75.0852 51.8922 75.2699C51.483 75.4545 50.9572 75.5468 50.3148 75.5468C49.4909 75.5468 48.8478 75.3246 48.3854 74.8794C47.923 74.435 47.6914 73.8052 47.6914 72.9915C47.6914 72.1269 48.0122 71.4752 48.6545 71.0355C49.2961 70.5958 50.2749 70.3556 51.5894 70.3149L53.0376 70.2695V69.822C53.0376 69.286 52.9124 68.8854 52.662 68.6202C52.4117 68.355 52.0236 68.2219 51.4978 68.2219C51.0683 68.2219 50.656 68.2853 50.2616 68.4113C49.8673 68.538 49.4878 68.6867 49.124 68.8588L48.5474 67.5851C49.0019 67.3472 49.5003 67.1665 50.041 67.0429C50.5816 66.9192 51.0925 66.8574 51.5729 66.8574C52.6394 66.8574 53.4445 67.0898 53.9882 67.5553C54.5312 68.0209 54.8035 68.7509 54.8035 69.7469V75.3958H53.5297V75.3951ZM50.8758 74.1815C51.5229 74.1815 52.0424 74.0008 52.4344 73.6393C52.8263 73.2779 53.0219 72.7709 53.0219 72.1191V71.3915L51.9454 71.4369C51.1058 71.4674 50.4956 71.6074 50.1137 71.8578C49.7319 72.1082 49.541 72.4908 49.541 73.0064C49.541 73.3804 49.6521 73.6698 49.8743 73.8748C50.0965 74.0798 50.4306 74.1823 50.875 74.1823L50.8758 74.1815Z" fill="white"/>
<path d="M64.668 75.3958H62.8786V70.2398C62.8786 69.5927 62.7487 69.11 62.4882 68.7915C62.2276 68.4731 61.8145 68.3135 61.248 68.3135C60.4946 68.3135 59.9438 68.5357 59.5948 68.9809C59.2459 69.4261 59.0714 70.1717 59.0714 71.2178V75.3958H57.2891V67.0092H58.6841L58.9345 68.1085H59.0252C59.2779 67.7095 59.6371 67.4004 60.1018 67.1837C60.5666 66.9662 61.0822 66.8574 61.6486 66.8574C63.6602 66.8574 64.6664 67.8808 64.6664 69.9284V75.3958H64.668Z" fill="white"/>
<defs>
<linearGradient id="paint0_linear_1_78835" x1="16.0036" y1="19.9131" x2="54.5121" y2="62.6811" gradientUnits="userSpaceOnUse">
<stop stop-color="#FFE90F"/>
<stop offset="0.14" stop-color="#FEC50D"/>
<stop offset="0.32" stop-color="#FE9D0A"/>
<stop offset="0.51" stop-color="#FE7E09"/>
<stop offset="0.68" stop-color="#FE6807"/>
<stop offset="0.85" stop-color="#FE5A07"/>
<stop offset="1" stop-color="#FE5607"/>
</linearGradient>
</defs>
</svg>
